<svg xmlns="http://www.w3.org/2000/svg" xmlns:xlink="http://www.w3.org/1999/xlink" viewBox="0 0 305.29 616.32"><defs><style>.cls-1,.cls-32,.cls-33,.cls-34,.cls-47,.cls-64,.cls-66,.cls-74{fill:none;}.cls-2{isolation:isolate;}.cls-26,.cls-3{mix-blend-mode:multiply;}.cls-4{fill:url(#linear-gradient);}.cls-5{clip-path:url(#clip-path);}.cls-6{fill:#7e7e7e;}.cls-7{clip-path:url(#clip-path-2);}.cls-8{fill:#838383;}.cls-9{fill:#888;}.cls-10{fill:#8c8c8c;}.cls-11{fill:#919191;}.cls-12{fill:#969696;}.cls-13{fill:#9b9b9b;}.cls-14{fill:#a0a0a0;}.cls-15{fill:#a5a5a5;}.cls-16{fill:#a9a9a9;}.cls-17{fill:#aeaeae;}.cls-18{clip-path:url(#clip-path-3);}.cls-19{clip-path:url(#clip-path-4);}.cls-20{fill:url(#linear-gradient-2);}.cls-21{fill:url(#linear-gradient-3);}.cls-22{fill:url(#linear-gradient-4);}.cls-23{fill:url(#linear-gradient-5);}.cls-24{fill:url(#linear-gradient-6);}.cls-25{fill:url(#linear-gradient-7);}.cls-26{opacity:0.5;}.cls-27{fill:url(#linear-gradient-8);}.cls-28{clip-path:url(#clip-path-5);}.cls-29{clip-path:url(#clip-path-6);}.cls-30{fill:url(#linear-gradient-9);}.cls-31{fill:url(#linear-gradient-10);}.cls-32,.cls-33,.cls-34,.cls-74{stroke-miterlimit:10;}.cls-32,.cls-33,.cls-34{stroke-width:0.99px;}.cls-32{stroke:url(#linear-gradient-11);}.cls-33{stroke:url(#linear-gradient-12);}.cls-34{stroke:url(#linear-gradient-13);}.cls-35{fill:url(#linear-gradient-14);}.cls-36{fill:url(#linear-gradient-15);}.cls-37{clip-path:url(#clip-path-7);}.cls-38{fill:url(#linear-gradient-16);}.cls-39{fill:url(#linear-gradient-17);}.cls-40{fill:url(#linear-gradient-18);}.cls-41{fill:url(#linear-gradient-19);}.cls-42{fill:url(#linear-gradient-20);}.cls-43{fill:url(#linear-gradient-21);}.cls-44{fill:url(#linear-gradient-22);}.cls-45{fill:url(#linear-gradient-23);}.cls-46{fill:url(#linear-gradient-24);}.cls-47,.cls-64,.cls-66,.cls-74{stroke-linecap:round;}.cls-47,.cls-64,.cls-66{stroke-linejoin:round;}.cls-47,.cls-66{stroke-width:0.96px;}.cls-47{stroke:url(#linear-gradient-25);}.cls-48{fill:url(#linear-gradient-26);}.cls-49{fill:url(#linear-gradient-27);}.cls-50,.cls-51,.cls-56{opacity:0.3;}.cls-50{fill:url(#linear-gradient-28);}.cls-51{fill:url(#linear-gradient-29);}.cls-52,.cls-53,.cls-54,.cls-69{opacity:0.2;}.cls-52{fill:url(#linear-gradient-30);}.cls-53{fill:url(#linear-gradient-31);}.cls-54{fill:url(#linear-gradient-32);}.cls-55{clip-path:url(#clip-path-8);}.cls-56{fill:url(#linear-gradient-33);}.cls-57{fill:#1220b1;}.cls-57,.cls-58{opacity:0.8;}.cls-58,.cls-63{fill:#091059;}.cls-59{fill:red;}.cls-60{fill:#ff0;}.cls-61{fill:lime;}.cls-62{fill:#fff;}.cls-64,.cls-74{stroke:#fff;}.cls-64{stroke-width:0.75px;opacity:0.7;}.cls-65{fill:url(#linear-gradient-34);}.cls-66{stroke:url(#linear-gradient-35);}.cls-67{fill:url(#linear-gradient-36);}.cls-68{fill:url(#linear-gradient-37);}.cls-69{fill:url(#linear-gradient-38);}.cls-70{fill:#000964;}.cls-71{fill:#29abe2;}.cls-72{fill:#ccc;}.cls-73{fill:#998675;}.cls-74{stroke-width:1.93px;}.cls-75{clip-path:url(#clip-path-9);}</style><linearGradient id="linear-gradient" y1="503.61" x2="305.29" y2="503.61" gradientTransform="translate(1.43 -0.43) rotate(0.16)" gradientUnits="userSpaceOnUse"><stop offset="0" stop-color="#fff" stop-opacity="0"/><stop offset="1" stop-opacity="0.2"/></linearGradient><clipPath id="clip-path" transform="translate(0 -15.45)"><path class="cls-1" d="M253.16,412.15c-56.91-29.63-144.14-29.63-201.42.61l6.94-3.67c53.33-28.15,134.54-28.15,187.53-.56Z"/></clipPath><clipPath id="clip-path-2" transform="translate(0 -15.45)"><path class="cls-1" d="M2.47,477.44c-.06-22.92,15.41-45.85,46.22-63C108.54,381,203.62,382,261,416.56l.06,20.22c-57.42-34.57-152.5-35.53-212.36-2.15-30.8,17.17-46.27,40.1-46.21,63C2.51,491.58,2.49,483.5,2.47,477.44Z"/></clipPath><clipPath id="clip-path-3" transform="translate(0 -15.45)"><path class="cls-1" d="M246.21,408.53l6.95,3.62q4.05,2.12,7.88,4.41l-7.49-3.92Q250,410.5,246.21,408.53Z"/></clipPath><clipPath id="clip-path-4" transform="translate(0 -15.45)"><path class="cls-1" d="M302.92,496.77c-.07-21.61-13.95-43.22-41.82-60L261,416.56c27.88,16.78,41.76,38.39,41.82,60C302.87,482.62,302.9,490.71,302.92,496.77Z"/></clipPath><linearGradient id="linear-gradient-2" x1="12.81" y1="468.9" x2="292.48" y2="468.9" gradientTransform="translate(1.33 -0.43) rotate(0.16)" gradientUnits="userSpaceOnUse"><stop offset="0" stop-color="#131a64"/><stop offset="1" stop-color="#000964"/></linearGradient><linearGradient id="linear-gradient-3" x1="2.48" y1="486.54" x2="302.85" y2="486.54" gradientUnits="userSpaceOnUse"><stop offset="0" stop-color="#4f6dff"/><stop offset="1" stop-color="#445edb"/></linearGradient><linearGradient id="linear-gradient-4" x1="2.47" y1="530.37" x2="302.92" y2="530.37" gradientUnits="userSpaceOnUse"><stop offset="0" stop-color="#445edb"/><stop offset="1" stop-color="#394fb8"/></linearGradient><linearGradient id="linear-gradient-5" x1="37.02" y1="542.85" x2="44.71" y2="542.85" xlink:href="#linear-gradient-4"/><linearGradient id="linear-gradient-6" x1="39.32" y1="548.96" x2="39.32" y2="539.04" gradientUnits="userSpaceOnUse"><stop offset="0" stop-color="#445edb"/><stop offset="1" stop-color="#4f6dff"/></linearGradient><linearGradient id="linear-gradient-7" x1="34.17" y1="544.87" x2="40.87" y2="544.87" gradientTransform="matrix(1, 0, 0, 1, 0, 0)" xlink:href="#linear-gradient-2"/><linearGradient id="linear-gradient-8" x1="42.45" y1="461.19" x2="262.83" y2="461.19" gradientTransform="translate(1.31 -0.43) rotate(0.16)" xlink:href="#linear-gradient-2"/><clipPath id="clip-path-5" transform="translate(0 -15.45)"><path class="cls-1" d="M77.37,343.25A77.54,77.54,0,0,1,89,335.41c36.6-20.41,94.75-19.83,129.87,1.31l10.8,9c-40.82-24.57-108.4-25.25-150.95-1.53a89.39,89.39,0,0,0-13.49,9.12Z"/></clipPath><clipPath id="clip-path-6" transform="translate(0 -15.45)"><path class="cls-1" d="M239.82,352.81a87.1,87.1,0,0,0-10.17-7.11l-10.8-9a75.21,75.21,0,0,1,8.75,6.11Z"/></clipPath><linearGradient id="linear-gradient-9" x1="45.87" y1="396.67" x2="259.36" y2="396.67" xlink:href="#linear-gradient-3"/><linearGradient id="linear-gradient-10" x1="60.72" y1="373.68" x2="244.42" y2="373.68" gradientTransform="translate(1.06 -0.43) rotate(0.16)" xlink:href="#linear-gradient-2"/><linearGradient id="linear-gradient-11" x1="60.22" y1="276.78" x2="244.91" y2="276.78" gradientTransform="translate(0.79 -0.43) rotate(0.16)" gradientUnits="userSpaceOnUse"><stop offset="0" stop-color="#fff" stop-opacity="0.5"/><stop offset="1" stop-color="#fff" stop-opacity="0"/></linearGradient><linearGradient id="linear-gradient-12" x1="60.22" y1="215.06" x2="244.91" y2="215.06" gradientTransform="translate(0.61 -0.43) rotate(0.16)" gradientUnits="userSpaceOnUse"><stop offset="0" stop-color="#fff" stop-opacity="0"/><stop offset="1" stop-color="#fff" stop-opacity="0.5"/></linearGradient><linearGradient id="linear-gradient-13" x1="91.04" y1="135.83" x2="214.1" y2="135.83" gradientTransform="translate(0.39 -0.43) rotate(0.16)" xlink:href="#linear-gradient-11"/><linearGradient id="linear-gradient-14" x1="45.85" y1="452.74" x2="259.56" y2="452.74" xlink:href="#linear-gradient-4"/><linearGradient id="linear-gradient-15" x1="70.5" y1="370.8" x2="236.55" y2="370.8" xlink:href="#linear-gradient-4"/><clipPath id="clip-path-7" transform="translate(0 -15.45)"><path class="cls-1" d="M212,336.8c32.53,18.78,32.7,49.23.38,68s-84.88,18.78-117.41,0-32.7-49.24-.39-68S179.51,318,212,336.8Z"/></clipPath><linearGradient id="linear-gradient-16" x1="82.83" y1="399.97" x2="224.21" y2="399.97" xlink:href="#linear-gradient-3"/><linearGradient id="linear-gradient-17" x1="153.56" y1="407.72" x2="153.56" y2="325.86" gradientUnits="userSpaceOnUse"><stop offset="0" stop-color="#4fffc3"/><stop offset="1" stop-color="#4f6dff"/></linearGradient><linearGradient id="linear-gradient-18" x1="153.56" y1="407.85" x2="153.56" y2="22.69" gradientUnits="userSpaceOnUse"><stop offset="0" stop-color="#00ffc7"/><stop offset="0.21" stop-color="#49ffd7" stop-opacity="0.72"/><stop offset="0.46" stop-color="#96ffe8" stop-opacity="0.41"/><stop offset="0.66" stop-color="#cffff4" stop-opacity="0.19"/><stop offset="0.81" stop-color="#f2fffc" stop-opacity="0.05"/><stop offset="0.89" stop-color="#fff" stop-opacity="0"/></linearGradient><linearGradient id="linear-gradient-19" x1="153.56" y1="392.72" x2="153.56" y2="15.45" xlink:href="#linear-gradient-18"/><linearGradient id="linear-gradient-20" x1="240.22" y1="441.2" x2="245.64" y2="435.77" gradientUnits="userSpaceOnUse"><stop offset="0" stop-color="#fff"/><stop offset="1" stop-color="#bfcaff"/></linearGradient><linearGradient id="linear-gradient-21" x1="240.18" y1="448.26" x2="245.74" y2="448.26" gradientTransform="matrix(1, 0, 0, 1, 0, 0)" xlink:href="#linear-gradient-2"/><linearGradient id="linear-gradient-22" x1="240.21" y1="458.04" x2="245.77" y2="458.04" gradientTransform="matrix(1, 0, 0, 1, 0, 0)" xlink:href="#linear-gradient-2"/><linearGradient id="linear-gradient-23" x1="-29.12" y1="448.26" x2="-23.55" y2="448.26" gradientTransform="matrix(-1, 0, 0, 1, 35.37, 0)" xlink:href="#linear-gradient-2"/><linearGradient id="linear-gradient-24" x1="61.68" y1="450.16" x2="61.68" y2="446.36" gradientUnits="userSpaceOnUse"><stop offset="0" stop-color="#4f6dff"/><stop offset="1" stop-color="#4fffc3"/></linearGradient><linearGradient id="linear-gradient-25" x1="38.49" y1="472.88" x2="62.5" y2="472.88" xlink:href="#linear-gradient-24"/><linearGradient id="linear-gradient-26" x1="-29.09" y1="458.04" x2="-23.53" y2="458.04" gradientTransform="matrix(-1, 0, 0, 1, 35.37, 0)" xlink:href="#linear-gradient-2"/><linearGradient id="linear-gradient-27" x1="61.68" y1="459.94" x2="61.68" y2="456.13" xlink:href="#linear-gradient-24"/><linearGradient id="linear-gradient-28" x1="131.22" y1="256.44" x2="168.07" y2="256.44" xlink:href="#linear-gradient-4"/><linearGradient id="linear-gradient-29" x1="131.22" y1="93.8" x2="168.07" y2="93.8" xlink:href="#linear-gradient-4"/><linearGradient id="linear-gradient-30" x1="59.77" y1="160.38" x2="84.4" y2="160.38" xlink:href="#linear-gradient-4"/><linearGradient id="linear-gradient-31" x1="238.57" y1="160.43" x2="255.32" y2="160.43" xlink:href="#linear-gradient-4"/><linearGradient id="linear-gradient-32" x1="211.06" y1="364.24" x2="239.36" y2="364.24" xlink:href="#linear-gradient-4"/><clipPath id="clip-path-8" transform="translate(0 -15.45)"><path class="cls-1" d="M259.73,62.06l-.8,281.81c0,15.7-10.36,31.38-31,43.36-41.5,24.12-109,24.12-150.78,0-21-12.14-31.52-28.07-31.48-44l.8-281.8c0,15.91,10.46,31.84,31.48,44,41.78,24.12,109.28,24.12,150.78,0C249.37,93.45,259.69,77.77,259.73,62.06Z"/></clipPath><linearGradient id="linear-gradient-33" x1="55.87" y1="341.19" x2="120.88" y2="341.19" xlink:href="#linear-gradient-4"/><linearGradient id="linear-gradient-34" x1="224.1" y1="630.33" x2="226.89" y2="630.33" gradientTransform="matrix(1, 0, 0, 1, 0, 0)" xlink:href="#linear-gradient"/><linearGradient id="linear-gradient-35" x1="61.2" y1="378.51" x2="102.15" y2="378.51" gradientUnits="userSpaceOnUse"><stop offset="0" stop-color="#4fffc3"/><stop offset="1" stop-color="#fff"/></linearGradient><linearGradient id="linear-gradient-36" x1="-29.07" y1="441.2" x2="-23.65" y2="435.77" gradientTransform="matrix(-1, 0, 0, 1, 35.37, 0)" xlink:href="#linear-gradient-2"/><linearGradient id="linear-gradient-37" x1="61.68" y1="440.68" x2="61.68" y2="436.88" xlink:href="#linear-gradient-24"/><linearGradient id="linear-gradient-38" x1="107.13" y1="332.59" x2="194.67" y2="332.59" xlink:href="#linear-gradient-4"/><clipPath id="clip-path-9" transform="translate(0 -15.45)"><path class="cls-1" d="M261.15,382.13l-.21,73c-.05,16-10.57,32-31.6,44.22C187,524,118.18,524,75.58,499.36,54.14,487,43.43,470.73,43.48,454.51l.21-73c0,16.22,10.66,32.47,32.09,44.84,42.61,24.6,111.45,24.6,153.77,0C250.57,414.13,261.1,398.14,261.15,382.13Z"/></clipPath></defs><title>Center</title><g class="cls-2"><g id="Layer_2" data-name="Layer 2"><g id="Center"><g class="cls-3"><ellipse class="cls-4" cx="152.64" cy="503.61" rx="152.64" ry="88.42" transform="translate(-1.43 -15.01) rotate(-0.16)"/></g><g class="cls-2"><g class="cls-2"><g class="cls-5"><g class="cls-2"><path class="cls-6" d="M253.16,412.15l-6.95-3.62c-53-27.59-134.2-27.59-187.53.56l-6.94,3.67c57.28-30.24,144.51-30.24,201.42-.61" transform="translate(0 -15.45)"/></g></g></g><g class="cls-2"><g class="cls-7"><g class="cls-2"><path class="cls-6" d="M261.1,436.78,261,416.56a160.3,160.3,0,0,0-24.54-11.93l.05,20.22a159.05,159.05,0,0,1,24.55,11.93" transform="translate(0 -15.45)"/><path class="cls-8" d="M236.55,424.85l-.05-20.22c-5.84-2.26-11.9-4.27-18.12-6l.06,20.21c6.22,1.74,12.28,3.75,18.11,6" transform="translate(0 -15.45)"/><path class="cls-9" d="M218.44,418.83l-.06-20.21c-5.15-1.44-10.42-2.7-15.77-3.78l.06,20.21c5.35,1.08,10.62,2.34,15.77,3.78" transform="translate(0 -15.45)"/><path class="cls-10" d="M202.67,415.05l-.06-20.21q-7.31-1.47-14.8-2.5l.06,20.21q7.49,1,14.8,2.5" transform="translate(0 -15.45)"/><path class="cls-11" d="M187.87,412.55l-.06-20.21c-4.8-.66-9.65-1.18-14.52-1.56l.06,20.21c4.87.38,9.72.9,14.52,1.56" transform="translate(0 -15.45)"/><path class="cls-12" d="M173.35,411l-.06-20.21c-4.87-.38-9.78-.62-14.68-.72l0,20.21q7.36.15,14.69.72" transform="translate(0 -15.45)"/><path class="cls-13" d="M158.66,410.27l0-20.21q-7.62-.17-15.23.12l.06,20.21q7.6-.28,15.22-.12" transform="translate(0 -15.45)"/><path class="cls-14" d="M143.44,410.39l-.06-20.21c-5.52.21-11,.59-16.5,1.15l.06,20.21c5.46-.56,11-.94,16.5-1.15" transform="translate(0 -15.45)"/><path class="cls-15" d="M126.94,411.54l-.06-20.21c-6.34.65-12.63,1.54-18.82,2.66l.06,20.21c6.19-1.12,12.48-2,18.82-2.66" transform="translate(0 -15.45)"/><path class="cls-16" d="M108.12,414.2,108.06,394a220.68,220.68,0,0,0-26.71,6.55l.05,20.22a219,219,0,0,1,26.72-6.56" transform="translate(0 -15.45)"/><path class="cls-17" d="M81.4,420.76l-.05-20.22a174.7,174.7,0,0,0-32.66,13.88c-2.49,1.38-4.87,2.8-7.16,4.26l.06,20.21c2.28-1.45,4.67-2.88,7.15-4.26A174.58,174.58,0,0,1,81.4,420.76" transform="translate(0 -15.45)"/><path class="cls-16" d="M41.59,438.89l-.06-20.21a113,113,0,0,0-17.32,13.44l.06,20.21a113,113,0,0,1,17.32-13.44" transform="translate(0 -15.45)"/><path class="cls-15" d="M24.27,452.33l-.06-20.21a84.89,84.89,0,0,0-8.93,9.93l.05,20.21a85.91,85.91,0,0,1,8.94-9.93" transform="translate(0 -15.45)"/><path class="cls-14" d="M15.33,462.26l-.05-20.21a69.49,69.49,0,0,0-5.79,8.89l.06,20.21a70.48,70.48,0,0,1,5.78-8.89" transform="translate(0 -15.45)"/><path class="cls-13" d="M9.55,471.15l-.06-20.21a60.45,60.45,0,0,0-3.84,8.5l.06,20.21a60.45,60.45,0,0,1,3.84-8.5" transform="translate(0 -15.45)"/><path class="cls-12" d="M5.71,479.65l-.06-20.21a54.94,54.94,0,0,0-2.3,8.43l.06,20.21a53.83,53.83,0,0,1,2.3-8.43" transform="translate(0 -15.45)"/><path class="cls-11" d="M3.41,488.08l-.06-20.21a51.77,51.77,0,0,0-.87,8.57l.06,20.22a51.78,51.78,0,0,1,.87-8.58" transform="translate(0 -15.45)"/><path class="cls-10" d="M2.54,496.66l-.06-20.22c0,.33,0,.66,0,1l.06,20.21c0-.33,0-.66,0-1" transform="translate(0 -15.45)"/></g></g></g><g class="cls-2"><g class="cls-18"><g class="cls-2"><path class="cls-13" d="M261,416.56l-7.49-3.92c-1.42-.85-2.87-1.69-4.33-2.5l7.18,3.74c1.57.87,3.12,1.77,4.64,2.68" transform="translate(0 -15.45)"/><path class="cls-12" d="M256.4,413.88l-7.18-3.74c-1-.54-2-1.08-3-1.61l6.95,3.62c1.09.57,2.17,1.15,3.24,1.73" transform="translate(0 -15.45)"/></g></g></g><g class="cls-2"><g class="cls-19"><g class="cls-2"><path class="cls-6" d="M302.92,496.77l-.06-20.21c-.06-21.61-13.94-43.22-41.82-60l.06,20.22c27.87,16.77,41.75,38.38,41.82,60" transform="translate(0 -15.45)"/></g></g></g><ellipse class="cls-20" cx="152.64" cy="468.9" rx="139.83" ry="81" transform="translate(-1.33 -15.01) rotate(-0.16)"/><path class="cls-21" d="M302.14,485.19c.15-.92.29-1.84.39-2.76a.88.88,0,0,0,0-.16c0-.13,0-.25,0-.38.08-.76.14-1.51.18-2.27,0-.22,0-.44,0-.67,0-.89.06-1.79.05-2.69a.4.4,0,0,0,0-.11c0-.12,0-.23,0-.35q0-1.12-.09-2.25c0-.24,0-.48-.05-.72-.07-.88-.15-1.77-.26-2.65h0q-.18-1.31-.42-2.61c0-.24-.09-.48-.14-.72-.13-.71-.29-1.41-.45-2.11,0-.14-.06-.27-.09-.4s0-.11,0-.16c-.22-.85-.45-1.7-.71-2.55-.06-.2-.13-.39-.19-.59-.21-.68-.44-1.36-.68-2-.05-.13-.09-.27-.14-.41a2.85,2.85,0,0,1-.12-.31c-.31-.83-.64-1.66-1-2.48a.14.14,0,0,1,0-.06c-.36-.84-.75-1.68-1.16-2.52a2.55,2.55,0,0,1-.13-.29l-.22-.41c-.33-.67-.68-1.33-1-2-.1-.2-.21-.39-.32-.59-.46-.83-.94-1.65-1.45-2.48l-.08-.13c-.07-.13-.16-.25-.24-.37-.43-.68-.87-1.36-1.33-2l-.47-.69c-.57-.82-1.16-1.63-1.77-2.45h0c-.63-.84-1.29-1.66-2-2.48l-.55-.66c-.59-.7-1.19-1.4-1.82-2.09l-.26-.3-.09-.09c-.75-.83-1.53-1.64-2.33-2.45l-.6-.6c-.7-.7-1.42-1.39-2.15-2.07l-.33-.32-.12-.11c-.9-.82-1.82-1.64-2.77-2.45l-.66-.56c-.9-.75-1.81-1.5-2.75-2.24l-.23-.18-.09-.08-.48-.36-1.64-1.25-.75-.55-1.47-1.05-.81-.57-1.57-1.08-.73-.49-.26-.17c-.46-.31-.93-.6-1.4-.9l-.81-.53c-.83-.53-1.68-1.05-2.54-1.57l-7.49-3.92c.8.48,1.58,1,2.36,1.46l.76.49,1.45.94c1.11.74,2.2,1.49,3.26,2.25l.68.48c1.06.77,2.1,1.55,3.11,2.33l.27.22c.87.69,1.72,1.39,2.56,2.09l.62.52c.88.75,1.74,1.51,2.57,2.28l.42.39c.68.64,1.35,1.29,2,1.94.19.18.38.36.56.55.75.76,1.47,1.51,2.17,2.28l.33.37c.58.64,1.15,1.29,1.69,1.94l.52.62c.63.76,1.25,1.53,1.83,2.3l0,0c.57.76,1.11,1.52,1.64,2.28l.44.64c.43.63.84,1.26,1.24,1.9.1.15.21.31.3.47.47.76.92,1.53,1.35,2.3.11.19.2.37.3.55.34.62.66,1.24,1,1.85.11.22.22.44.32.66.38.78.74,1.56,1.08,2.35l0,0c.33.77.63,1.55.92,2.32l.24.67c.23.63.44,1.26.64,1.9.06.18.12.36.17.54.24.8.46,1.59.66,2.38l.12.52c.16.65.3,1.31.43,2,0,.23.09.45.13.68.15.81.28,1.62.38,2.43h0c.11.82.19,1.64.25,2.47,0,.22,0,.44.05.67,0,.69.07,1.39.08,2.09,0,.14,0,.28,0,.43,0,.83,0,1.67-.05,2.5l0,.63c0,.7-.1,1.4-.17,2.11,0,.16,0,.33-.05.5-.1.86-.22,1.72-.36,2.57,0,.2-.07.39-.11.59-.14.75-.29,1.51-.46,2.26,0,.14-.06.28-.1.42q-.31,1.33-.72,2.67c-.05.2-.12.39-.18.59-.28.91-.58,1.81-.91,2.71h0c-.36,1-.75,1.89-1.16,2.84-.08.17-.15.35-.23.52-.41.91-.85,1.82-1.31,2.72l-.51,1-.36.67c-.23.42-.47.83-.72,1.25-.1.17-.19.34-.29.5-.35.59-.71,1.17-1.08,1.75l-.22.32q-.45.71-.93,1.41c-.14.2-.29.4-.43.61l-.8,1.11-.51.68-.79,1-.55.69-.84,1-.57.68-.57.65c-.69.8-1.39,1.58-2.13,2.36l-.16.18c-.78.82-1.59,1.63-2.42,2.44l-.62.59-1.62,1.5-.56.51c-.73.66-1.49,1.31-2.26,2l-.8.65c-.42.35-.84.7-1.28,1l-.91.71-1.27,1L262,519.2l-.55.4c-.68.49-1.37,1-2.08,1.45-1,.68-2,1.34-3,2l-.92.59-1.81,1.11-1,.61c-.67.4-1.34.79-2,1.18l-1.1.63c-1.68.93-3.38,1.83-5.12,2.71l-.5.25c-1.64.82-3.29,1.62-5,2.38l-.41.19q-2.66,1.2-5.38,2.33l-.25.1q-2.69,1.1-5.43,2.1l-.42.16c-1.88.68-3.78,1.35-5.7,2l-.27.08c-1.9.63-3.83,1.22-5.77,1.79l-.42.12c-1.44.42-2.9.81-4.37,1.19l-2.67.7c-1.69.42-3.38.83-5.08,1.21l-.14,0q-2.83.63-5.7,1.18l-1.28.25c-1.88.35-3.77.69-5.67,1-.31.06-.63.1-.95.15-1.68.26-3.37.51-5.06.74l-1.37.18c-1.91.24-3.83.47-5.75.66l-.42.05c-2.12.21-4.23.4-6.36.55l-.32,0q-3.19.22-6.39.38H163q-3.21.14-6.44.2h-.25q-3.21.06-6.42,0h-.34c-2.15,0-4.31-.07-6.46-.15H143q-3.17-.12-6.3-.32l-.51,0c-2.14-.14-4.26-.31-6.39-.51h-.19q-3.22-.32-6.42-.7l-.19,0q-2.92-.37-5.83-.81l-.85-.12c-1.91-.29-3.82-.62-5.71-1-.49-.08-1-.18-1.46-.27-1.37-.26-2.74-.53-4.11-.82-.81-.16-1.61-.33-2.42-.51l-3.49-.8-2.66-.65c-1-.25-2-.52-3-.78-1.17-.32-2.33-.63-3.49-1-1.61-.46-3.22-.93-4.81-1.44l-.37-.12c-1.7-.54-3.37-1.11-5-1.7-.33-.11-.67-.22-1-.34-1.7-.61-3.37-1.24-5-1.9l-1.14-.46c-1.46-.59-2.9-1.19-4.33-1.82l-.86-.37q-2.46-1.1-4.84-2.26c-.39-.18-.76-.37-1.14-.56-1.27-.63-2.52-1.28-3.75-1.94l-1.27-.68c-1.58-.87-3.14-1.75-4.67-2.67-1.1-.66-2.16-1.33-3.21-2l-.81-.52c-1-.64-1.91-1.27-2.84-1.92l-.23-.15c-1.09-.77-2.15-1.55-3.18-2.33l-.65-.49c-1-.77-2-1.55-2.94-2.34l-1.2-1-.59-.51c-.61-.53-1.21-1.06-1.8-1.6l-.12-.11-1.61-1.52-.55-.54L30.92,509l-.81-.85c-.29-.29-.57-.59-.85-.89l-.78-.86-.8-.9c-.25-.29-.5-.58-.74-.88l-.76-.9-.7-.88-.71-.9c-.34-.44-.66-.88-1-1.33l-.46-.62c-.47-.66-.92-1.31-1.35-2,0-.05-.07-.11-.11-.17-.39-.6-.78-1.2-1.15-1.81l-.39-.67-.77-1.33c-.12-.22-.23-.44-.35-.65-.32-.59-.62-1.17-.91-1.76L18,491c-.37-.77-.73-1.54-1.06-2.31l-.05-.12c-.31-.74-.6-1.48-.88-2.22l-.24-.68c-.22-.61-.42-1.21-.62-1.81l-.21-.67c-.07-.24-.14-.48-.2-.72s-.21-.74-.31-1.11-.13-.5-.19-.75-.17-.73-.25-1.09-.11-.51-.17-.76l-.21-1.1c0-.25-.09-.49-.13-.74s-.12-.76-.17-1.14-.07-.47-.1-.71c0-.42-.09-.84-.14-1.26,0-.2,0-.39,0-.58-.06-.61-.1-1.23-.13-1.84v-.17c0-.55,0-1.1,0-1.65,0-.79,0-1.59,0-2.39l0-.61c0-.62.08-1.25.14-1.87,0-.22,0-.45.07-.67.08-.8.19-1.6.31-2.39l0-.14c.12-.76.27-1.51.43-2.26l.15-.69c.14-.63.3-1.26.47-1.88l.14-.56c.22-.78.46-1.57.73-2.35.05-.18.12-.35.18-.52q.32-.94.69-1.89c.09-.23.17-.46.27-.68.28-.71.58-1.42.9-2.12l.1-.24c.36-.78.74-1.55,1.13-2.32.11-.21.22-.42.34-.63.31-.6.64-1.19,1-1.78l.36-.62c.44-.76.91-1.51,1.39-2.27l.22-.32c.42-.65.87-1.3,1.33-1.95l.47-.67q.66-.9,1.35-1.8l.36-.46c.58-.74,1.18-1.47,1.79-2.2l.46-.52c.5-.58,1-1.14,1.52-1.71l.58-.63c.64-.68,1.29-1.36,2-2l.12-.12c.71-.71,1.45-1.41,2.21-2.11l.64-.59c.59-.54,1.2-1.07,1.82-1.61l.62-.53c.8-.69,1.62-1.36,2.47-2l.43-.34c.72-.57,1.46-1.13,2.2-1.69l.79-.58c.74-.54,1.5-1.08,2.26-1.61l.54-.37c.93-.64,1.89-1.28,2.86-1.9l.75-.48c.77-.49,1.56-1,2.35-1.45l.88-.53c1-.61,2.08-1.22,3.16-1.82s1.88-1,2.84-1.55h0l-6.94,3.67c-1,.54-2,1.09-3.05,1.66s-2.28,1.29-3.39,1.95l-.95.57-2.52,1.56L41,419c-1.05.67-2.08,1.36-3.08,2l-.57.4c-.83.58-1.64,1.15-2.43,1.74-.29.2-.57.41-.85.62-.8.6-1.59,1.2-2.36,1.81l-.47.36c-.91.72-1.79,1.45-2.65,2.18l-.68.58c-.66.57-1.31,1.15-1.94,1.73l-.7.63c-.81.75-1.6,1.5-2.37,2.26l-.13.14c-.73.72-1.42,1.45-2.11,2.18l-.62.67c-.56.61-1.1,1.22-1.63,1.83l-.49.57c-.67.78-1.31,1.56-1.93,2.35-.14.17-.26.34-.39.51-.5.64-1,1.28-1.45,1.93l-.51.71c-.49.7-1,1.4-1.43,2.11l-.22.33c-.53.81-1,1.63-1.51,2.45l-.37.66c-.37.63-.72,1.27-1.05,1.91-.12.23-.25.45-.36.68-.43.83-.84,1.66-1.22,2.49a.08.08,0,0,1,0,0l-.09.21c-.34.76-.66,1.52-1,2.28-.1.24-.19.49-.29.73-.26.68-.5,1.35-.74,2-.06.19-.13.37-.19.56-.28.84-.54,1.68-.78,2.53,0,.2-.1.4-.16.6-.18.67-.34,1.34-.5,2,0,.24-.11.49-.16.74-.17.8-.33,1.61-.46,2.42l0,.15c-.13.86-.24,1.72-.34,2.57,0,.24,0,.48-.07.72q-.09,1-.15,2c0,.22,0,.44,0,.66,0,.86,0,1.71,0,2.57v.1c0,.55,0,1.1,0,1.65a1.27,1.27,0,0,1,0,.2c0,.65.08,1.31.13,2,0,.21,0,.42.07.63,0,.45.09.9.14,1.35,0,.26.07.51.11.77l.18,1.21c0,.27.1.54.14.81s.15.78.23,1.17.11.55.17.82.18.78.28,1.17.13.54.2.81l.33,1.19c.07.26.15.52.22.78,0,.09,0,.18.08.26l.15.44c.21.66.42,1.3.66,1.95.08.25.17.49.26.74.3.79.61,1.59,1,2.38,0,0,0,.08,0,.13.35.83.74,1.66,1.14,2.48.11.24.23.47.34.71q.48.94,1,1.89l.23.44c0,.08.1.17.15.26.26.47.54,1,.82,1.42.14.24.28.49.43.73.39.65.8,1.3,1.23,1.94l.11.19c.47.7.95,1.41,1.45,2.11l.48.66c.35.48.71,1,1.07,1.43l.17.23c.19.25.39.49.58.73s.5.64.76.95.54.65.82,1,.52.63.8.94.57.65.85,1l.84.93.91.95c.29.31.58.62.88.92l.21.23.95.93.6.59c.56.54,1.12,1.08,1.7,1.61l.15.14c.63.58,1.28,1.15,1.93,1.72l.64.54,1.12,1,.27.21.67.54,1.38,1.11.75.59,1.44,1.09.71.53,1.84,1.32c.12.09.24.18.37.26l.06,0,.2.14c1,.69,2,1.37,3,2.05l.87.56c1.13.73,2.27,1.45,3.45,2.16l.3.18c1.54.92,3.12,1.82,4.72,2.69l1.36.73c.65.35,1.29.71,1.95,1.05s1.38.69,2.07,1l1.23.61q2.36,1.15,4.77,2.24l.43.19.92.39q2.3,1,4.65,2l1.23.49.81.33c1.51.59,3,1.15,4.58,1.71l1.07.37c.74.26,1.47.53,2.21.78,1.06.36,2.13.7,3.2,1l.39.13q2,.63,4,1.23l1.18.32c1.24.36,2.49.7,3.74,1,.7.19,1.38.4,2.08.58.37.09.75.17,1.12.27.95.24,1.9.46,2.86.69.76.18,1.51.38,2.27.55l1.48.31,2.59.56,1.9.4c.84.17,1.68.32,2.52.47l1.56.3.83.15c1.6.28,3.19.55,4.8.8l.51.07.92.14,2.8.41c1.15.16,2.3.31,3.46.45l.19,0,.1,0,3.77.43c1,.11,2,.21,3,.3l.2,0h.13c1,.1,2,.19,3,.27l3,.22.68,0,.56,0,1.79.12,2.69.14,2.28.09h.3l2.58.08,2.58.06,1.63,0h5.58l1.67,0h.68l2.35-.05,2.39-.08,1.77-.08h.29l.4,0c.82,0,1.64-.08,2.45-.12l2.45-.15,1.57-.12.34,0,.54,0,2.81-.23c1-.08,2-.18,3-.27l.5-.06.46,0,2-.21,2.95-.35,1.23-.16,1.48-.2,1.92-.25,3.51-.54,1-.15.37-.06q2.87-.47,5.71-1l1.38-.27q3.08-.59,6.12-1.26l.15,0c1.38-.3,2.75-.62,4.12-1l1.34-.34c1-.24,1.91-.49,2.87-.75l2-.52,2.67-.76.44-.13.29-.08c1.08-.31,2.15-.64,3.22-1l2.7-.86.29-.1.19-.06,2.76-.93,2.53-.9.64-.24.45-.16,1.43-.53,2.49-1,1.91-.77L239,548l.28-.11,2.41-1,2.38-1,.72-.33.44-.2c.4-.18.81-.36,1.2-.55.87-.4,1.72-.81,2.58-1.22l1.57-.79.54-.27.59-.29c.89-.46,1.78-.92,2.66-1.39l2.25-1.23.48-.27.7-.41,2.18-1.26.45-.26.63-.4c.66-.39,1.3-.79,1.94-1.19l.63-.39.36-.24c1.11-.71,2.2-1.42,3.26-2.15l.06,0c.74-.5,1.46-1,2.18-1.53l.57-.42,1.32-1,.25-.19c.47-.35.92-.7,1.37-1.06l1-.75c.47-.37.93-.75,1.39-1.13l.75-.61.1-.08q1.25-1.05,2.43-2.1l.6-.55c.59-.54,1.17-1.07,1.73-1.61.12-.11.25-.22.36-.34l.31-.3c.89-.87,1.76-1.74,2.59-2.62.07-.06.12-.13.18-.19.79-.84,1.55-1.68,2.29-2.53.1-.11.21-.22.3-.33l.31-.37.61-.73c.31-.37.61-.73.9-1.1l.59-.74.86-1.12.54-.73c.29-.4.58-.79.86-1.19l.46-.66.13-.18c.3-.44.59-.88.88-1.33.07-.12.16-.23.23-.35.4-.62.79-1.25,1.16-1.87.11-.18.21-.36.31-.54.27-.45.53-.9.77-1.35.14-.23.26-.47.39-.71s.3-.54.44-.81l.19-.39.35-.7c.2-.4.39-.81.58-1.21l.33-.7c.19-.43.38-.86.56-1.29.09-.2.18-.4.26-.6.26-.63.5-1.26.74-1.89h0c.36-1,.68-1.93,1-2.9.06-.22.13-.43.2-.64.28-.95.54-1.91.77-2.86l0-.13c0-.11,0-.22.07-.33.18-.81.35-1.62.5-2.43C302.06,485.61,302.1,485.4,302.14,485.19Z" transform="translate(0 -15.45)"/><path class="cls-22" d="M302.45,503.71c.05-.36.09-.72.13-1.08s.08-.71.11-1.07.07-.72.09-1.07.05-.72.07-1.08,0-.71,0-1.07c0-.19,0-.39,0-.58s0-.66,0-1l-.06-20.21c0,.52,0,1,0,1.57,0,.36,0,.71,0,1.07s0,.72-.07,1.08-.05.71-.08,1.07-.07.71-.11,1.07-.09.72-.14,1.07-.1.72-.15,1.07l-.18,1.07c-.06.36-.13.72-.2,1.08s-.14.7-.22,1.05-.16.72-.25,1.07-.17.7-.26,1.05-.19.71-.3,1.07l-.3,1.05-.34,1.06c-.12.35-.23.7-.36,1s-.24.7-.37,1l-.42,1.09-.42,1c-.15.36-.31.73-.47,1.09s-.3.68-.46,1l-.51,1.08c-.17.34-.34.68-.52,1s-.36.72-.55,1.08l-.54,1c-.23.41-.46.82-.7,1.22l-.56.94c-.25.41-.51.82-.77,1.23s-.38.61-.58.91l-.86,1.26c-.2.29-.39.58-.6.87s-.64.88-1,1.32c-.2.25-.38.52-.58.77-.59.77-1.2,1.54-1.83,2.3l-.45.53c-.5.59-1,1.18-1.52,1.76l-.68.76c-.48.52-1,1.05-1.47,1.57l-.69.72c-.64.65-1.3,1.3-2,1.95l-.28.27-.56.53c-.47.43-.93.87-1.41,1.3l-.77.68c-.42.37-.84.75-1.28,1.12l-.88.74-1.25,1-1,.76c-.42.34-.83.67-1.26,1l-1,.76-1.3,1-1.06.76-1.33.94-1.1.76-1.38.92-1.14.74c-.38.25-.77.5-1.17.74-.74.47-1.5.94-2.27,1.4l-1,.6c-1.09.64-2.19,1.28-3.31,1.91-1.67.93-3.37,1.82-5.09,2.69l-1.3.66c-1.69.84-3.41,1.67-5.15,2.46l-.1.05c-1.78.81-3.58,1.58-5.41,2.33l-1.38.57c-1.77.71-3.55,1.41-5.36,2.08l-.21.08c-1.87.69-3.77,1.34-5.68,2l-1.45.48c-1.22.39-2.47.77-3.71,1.15l-3.2.95c-1.13.32-2.26.62-3.39.92l-3.26.86-3.45.82c-1.1.26-2.21.52-3.32.76s-2.32.49-3.49.72-2.24.45-3.36.66c-1.94.36-3.88.71-5.84,1l-.36,0c-2,.32-3.95.6-5.93.87l-1.57.2c-2.09.27-4.19.52-6.29.73l-.25,0c-2.11.22-4.23.4-6.35.56l-.92.07q-3.12.23-6.26.37l-1.19.06c-1.26,0-2.53.08-3.79.11s-2.72.08-4.09.1h-3.37c-1.35,0-2.7,0-4,0-1.16,0-2.32,0-3.48-.08l-3.77-.13-3.49-.18c-1.26-.07-2.51-.15-3.76-.24s-2.33-.18-3.49-.28l-3.72-.34-3.48-.38c-1.23-.14-2.47-.29-3.7-.45l-3.36-.46c-1.33-.19-2.65-.4-4-.61-1.1-.17-2.19-.36-3.27-.55-1.31-.23-2.62-.47-3.92-.72s-2.66-.51-4-.79l-1.09-.23c-2-.42-3.92-.88-5.86-1.35l-1.11-.28q-3-.74-5.9-1.55l-.68-.2q-2.61-.75-5.18-1.56l-1.62-.51q-2.49-.81-4.93-1.66l-.83-.29c-1.91-.68-3.8-1.4-5.67-2.14l-.84-.33q-2.7-1.08-5.32-2.24l-.75-.33q-2.66-1.18-5.24-2.44l-.59-.3q-2.66-1.3-5.21-2.69l-.36-.2q-2.67-1.45-5.24-3c-27.87-16.78-41.75-38.38-41.82-60l.06,20.21c.06,21.61,13.94,43.22,41.81,60q2.58,1.54,5.25,3l.35.2q2.56,1.38,5.22,2.69l.59.3q2.58,1.26,5.24,2.44l.75.34q2.63,1.15,5.32,2.23l.84.33,1,.4q2.33.9,4.68,1.74l.82.29c1.63.57,3.28,1.13,4.94,1.66.54.17,1.07.35,1.61.51,1.72.54,3.44,1.06,5.19,1.56l.68.2.2.05c1.88.53,3.79,1,5.7,1.51l1.1.27q2.91.72,5.87,1.35l1.08.23,2,.43c.65.13,1.3.23,2,.36,1.3.25,2.6.5,3.92.73,1.08.19,2.17.37,3.26.54,1.32.21,2.64.42,4,.61l1.69.26,1.68.2c1.23.16,2.47.31,3.7.45l3.47.38c1.24.12,2.49.24,3.73.34l1.95.18,1.54.1q1.88.13,3.75.24c1.17.07,2.33.13,3.5.18s2.51.1,3.77.13l2.12.08h1.36c1.35,0,2.7,0,4.05,0h3.37l4.09-.09L162,584l1.42-.06,1.19-.06q3.13-.15,6.27-.37l.91-.07q3.19-.24,6.36-.55l.25,0h.1c2.07-.21,4.13-.46,6.19-.72l1.57-.2c2-.27,4-.55,5.93-.87l.36-.05c1.59-.26,3.18-.53,4.76-.81l1.07-.21c1.13-.21,2.25-.44,3.37-.67s2.33-.47,3.49-.72,2.21-.5,3.32-.76L212,577l3.27-.86c1.13-.3,2.26-.6,3.38-.92l3.21-1c.72-.22,1.46-.42,2.17-.65l1.54-.5,1.45-.48c1.91-.63,3.81-1.28,5.68-2l.21-.08c1.81-.67,3.59-1.36,5.36-2.08l1.38-.57c1.82-.75,3.63-1.52,5.41-2.33l.1,0c1.74-.79,3.45-1.62,5.15-2.46l1.3-.66c1.72-.87,3.42-1.76,5.08-2.69,1.13-.63,2.23-1.27,3.32-1.91l1-.59c.77-.47,1.52-.93,2.27-1.41.19-.12.4-.23.59-.36l.58-.38,1.14-.74,1.37-.92,1.11-.76,1.33-.94,1.06-.76,1.29-1,1-.77,1.26-1,1-.77,1.24-1,.89-.74,1.27-1.11.78-.69,1.39-1.29.58-.54.05,0,.23-.23c.67-.65,1.32-1.3,2-2,.24-.24.46-.48.69-.72.5-.52,1-1.05,1.48-1.57l.68-.76c.52-.58,1-1.17,1.52-1.76l.45-.53c.63-.76,1.24-1.53,1.82-2.29l.1-.13c.17-.22.32-.44.48-.65.33-.44.66-.88,1-1.32l.6-.87c.29-.42.58-.83.85-1.25s.4-.61.59-.92.52-.82.77-1.23.37-.62.55-.93.48-.82.71-1.23l.27-.48c.09-.17.17-.34.26-.5l.56-1.07c.18-.34.35-.69.51-1s.35-.72.51-1.08.32-.68.47-1,.31-.72.46-1.09.29-.69.43-1,.28-.73.41-1.09c.08-.2.16-.4.23-.59l.15-.46c.12-.34.24-.69.35-1s.23-.71.34-1.06.21-.7.31-1.05l.3-1.07c.09-.35.17-.7.26-1s.17-.72.25-1.08.15-.7.22-1.05c0-.19.08-.39.12-.58s0-.33.08-.49l.18-1.07Z" transform="translate(0 -15.45)"/></g><path class="cls-23" d="M40.88,538.43a8.43,8.43,0,0,1,3.83,6.65c0,2.44-1.73,3.43-3.86,2.2A8.45,8.45,0,0,1,37,540.64C37,538.19,38.76,537.21,40.88,538.43Z" transform="translate(0 -15.45)"/><path class="cls-24" d="M43.49,545.13a.86.86,0,0,0,0-.16,1,1,0,0,0,0-.17.88.88,0,0,0,0-.16c0-.06,0-.11,0-.17h0l0-.16a1.16,1.16,0,0,0,0-.18,1.36,1.36,0,0,0,0-.17c0-.06,0-.12,0-.18a.65.65,0,0,1,0-.13h0v0a1.54,1.54,0,0,0,0-.17l-.06-.17-.06-.16c0-.06,0-.11-.07-.17a.61.61,0,0,0,0-.12h0l0,0s0-.1-.07-.16l-.09-.17a2,2,0,0,0-.1-.21l-.12-.2,0,0s0,0,0-.05l-.25-.39-.21-.3h0l-.15-.19-.13-.16-.13-.15-.13-.14,0,0h0l-.11-.11-.14-.14-.14-.13-.15-.13-.08-.06,0,0,0,0-.15-.12-.14-.1-.15-.09-.14-.09,0,0-.11-.06a.61.61,0,0,0-.14-.07l-.13-.06-.13-.06-.14,0h0l-.09,0-.14,0a.35.35,0,0,0-.14,0l-.14,0h-.48l-.2,0h0l-.22.06a1.69,1.69,0,0,0-.27.13l-2.63,1.52a1.7,1.7,0,0,1,.49-.18h0a1.75,1.75,0,0,1,.56,0h0a3,3,0,0,1,.62.13h0a3.3,3.3,0,0,1,.67.31,4.7,4.7,0,0,1,.67.46h0a6.76,6.76,0,0,1,.62.58h0a7.35,7.35,0,0,1,.56.67h0a6.32,6.32,0,0,1,.49.74l0,0q.21.39.39.78h0c.12.27.22.55.31.82h0a6.58,6.58,0,0,1,.19.83h0a5.79,5.79,0,0,1,.07.82,4,4,0,0,1-.07.72v0a2.15,2.15,0,0,1-.19.59h0a2.17,2.17,0,0,1-.25.39l-.09.11a1.56,1.56,0,0,1-.37.31l2.63-1.53a1.69,1.69,0,0,0,.36-.3L43,547l.12-.15a2.42,2.42,0,0,0,.12-.23h0a.87.87,0,0,0,.07-.17l.06-.17,0-.17s0-.05,0-.08v0a.64.64,0,0,0,0-.07.78.78,0,0,0,0-.16.78.78,0,0,0,0-.16c0-.05,0-.1,0-.16v-.16h0Z" transform="translate(0 -15.45)"/><path class="cls-25" d="M37.53,541a7.37,7.37,0,0,1,3.34,5.78c0,2.12-1.51,3-3.36,1.91a7.35,7.35,0,0,1-3.34-5.78C34.18,540.82,35.68,540,37.53,541Z" transform="translate(0 -15.45)"/><g class="cls-26"><ellipse class="cls-27" cx="152.64" cy="461.19" rx="110.19" ry="63.83" transform="translate(-1.31 -15.02) rotate(-0.16)"/></g><g class="cls-2"><g class="cls-2"><g class="cls-28"><g class="cls-2"><path class="cls-6" d="M229.65,345.7l-10.8-9C183.73,315.58,125.58,315,89,335.41a77.54,77.54,0,0,0-11.61,7.84l-12.16,10a89.39,89.39,0,0,1,13.49-9.12c42.55-23.72,110.13-23,151,1.53" transform="translate(0 -15.45)"/></g></g></g><g class="cls-2"><g class="cls-29"><g class="cls-2"><path class="cls-6" d="M239.82,352.81l-12.22-10a75.21,75.21,0,0,0-8.75-6.11l10.8,9a87.1,87.1,0,0,1,10.17,7.11" transform="translate(0 -15.45)"/></g></g></g><path class="cls-30" d="M259.22,391.68c0-.24,0-.49,0-.74s.05-.58.07-.87,0-.62,0-.93,0-.46,0-.69c0-.8,0-1.59-.07-2.38v0s0-.1,0-.16q-.09-1.12-.24-2.25c0-.24-.07-.48-.11-.71s-.07-.52-.11-.79-.15-.71-.22-1.07c-.05-.2-.08-.4-.13-.6-.16-.74-.35-1.48-.56-2.22a1,1,0,0,0-.05-.16c0-.15-.1-.31-.14-.46q-.3-1-.66-1.95c-.08-.23-.17-.46-.26-.7s-.14-.39-.22-.59c-.18-.46-.39-.91-.59-1.37l-.18-.42c-.32-.68-.65-1.37-1-2l-.15-.28c-.11-.21-.23-.42-.35-.62-.32-.59-.66-1.18-1-1.76l-.42-.7c-.1-.15-.19-.31-.29-.47-.33-.5-.68-1-1-1.5l-.23-.34c-.48-.67-1-1.33-1.49-2l-.22-.27-.54-.66q-.67-.81-1.38-1.62l-.68-.75c-.17-.19-.33-.38-.51-.57s-.64-.65-1-1l-.71-.72c-.7-.69-1.42-1.38-2.18-2.06a.8.8,0,0,0-.13-.13l0,0c-.86-.77-1.75-1.54-2.68-2.29l-12.22-10c.8.66,1.57,1.32,2.32,2l.11.1c.65.59,1.28,1.18,1.88,1.78.21.2.4.41.61.62.43.44.85.88,1.26,1.33l.59.65c.4.46.8.92,1.18,1.39l.47.57c.51.64,1,1.29,1.47,1.94l.2.3c.4.56.77,1.13,1.13,1.7.13.19.25.39.37.59.31.5.6,1,.88,1.52.1.17.2.35.29.53.35.66.69,1.33,1,2l.16.37c.25.56.48,1.12.7,1.69.08.2.15.4.22.6.21.56.39,1.11.56,1.67,0,.14.09.27.13.4.2.68.37,1.36.53,2.05,0,.17.07.34.1.51.11.54.21,1.07.29,1.6l.09.61c.09.65.16,1.29.21,1.94,0,.05,0,.09,0,.14.05.69.06,1.39.06,2.08,0,.2,0,.4,0,.6,0,.51,0,1-.07,1.54,0,.22,0,.43,0,.64-.06.64-.14,1.29-.23,1.93l0,.16c-.11.7-.25,1.4-.4,2.1,0,.21-.11.41-.16.62-.12.5-.25,1-.4,1.48l-.24.77c-.15.47-.32.94-.49,1.41-.09.24-.17.48-.27.71-.2.51-.42,1-.65,1.52-.09.21-.17.41-.27.62-.33.7-.69,1.4-1.07,2.1-.09.17-.19.33-.29.49-.31.55-.63,1.1-1,1.64-.16.26-.34.52-.51.77-.3.45-.59.89-.9,1.33s-.49.65-.73,1-.58.77-.89,1.15-.53.65-.81,1l-1,1.13c-.27.3-.55.59-.83.89s-.72.76-1.09,1.13l-.92.89c-.41.39-.81.78-1.23,1.16l-.7.62c-.5.44-1,.87-1.54,1.3-.21.18-.42.36-.64.53-.69.56-1.41,1.11-2.15,1.66l-.45.33c-.5.36-1,.73-1.56,1.09s-1,.69-1.51,1-1.09.71-1.64,1.05l-.87.54c-.89.54-1.79,1.07-2.72,1.59s-2.19,1.18-3.3,1.75l-.29.15c-1.12.56-2.27,1.11-3.43,1.64l-.13.06c-1.18.54-2.38,1.05-3.59,1.55l-.24.1c-1.15.47-2.32.92-3.5,1.35l-.35.13c-1.16.43-2.33.83-3.52,1.23l-.35.11c-1.18.39-2.38.76-3.58,1.11l-.49.14c-1.26.37-2.53.72-3.8,1s-2.43.6-3.66.88c-1.58.36-3.17.7-4.77,1l-.45.08c-1.26.23-2.51.46-3.78.66l-.23,0c-1.21.2-2.44.37-3.67.54l-.83.11c-1.26.16-2.53.31-3.81.44l-.25,0c-1.38.14-2.78.26-4.17.36l-.23,0c-1.39.1-2.79.18-4.19.24h-.19c-1.41.07-2.82.11-4.24.14H155c-1.44,0-2.88,0-4.32,0h0c-1.41,0-2.82-.05-4.22-.1h-.34q-2.06-.08-4.11-.21h-.17c-1.44-.1-2.88-.21-4.32-.35h0c-1.29-.12-2.59-.26-3.87-.42l-.74-.08q-1.84-.24-3.66-.51L128,425c-.91-.14-1.83-.29-2.73-.46l-1.34-.24c-.77-.14-1.54-.3-2.31-.46l-2-.41-2-.47-2.19-.53-1.84-.49q-1.3-.35-2.58-.72l-1.71-.51-3-1-1.43-.49c-1.5-.52-3-1.07-4.45-1.65l-.23-.1c-1.42-.57-2.82-1.17-4.19-1.79-.87-.4-1.74-.8-2.59-1.21l-.32-.15c-1-.48-1.93-1-2.88-1.49q-2-1.06-3.9-2.2c-.73-.44-1.42-.89-2.11-1.33l-.84-.53c-.86-.57-1.69-1.15-2.51-1.73l-.56-.42c-.64-.48-1.28-.95-1.88-1.43-.3-.23-.57-.47-.86-.71-.48-.39-1-.78-1.43-1.18-.79-.68-1.54-1.37-2.27-2.06l-.29-.3c-.62-.6-1.21-1.2-1.79-1.81s-1.06-1.16-1.56-1.75l-.34-.41c-.51-.6-1-1.21-1.46-1.82l0,0c-.45-.59-.87-1.19-1.28-1.8l-.44-.66c-.3-.46-.58-.91-.85-1.37-.13-.21-.26-.41-.37-.62-.35-.6-.68-1.21-1-1.81,0-.06-.06-.11-.08-.17-.33-.64-.62-1.3-.9-1.95s-.47-1.15-.69-1.73c-.07-.2-.16-.41-.23-.61-.27-.78-.51-1.57-.73-2.36l-.12-.54c-.15-.61-.3-1.22-.41-1.83-.06-.29-.09-.58-.14-.87-.08-.51-.16-1-.21-1.52s-.07-.75-.1-1.12-.06-.72-.07-1.08,0-.77,0-1.15,0-.72,0-1.07,0-.78.07-1.16,0-.71.08-1.07.1-.77.16-1.16.09-.71.15-1.06.16-.77.24-1.16.15-.7.23-1.06.22-.77.33-1.15.19-.7.31-1.05.26-.77.4-1.15.25-.69.39-1,.32-.76.49-1.15.29-.68.46-1,.38-.77.58-1.15.34-.67.52-1,.45-.77.68-1.15l.59-1c.25-.38.52-.77.78-1.15s.42-.63.65-.95.58-.77.88-1.16.46-.61.71-.91.66-.78,1-1.17.49-.58.75-.87.75-.8,1.14-1.2.5-.54.77-.8c.44-.45.91-.89,1.38-1.32.23-.22.44-.44.68-.65q1.06-1,2.22-1.92l-12.16,10c-.9.74-1.76,1.48-2.59,2.23l-.8.77c-.54.5-1.08,1-1.59,1.52-.31.3-.6.62-.89.93-.45.46-.9.92-1.33,1.39s-.58.69-.88,1-.78.89-1.15,1.34l-.82,1.08c-.35.44-.7.88-1,1.33s-.51.74-.76,1.11-.61.89-.9,1.33-.46.76-.68,1.14-.54.89-.79,1.34-.41.78-.61,1.16-.47.89-.68,1.34-.36.79-.53,1.19-.4.89-.58,1.33-.29.81-.44,1.21-.33.89-.47,1.34-.25.81-.36,1.22-.27.89-.38,1.34-.18.82-.27,1.23-.2.89-.28,1.34-.12.83-.18,1.24-.13.89-.18,1.34-.06.83-.09,1.24-.07.9-.08,1.35,0,.83,0,1.25,0,.89,0,1.34,0,.83.08,1.25,0,.64.06,1,0,.36.07.54,0,.27,0,.41c.09.75.21,1.51.35,2.26,0,.12,0,.24.08.36.16.78.33,1.56.54,2.33a1.09,1.09,0,0,0,.05.17c.21.77.45,1.54.71,2.31a1.72,1.72,0,0,0,.07.21c.26.76.56,1.52.87,2.28l.15.37c.05.11.09.22.14.32.3.69.62,1.37,1,2.05l.1.18c.35.71.74,1.42,1.14,2.12l.43.72q.48.8,1,1.59l.52.77c.12.18.23.36.35.53.36.52.74,1.05,1.13,1.56l0,0c.54.72,1.11,1.42,1.7,2.13l.4.47c.55.64,1.11,1.28,1.7,1.91l.16.17.24.25c.69.73,1.4,1.45,2.14,2.16l.06.06c.75.71,1.52,1.41,2.32,2.11l.21.19.13.11c.51.44,1.05.87,1.58,1.3.33.27.65.55,1,.81.72.57,1.47,1.13,2.22,1.68l.63.47,0,0c.94.67,1.91,1.34,2.9,2,.31.21.64.41,1,.62.57.37,1.13.74,1.72,1.1l.73.44c1.14.69,2.3,1.35,3.48,2l.79.43.7.38c1,.51,1.93,1,2.92,1.49l.36.17,2.42,1.15,1,.44.94.42c1.24.54,2.49,1.07,3.76,1.58l.06,0,.17.07c1.25.5,2.52,1,3.8,1.43l.9.32.75.27c.39.14.8.26,1.19.39,1.17.39,2.34.77,3.53,1.14l.9.29c.35.11.72.2,1.07.3,1,.29,2,.57,3,.84.41.11.81.24,1.22.34l.91.23,2.55.61c.49.12,1,.25,1.47.36l.9.19c.76.17,1.53.33,2.29.48.52.11,1,.23,1.55.33l1.14.2,1.55.29,1.22.22,2,.31,1.39.22.58.09,3.09.43.59.07.85.1,1.67.2,2.83.29h0l2.44.21,2.45.18h.32l2.1.12,2,.1.69,0h.38l.93,0c.67,0,1.34,0,2,.06l2,0H154l1.44,0h.34l1.77,0,1.78-.06,1.2-.05h.56l1.76-.09,1.76-.11,1-.07.28,0,.47,0,2-.16,2.07-.2.31,0,.28,0,1.48-.15,2.06-.24.89-.12,1-.13,1.28-.17c1-.14,2-.29,3-.45l.26,0H181c1.38-.22,2.75-.47,4.12-.73l.71-.12q2.41-.47,4.8-1l.11,0,.56-.13c1.45-.33,2.9-.68,4.33-1l.09,0c1.28-.33,2.55-.68,3.81-1l.52-.15.57-.17,1.37-.4,2.44-.77.35-.12.4-.13,1.47-.49,1.94-.68.7-.26.4-.14.81-.3,1.9-.73,1.35-.55.28-.11.27-.11,1.9-.8,1.88-.83.12-.06.16-.08,1.57-.72,2.2-1.07.21-.11.34-.17c.54-.28,1.08-.55,1.61-.84.72-.37,1.43-.76,2.13-1.15l.09-.05c.92-.51,1.82-1,2.7-1.55l.47-.3c.34-.2.67-.41,1-.62l1.22-.75.69-.47c.6-.39,1.18-.79,1.76-1.19.3-.2.62-.4.91-.61l.9-.66.53-.39c.75-.55,1.49-1.11,2.2-1.67l.29-.25c.26-.2.5-.41.75-.62.61-.5,1.21-1,1.78-1.51l.82-.72.61-.55c.29-.26.54-.53.82-.79l1.07-1c.43-.44.85-.87,1.26-1.31l1-1c.1-.12.21-.23.31-.34.29-.32.55-.65.82-1s.64-.75.95-1.13.69-.89,1-1.34l.84-1.12c.06-.09.13-.17.19-.25.3-.43.57-.86.86-1.29s.41-.6.6-.9c.39-.63.76-1.27,1.12-1.9.11-.2.24-.39.34-.58l0,0c.43-.79.84-1.59,1.21-2.39.12-.24.21-.48.32-.72.21-.47.43-.94.62-1.41a3.62,3.62,0,0,0,.13-.35l.32-.84c.2-.54.39-1.09.57-1.63.09-.3.19-.6.27-.9s.14-.42.2-.63c.1-.36.18-.72.27-1.08s.13-.49.18-.73c.18-.8.34-1.59.47-2.4v0a1.52,1.52,0,0,0,0-.21C259.06,393.17,259.15,392.43,259.22,391.68Z" transform="translate(0 -15.45)"/><ellipse class="cls-31" cx="152.57" cy="373.68" rx="91.85" ry="53.2" transform="matrix(1, 0, 0, 1, -1.06, -15.02)"/><ellipse class="cls-32" cx="152.57" cy="276.78" rx="91.85" ry="53.2" transform="matrix(1, 0, 0, 1, -0.78, -15.02)"/><ellipse class="cls-33" cx="152.57" cy="215.06" rx="91.85" ry="53.2" transform="matrix(1, 0, 0, 1, -0.61, -15.02)"/><ellipse class="cls-34" cx="152.57" cy="135.83" rx="61.03" ry="35.35" transform="matrix(1, 0, 0, 1, -0.38, -15.02)"/><path class="cls-35" d="M259.23,459.93c0-.25.07-.5.1-.76s.05-.5.07-.76.05-.51.07-.76,0-.51,0-.77l0-.76c0-.13,0-.27,0-.41V455l-.19-66.66c0,.37,0,.74,0,1.11s0,.51,0,.76,0,.51,0,.77l-.06.76c0,.26-.05.51-.08.76s-.06.51-.1.76-.07.51-.11.77l-.12.76-.15.76-.15.75-.18.76c-.06.25-.12.5-.19.74s-.13.51-.21.77l-.21.74c-.08.25-.16.5-.25.76s-.16.49-.25.74-.17.49-.27.74-.19.52-.29.78l-.3.73-.33.77-.33.73c-.12.26-.24.51-.37.77l-.36.72-.4.77c-.12.23-.25.46-.38.69s-.33.58-.5.87l-.39.67c-.18.29-.36.58-.55.87s-.27.44-.42.66-.4.59-.6.88l-.43.63q-.33.47-.69.93l-.41.55c-.42.55-.85,1.09-1.3,1.64l-.32.37c-.35.42-.71.84-1.08,1.25l-.48.54c-.34.38-.69.75-1.05,1.12l-.49.51c-.45.46-.92.93-1.39,1.38l-.19.19c-.82.78-1.67,1.54-2.55,2.3l-.27.24q-1.28,1.1-2.64,2.16l-.4.31c-.89.69-1.82,1.38-2.78,2.06l-.47.33c-1,.67-1.95,1.33-3,2l-.64.41-1.61,1-.71.43c-.77.45-1.55.91-2.35,1.35-1.18.66-2.39,1.29-3.61,1.92l-.93.46c-1.2.6-2.42,1.19-3.66,1.76l-.07,0c-1.26.57-2.55,1.12-3.84,1.66l-1,.4c-1.26.51-2.53,1-3.81,1.48l-.15,0c-1.33.49-2.68,1-4,1.41l-1,.33c-.87.29-1.76.55-2.64.82l-2.28.68-2.4.65c-.78.21-1.55.42-2.33.61s-1.63.4-2.44.59-1.57.37-2.36.54l-2.49.51-2.39.47c-1.37.26-2.75.51-4.14.73l-.26,0c-1.4.22-2.8.42-4.22.61l-1.11.15c-1.48.19-3,.36-4.45.52-1.83.18-3.66.34-5.5.47l-1.7.1c-1.28.08-2.55.15-3.83.2l-2.33.08-2.91.06h-2.39c-1,0-1.92,0-2.88,0s-1.65,0-2.47-.06-1.79,0-2.68-.09l-2.49-.13c-.89-.05-1.78-.1-2.66-.17l-2.49-.2c-.88-.07-1.77-.15-2.65-.24l-2.46-.27-2.63-.32-2.4-.33c-.94-.13-1.87-.28-2.81-.43-.78-.12-1.55-.25-2.33-.39-.93-.16-1.86-.34-2.78-.51l-2.22-.44c-1.16-.24-2.32-.5-3.47-.77l-1.83-.42c-1.42-.35-2.83-.72-4.24-1.1l-1-.26-.49-.14q-1.86-.54-3.69-1.11l-1.14-.36c-1.18-.38-2.35-.78-3.51-1.18l-.59-.21c-1.28-.45-2.54-.94-3.79-1.43-.86-.34-1.71-.7-2.56-1-.63-.27-1.27-.52-1.9-.8-.88-.38-1.74-.79-2.61-1.2-.57-.26-1.15-.52-1.71-.79-1-.47-1.87-.95-2.79-1.44-.46-.24-.93-.46-1.39-.71-1.36-.74-2.71-1.51-4-2.3-9.29-5.58-16.39-11.93-21.32-18.67-.65-.9-1.27-1.81-1.85-2.72s-1.12-1.84-1.63-2.76-1-1.85-1.39-2.79c-.21-.47-.42-.94-.61-1.4-.39-.94-.74-1.89-1.05-2.83s-.58-1.9-.81-2.85A36.71,36.71,0,0,1,45.85,389h0L46,455.63c0,15.36,9.91,30.72,29.72,42.65q2,1.19,4,2.29c.45.25.93.47,1.39.72.92.48,1.84,1,2.79,1.43.56.27,1.14.53,1.71.79.87.41,1.73.82,2.61,1.2.63.28,1.26.53,1.9.8.85.36,1.7.71,2.56,1.05l.47.2c1.1.42,2.2.83,3.32,1.23l.6.21c1.15.41,2.32.8,3.49,1.18l1.16.36c1.21.39,2.44.75,3.67,1.1l.5.15.14,0,.83.22c1.41.38,2.82.75,4.25,1.1l1.83.42c1.15.27,2.31.53,3.47.77.28.05.55.12.83.18l1.39.26q1.38.27,2.79.51c.77.14,1.54.27,2.32.39.93.15,1.87.3,2.81.43l1.2.19,1.2.14,2.63.32,2.46.27c.88.09,1.77.17,2.65.24.47,0,.93.1,1.39.13l1.09.07c.89.07,1.78.12,2.67.17l2.49.13c.89,0,1.78.07,2.68.09.5,0,1,.05,1.51.06h1c1,0,1.92,0,2.88,0h2.39l2.92-.06,1.67,0,.64,0c1.28,0,2.56-.12,3.84-.2l1.7-.1c1.84-.13,3.67-.29,5.5-.47h0c1.47-.15,2.94-.32,4.4-.51l1.11-.15c1.41-.19,2.82-.39,4.22-.61l.26,0c1.13-.18,2.26-.37,3.38-.58.26,0,.51-.1.76-.15l2.39-.47,2.49-.51c.79-.17,1.57-.36,2.35-.54s1.64-.38,2.45-.59,1.55-.4,2.32-.6l2.41-.66,2.28-.68,1.55-.46,1.09-.35,1-.34c1.36-.45,2.7-.92,4-1.4l.16-.06c1.28-.48,2.55-1,3.8-1.48l1-.4c1.29-.54,2.58-1.09,3.84-1.66l.07,0c1.24-.57,2.46-1.16,3.66-1.76l.93-.46c1.22-.62,2.43-1.26,3.61-1.92.8-.44,1.58-.9,2.36-1.36l.7-.42,1.61-1,.42-.26.22-.15c1-.65,2-1.31,3-2l.47-.33c1-.68,1.89-1.37,2.79-2.06l.39-.31q1.37-1.06,2.64-2.16l.27-.24c.88-.75,1.73-1.52,2.54-2.3l0,0,.17-.17c.48-.46.94-.92,1.39-1.38l.49-.51c.36-.37.71-.74,1.05-1.12l.48-.53q.56-.63,1.08-1.26l.32-.37c.45-.54.88-1.09,1.3-1.64l.07-.08.34-.47c.23-.31.47-.62.69-.93s.28-.42.43-.62.41-.6.6-.9l.42-.64c.18-.3.37-.59.55-.88l.39-.66.5-.88c.06-.11.13-.22.19-.34l.19-.35.4-.77.36-.72c.13-.26.25-.51.37-.77l.33-.73.33-.77.3-.74c.1-.25.2-.51.29-.77l.16-.42c0-.11.07-.22.11-.32.09-.25.17-.5.25-.74s.17-.51.24-.76.15-.49.22-.74.15-.51.21-.77.13-.49.19-.74l.18-.76.15-.75.09-.41c0-.12,0-.24.05-.35s.09-.51.13-.76S259.2,460.19,259.23,459.93Z" transform="translate(0 -15.45)"/></g><path class="cls-36" d="M212,336.8c32.53,18.78,32.7,49.23.38,68s-84.88,18.78-117.41,0-32.7-49.24-.39-68S179.51,318,212,336.8Z" transform="translate(0 -15.45)"/><g class="cls-37"><g class="cls-2"><path class="cls-38" d="M224.16,368.23c0,.36,0,.71-.08,1.07s-.07.62-.11.93-.1.7-.17,1-.12.63-.19.94-.16.69-.26,1-.17.62-.27.93-.22.69-.34,1-.22.6-.34.91-.29.71-.45,1.07-.27.59-.42.89-.36.71-.55,1.06-.31.57-.47.86-.51.83-.78,1.25c-.16.25-.32.51-.49.76-.32.46-.65.91-1,1.36-.16.22-.31.43-.48.64l-.24.3c-.37.45-.75.9-1.15,1.35L216,386c-.47.52-1,1-1.47,1.54l-.29.27c-.39.38-.79.75-1.21,1.13s-.67.59-1,.88l-1,.82c-.36.29-.73.58-1.11.86s-.69.53-1.05.79l-1.19.84c-.37.26-.75.51-1.13.76s-.85.55-1.28.82-1.08.67-1.64,1c-1.06.61-2.15,1.19-3.25,1.76l-1,.48c-.86.42-1.74.84-2.62,1.23l-.9.41c-1.15.5-2.33,1-3.52,1.43l-.64.23c-1,.38-2,.74-3.07,1.08l-1.28.41-1.72.53-1.46.42-1.76.47-1.48.37c-.6.15-1.21.28-1.81.42l-1.49.33-1.86.36-1.42.27c-1.32.23-2.65.45-4,.63l-.58.08q-1.76.23-3.51.42l-1.35.13-2.28.19-1.43.1-2.37.12-1.34,0-2.07,0-1.44,0-2.21,0-1.3,0-2-.08c-.47,0-.94,0-1.41-.06q-1.09-.06-2.19-.15l-1.23-.08c-.88-.07-1.75-.16-2.62-.26l-.78-.07c-1.13-.13-2.26-.27-3.38-.43l-.58-.09c-.95-.14-1.89-.28-2.83-.45l-1.2-.22-2.18-.41-1.13-.25q-1.2-.25-2.37-.54c-.44-.1-.88-.22-1.32-.33l-2.14-.56-1.2-.35c-1.13-.33-2.24-.67-3.34-1l-.59-.19c-1.27-.43-2.51-.88-3.74-1.36l-1.48-.6c-.39-.16-.79-.32-1.17-.49-.56-.23-1.1-.48-1.65-.73l-1.07-.49c-.59-.28-1.18-.58-1.76-.87l-.87-.44c-.86-.45-1.71-.92-2.55-1.4-13.93-8-20.89-18.6-20.86-29.14l-.07,25.64c0,10.54,6.93,21.09,20.86,29.14.83.48,1.68.94,2.55,1.39l.87.44c.58.3,1.16.59,1.76.88l1.07.49,1.64.73,1.17.49,1.13.46.36.13c1.23.48,2.47.94,3.74,1.37l.58.19c1.1.36,2.22.71,3.34,1l.56.17.65.17c.71.2,1.43.39,2.14.57l1.31.33c.79.19,1.59.36,2.38.54l.89.19.24.05c.72.15,1.46.28,2.19.42l1.18.22c.95.16,1.91.31,2.87.45l.52.08h0c1.12.16,2.24.3,3.37.42l.7.07c.9.1,1.8.19,2.71.26h.06l1.14.08,2.22.15,1.4.06,2,.08h1.3l2.22,0,1.44,0,2.07,0h.37l1,0c.8,0,1.59-.07,2.38-.12l1.43-.1c.76-.05,1.52-.12,2.28-.19l.79-.06.55-.07c1.18-.12,2.36-.26,3.52-.42l.57-.07c1.35-.19,2.68-.4,4-.64l.37-.06,1-.2,1.85-.37,1.5-.33,1.8-.41,1.48-.38c.59-.15,1.18-.3,1.77-.47s1-.27,1.46-.42l1.72-.52.75-.23.53-.18c1-.35,2.06-.7,3.06-1.08l.64-.23c1.2-.46,2.37-.94,3.53-1.44l.89-.4c.89-.4,1.76-.81,2.62-1.24l1-.47c1.1-.57,2.19-1.15,3.25-1.77l.86-.51.78-.49,1.28-.81,1.12-.76,1.2-.84c.36-.26.7-.53,1.05-.79l1.11-.87,1-.81c.35-.29.69-.59,1-.89l.42-.36.79-.76.28-.28c.52-.5,1-1,1.48-1.53l.33-.37c.4-.44.78-.89,1.15-1.35l.24-.29a1.34,1.34,0,0,0,.11-.14c.13-.16.24-.33.37-.5.34-.45.68-.91,1-1.37.17-.25.33-.5.49-.75.27-.42.53-.84.77-1.26.07-.11.15-.22.22-.34l.26-.51.55-1.06c.14-.3.28-.6.41-.9s.31-.71.46-1.07c.06-.16.14-.31.2-.48s.09-.29.14-.43c.12-.34.23-.68.34-1s.19-.62.27-.94.18-.68.25-1,.1-.38.14-.56l.06-.38c.06-.35.12-.7.16-1.06s.09-.62.12-.93.06-.71.08-1.06,0-.42,0-.63,0-.41,0-.62l.07-25.63C224.21,367.4,224.18,367.82,224.16,368.23Z" transform="translate(0 -15.45)"/><path class="cls-39" d="M203.36,337.85c27.68,16,27.83,41.89.32,57.88s-72.24,16-99.92,0-27.83-41.89-.32-57.88S175.68,321.87,203.36,337.85Z" transform="translate(0 -15.45)"/></g></g><path class="cls-40" d="M227.73,65.65h0c-.06-11-7.36-22-21.89-30.38-29.06-16.78-76-16.78-104.9,0C86.5,43.66,79.32,54.66,79.38,65.65h0V365h0c.1,11,7.4,21.92,21.89,30.29,29.06,16.78,76,16.78,104.9,0,14.39-8.37,21.57-19.33,21.55-30.29h0Z" transform="translate(0 -15.45)"/><path class="cls-41" d="M209.42,47.81h0c0-8.29-5.54-16.57-16.49-22.88-21.88-12.64-57.25-12.64-79,0-10.87,6.32-16.28,14.6-16.23,22.88h0V360.43h0c.08,8.26,5.58,16.51,16.49,22.81,21.88,12.63,57.25,12.63,79,0,10.85-6.3,16.25-14.56,16.24-22.81h0Z" transform="translate(0 -15.45)"/><path class="cls-42" d="M242.92,435.29c1.54-.89,2.79-.18,2.79,1.59a6.06,6.06,0,0,1-2.77,4.8c-1.54.89-2.79.18-2.79-1.59A6.09,6.09,0,0,1,242.92,435.29Z" transform="translate(0 -15.45)"/><path class="cls-43" d="M243,445.07c1.54-.89,2.78-.18,2.79,1.59a6.15,6.15,0,0,1-2.77,4.8c-1.54.89-2.79.17-2.79-1.59A6.06,6.06,0,0,1,243,445.07Z" transform="translate(0 -15.45)"/><path class="cls-44" d="M243,454.84c1.53-.89,2.78-.17,2.79,1.59a6.12,6.12,0,0,1-2.77,4.8c-1.54.89-2.79.18-2.79-1.59A6.08,6.08,0,0,1,243,454.84Z" transform="translate(0 -15.45)"/><path class="cls-45" d="M61.71,445.07c-1.53-.89-2.78-.18-2.79,1.59a6.13,6.13,0,0,0,2.78,4.8c1.53.89,2.78.17,2.79-1.59A6.1,6.1,0,0,0,61.71,445.07Z" transform="translate(0 -15.45)"/><path class="cls-46" d="M61.68,446.56c-.81-.47-1.48-.09-1.48.85A3.26,3.26,0,0,0,61.67,450c.82.47,1.48.1,1.49-.84A3.26,3.26,0,0,0,61.68,446.56Z" transform="translate(0 -15.45)"/><polyline class="cls-47" points="38.97 500.41 62.02 485.89 62.02 445.34"/><path class="cls-48" d="M61.69,454.84c-1.54-.89-2.79-.17-2.79,1.59a6.06,6.06,0,0,0,2.77,4.8c1.53.89,2.78.18,2.79-1.59A6.13,6.13,0,0,0,61.69,454.84Z" transform="translate(0 -15.45)"/><path class="cls-49" d="M61.68,456.34c-.81-.47-1.48-.09-1.48.84a3.29,3.29,0,0,0,1.47,2.56c.82.47,1.48.09,1.49-.85A3.24,3.24,0,0,0,61.68,456.34Z" transform="translate(0 -15.45)"/><path class="cls-50" d="M165.06,236.34c-13.21.56-17.31.57-30.74-.58a4.14,4.14,0,0,0-.61,0,2.41,2.41,0,0,0-2.4,2.21c-.1,35.32-.1,35.32-.09,35.51a3.22,3.22,0,0,0,3,2.61c33.46,2.7,33.66-.47,33.77-2.18.1-35.31.1-35.31.08-35.5-.06-.83-.94-2.13-3-2.06" transform="translate(0 -15.45)"/><path class="cls-51" d="M165.06,73.71c-13.21.56-17.31.57-30.74-.58-.18,0-.43,0-.61,0a2.42,2.42,0,0,0-2.4,2.22c-.1,35.32-.1,35.32-.09,35.51a3.22,3.22,0,0,0,3,2.61c33.46,2.69,33.66-.48,33.77-2.18.1-35.31.1-35.31.08-35.5-.06-.84-.94-2.13-3-2.06" transform="translate(0 -15.45)"/><path class="cls-52" d="M82,147.73c-9.54-5.38-12.65-7.26-20.65-14.54-.53-.48-1.44-1-1.57,1-.1,37.57-.1,37.57,1.46,39.36.22.2,22.43,19.56,23.1,13.23.1-37.63.1-37.63-2.34-39" transform="translate(0 -15.45)"/><path class="cls-53" d="M254.46,132.17c-4.64,7.34-6.36,9.55-14,16.29a6,6,0,0,0-1.87,4c-.1,37.56-.1,37.56,1.76,36.29,9.78-8.84,14.79-15.75,14.88-20.54.1-35.91.1-35.91-.09-36.47l-.34-.07a3.17,3.17,0,0,0-.36.46" transform="translate(0 -15.45)"/><path class="cls-54" d="M237.54,337.63c-8.83,6.19-12,8.14-23.42,13.11a4.36,4.36,0,0,0-2.62,3.57c0,11.75-.9,23.49-.1,35.24.06.85.48,2.17,2.61,1.51,25.08-11.18,25.24-15.35,25.31-17.13.1-37.62.1-37.62-1.78-36.3" transform="translate(0 -15.45)"/><g class="cls-2"><g class="cls-2"><g class="cls-55"><path class="cls-56" d="M119.83,334.72l-.93-.18c-10-2.18-10.8-2.36-17.23-4.35-22-7.63-33.82-14.84-45.23-27.56-.07-.08-.25-.1-.35-.15a1.84,1.84,0,0,0-.15.49c-.12,44.13-.12,44.13.38,44.93,24.57,26.79,64.1,34.49,64.48,31.34l0-10.63,0-7.15v-3.07c.07-23.46.07-23.46-1-23.67" transform="translate(0 -15.45)"/><path class="cls-57" d="M256.57,200.44c-8.26,17.38-22.18,28.51-48,38.44-.16,59.21-.16,59.21,0,59.68a1.73,1.73,0,0,0,.83.13c44.51-17.65,47-38.83,47-39q.09-29.61.17-59.21" transform="translate(0 -15.45)"/><path class="cls-58" d="M256.33,193.63c-5.9,11.9-16.07,25.65-46.78,37.44a1.58,1.58,0,0,0-1,1.31l0,6.5c26.06-10.08,40-21.22,48-38.44,0-6.72,0-6.72-.07-7a.77.77,0,0,0-.17.19" transform="translate(0 -15.45)"/><path class="cls-59" d="M212.75,231.86c-1.87.82-2.35,3-1.15,3.5,1.38.57,3.36-1.51,2.83-3-.22-.62-.9-.84-1.68-.53" transform="translate(0 -15.45)"/><path class="cls-60" d="M217.7,229.79c-1.81.89-2.27,3.08-1.11,3.54,1.37.54,3.38-1.86,2.69-3.2-.27-.52-.89-.65-1.58-.34" transform="translate(0 -15.45)"/><path class="cls-61" d="M222.49,227.53c-1.75,1-2.2,3.17-1.07,3.59,1.32.48,3.25-2,2.58-3.31-.25-.5-.85-.61-1.51-.28" transform="translate(0 -15.45)"/><path class="cls-62" d="M239.78,230.65c-6.73,8.33-12,14.92-26.45,26.2,9.66-1.07,16.11-1.92,26.39-5.55,6-8.22,10.74-14.72,15.37-27.92a39,39,0,0,1-13.85,6.83,5.61,5.61,0,0,0-1.46.44" transform="translate(0 -15.45)"/><path class="cls-63" d="M250.2,235.89c-5,8.92-5.27,9.46-10.66,16.59a101.51,101.51,0,0,1-14.49,3.7c0,2.44,0,5.69,0,8.13,7.25-3.53,11.88-4.12,14.49-4,9.54-14.87,9.54-14.87,10.66-16.23l0-8.19" transform="translate(0 -15.45)"/><path class="cls-62" d="M252.09,231.85l-.66,1.43,0,11.89c-.54,2.8-.54,2.8-.15,3.1a14.55,14.55,0,0,0-.3,1.73l0,11.76,1.51-2.19c0-12.37,0-12.37-.24-12.55.33-2.19.42-2.78-.13-2.73v0l0-12.42" transform="translate(0 -15.45)"/><path class="cls-57" d="M90.17,214.08C69.44,204.53,54.25,194,47.49,173.6c-.17,59.89-.17,59.89,0,60.82,10.4,29.12,41.78,39.44,42.08,39.48a1.27,1.27,0,0,0,.42-.61q.09-29.61.17-59.21" transform="translate(0 -15.45)"/><path class="cls-63" d="M61.61,222.78l.12.11v.43l-.24-.23v-.43l.12.12m1,1.11-.15-.6.12,0,.15.59-.12,0m-2.15-2.23-.1-.21.17-.25.11.21-.18.25m3.06,1.93-.26-.51.07-.09.27.51-.08.09m-3.83-4.07,0-.22.25,0a1.74,1.74,0,0,0,0,.22l-.25,0m-.25-1.86v-.38c.07.08.21.16.25.27s0,0,0,.08v.29l-.25-.26m4.26,4.08a2.28,2.28,0,0,0,0-.37l.3.26V222l-.3-.27m-.17-1.59c0-.07,0-.15-.05-.22l.23,0,.06.23-.24,0M60,216.39l-.18-.41.06-.08.18.4-.06.09m.61,4.11,0-.06,1-.75v-2.9l.17.17v2.6l1.16,1.07V221l-1.33-1.24-1,.73m2.25-2.27a1.18,1.18,0,0,0-.11-.19l.13-.19.11.2-.13.18M60.66,216l-.1-.4.11,0,.1.39h-.11m.85.43V216l.24.23v.44l-.24-.24m.07-.67c-1.87-1.65-2.42.2-2.34,1.85.21,3.84,3,7.7,4.41,6s-.16-6-2.07-7.83" transform="translate(0 -15.45)"/><path class="cls-62" d="M65.76,244.13v-3.89l3,2.32v3.89l-3-2.32m4.31,3.28v-3.89l3.3,2.23v3.89l-3.3-2.23m5,3.29v-3.89l3.6,2.12v3.89l-3.6-2.12m-24.56-25v-3.88L52,224.5v3.88l-1.47-2.66m2.15,3.76V225.6l1.78,2.61v3.88l-1.78-2.61m2.72,3.87v-3.88L57.46,232v3.88h0l-2.09-2.55m-4.81-13v-3.88L52,219.07V223l-1.48-2.65m2.17,3.76v-3.88l1.78,2.61v3.88l-1.78-2.61m2.72,3.87v-3.88l2.1,2.54v3.89l-2.1-2.55m10.44,10.54v-3.89l3,2.32v3.89l-3-2.32m4.32,3.27v-3.88l3.3,2.23V244l-3.3-2.23m5,3.29v-3.88l3.62,2.12v3.88L75.18,245M61.56,224.12c-3-3.08-3.64-9.73-1.57-9.93,2.73-.25,6,7.87,4.11,10.22-.61.75-1.56.65-2.54-.29m0-14.59c-1.59.86-3.71,2-5.27,2.9l0,7.46c-4-5.55-4.57-6.26-6.74-10.85l-.06,21.31A53.79,53.79,0,0,0,59.59,245l0-9.17,3.83,3.67,0,9.17A96.66,96.66,0,0,0,81.53,261c0-6.4,0-14.92.06-21.32-8-4.53-8.78-5-13.7-8.68l0-7.45c-2-4.19-4.56-9.77-6.36-14" transform="translate(0 -15.45)"/><path class="cls-63" d="M61.67,205.37c-5,2.71-5.05,2.76-7,4l.73,2.55c1.86-1.09,4.36-2.51,6.26-3.53,2.15,5,5.1,11.73,7.46,16.68l1.22-.66c-2.73-5.65-6.2-13.26-8.66-19" transform="translate(0 -15.45)"/><path class="cls-58" d="M89.23,206.21C71.7,198,54.54,187.46,47.69,166.8c-.07.08-.18.19-.18.3l0,6.5c6,17.85,18,29.2,42.68,40.48,0-7.41,0-7.41-.94-7.87" transform="translate(0 -15.45)"/><path class="cls-59" d="M48.36,170.91c-.06-.15-.2-.53-.31-.29-.33.75.17,4.31.57,4.09s.15-2.62-.26-3.8" transform="translate(0 -15.45)"/><path class="cls-60" d="M49.69,174.23c-.08-.16-.29-.59-.43-.21-.34.93.28,4.22.76,4s.18-2.67-.33-3.8" transform="translate(0 -15.45)"/><path class="cls-61" d="M51.34,177.51c-.36-.59-.51-.33-.58,0-.27,1.27.53,4.19,1,3.77s.13-2.7-.45-3.76" transform="translate(0 -15.45)"/><path class="cls-57" d="M210.75,133.12c-22,7.48-43.77,11.79-78.38,8.5-.17,60-.17,60,.95,60.29,53.37,4.62,77.23-9.42,77.26-9.58q.09-29.6.17-59.21" transform="translate(0 -15.45)"/><path class="cls-63" d="M165.52,179.09l0-7.27,3.53-.27,0,7.27-3.53.27m5.53-.45,0-7.27,3.51-.38,0,7.27-3.51.38m5.49-.62,0-7.28,3.48-.48,0,7.27-3.48.49m-11-8.23,0-7.28,3.54-.27,0,7.28-3.53.27m5.53-.46,0-7.27,3.51-.38,0,7.28-3.51.37m5.49-.62,0-7.27,3.47-.49,0,7.28-3.48.48m-11-7.93,0-7.28,3.53-.27,0,7.28-3.53.27m5.53-.46,0-7.27,3.51-.38,0,7.28-3.51.37m5.49-.62,0-7.28,3.48-.48,0,7.28-3.48.48m6.55-12.55a187.3,187.3,0,0,1-20.66,2.22q-.07,23.31-.14,46.62l7.17-.49,0-9.34,6-.64,0,9.34,7.53-1.09q.08-23.31.13-46.62" transform="translate(0 -15.45)"/><path class="cls-62" d="M147,188.64l0-4.55,5.46.1,0,4.56-5.46-.11m0-7.72v-4.56l5.46.11,0,4.55-5.45-.1m0-8.12v-4.55l5.46.1v4.55l-5.46-.1m0-7.91v-4.56l5.46.11V165l-5.46-.1m14.44-7.6c-10.6.23-11.24.25-17.91-.08q-.06,18.18-.11,36.34c10.6.32,11.24.34,17.91.08l0-5.06-4.5.14v-4.55l4.5-.15v-3.17l-4.5.15v-4.56l4.5-.14v-3.56l-4.5.14v-4.55l4.51-.15v-3.36L157,165l0-4.56,4.5-.14v-3" transform="translate(0 -15.45)"/><path class="cls-62" d="M186.19,188.92v-4.06l6.32-1.32v4.06l-6.32,1.32m12.16-31.87-3.31.86c-3.17.69-7.4,1.64-10.6,2.23v2.77c3.18-.64,7.43-1.48,10.6-2.23v1.58c-3.17.7-7.4,1.64-10.6,2.23v2.78c3.19-.64,7.44-1.49,10.6-2.24v1.58c-3.17.7-7.41,1.64-10.6,2.23v2.77c3.19-.64,7.44-1.48,10.6-2.23v1.35c-3.18.7-7.41,1.64-10.6,2.23v2.77c3.19-.64,7.44-1.48,10.6-2.23V175c-3.18.7-7.41,1.65-10.6,2.24V180c3.18-.64,7.43-1.48,10.6-2.23v2.57c-3.17.7-7.4,1.64-10.6,2.23v9.16c3.19-.64,7.44-1.48,10.6-2.23l3.31-.86,2.19-.6v-2.35l-2.18.61V157.05" transform="translate(0 -15.45)"/><path class="cls-58" d="M209.77,126c-18.9,6.26-41.22,11.59-76.26,8.26a.92.92,0,0,0-1.12.83l0,6.5c30.33,2.82,52.31.43,78.38-8.5,0-7.41,0-7.41-1-7.09" transform="translate(0 -15.45)"/><path class="cls-59" d="M137.15,136.65c-1.92-.09-2.59,1.55-1.58,2.68,1.22,1.37,3.63.85,3.64-.78a2.13,2.13,0,0,0-2.06-1.9" transform="translate(0 -15.45)"/><path class="cls-60" d="M143,137.08c-1.94,0-2.62,1.62-1.6,2.72,1.22,1.33,3.65.74,3.65-.89a2,2,0,0,0-2.05-1.83" transform="translate(0 -15.45)"/><path class="cls-61" d="M148.82,137.31c-1.94,0-2.63,1.71-1.61,2.78,1.23,1.29,3.67.62,3.67-1a2,2,0,0,0-2.06-1.77" transform="translate(0 -15.45)"/></g></g></g><path class="cls-64" d="M208.53,238.88c-.16,59.21-.16,59.21,0,59.68a1.73,1.73,0,0,0,.83.13c44.51-17.65,47-38.83,47-39q.09-29.61.17-59.21c0-6.73,0-6.73-.07-7a.77.77,0,0,0-.17.19h0c-5.9,11.9-16.07,25.65-46.78,37.44a1.58,1.58,0,0,0-1,1.31l0,6.5" transform="translate(0 -15.45)"/><path class="cls-64" d="M47.49,173.6c-.17,59.89-.17,59.89,0,60.82,10.4,29.12,41.78,39.44,42.08,39.48a1.27,1.27,0,0,0,.42-.61q.09-29.61.17-59.21c0-7.41,0-7.41-.94-7.87h0C71.7,198,54.54,187.46,47.69,166.8c-.07.08-.18.19-.18.3l0,6.5" transform="translate(0 -15.45)"/><path class="cls-64" d="M132.37,141.62c-.17,60-.17,60,.95,60.29,53.37,4.62,77.23-9.42,77.26-9.58q.09-29.6.17-59.21m0,0c0-7.41,0-7.41-1-7.09-18.9,6.26-41.22,11.59-76.26,8.26a.92.92,0,0,0-1.12.83l0,6.5" transform="translate(0 -15.45)"/><path class="cls-65" d="M225.49,631.77a1.45,1.45,0,0,0,0-2.89,1.45,1.45,0,0,0,0,2.89Z" transform="translate(0 -15.45)"/><polyline class="cls-66" points="101.67 341.35 86.29 334.89 86.29 395.19 61.68 407.73 61.68 422.13"/><path class="cls-67" d="M61.74,435.29c-1.53-.89-2.78-.18-2.79,1.59a6.12,6.12,0,0,0,2.77,4.8c1.54.89,2.79.18,2.79-1.59A6.06,6.06,0,0,0,61.74,435.29Z" transform="translate(0 -15.45)"/><path class="cls-68" d="M61.68,437.08c-.81-.47-1.48-.09-1.48.85a3.26,3.26,0,0,0,1.47,2.55c.82.47,1.48.09,1.49-.84A3.26,3.26,0,0,0,61.68,437.08Z" transform="translate(0 -15.45)"/><path class="cls-69" d="M194.66,302.48c0-8.16,0-8.16-1.17-8h0c-22.91,4-49.07,6.48-85.07-2a.85.85,0,0,0-1.18.74l0,7.16c-.19,66-.19,66,1,66.51,53.62,12.13,86.06,1.65,86.27.73,0-9.3.06-21.71.09-31,0-4.65,0-10.85,0-15.5,0-5.6,0-13.05,0-18.65" transform="translate(0 -15.45)"/><path class="cls-57" d="M200.59,315c-30.38,5.48-58.9,7.17-99.29-2.36-.21,74.93-.21,74.93,1.12,75.51,60.89,13.78,97.73,1.88,98,.84l.1-35.21c0-5.29,0-12.33.05-17.61,0-6.35,0-14.82.06-21.17" transform="translate(0 -15.45)"/><path class="cls-58" d="M199.26,305.93c-26,4.51-55.72,7.36-96.6-2.29a1,1,0,0,0-1.33.84l0,8.13c29.56,6.9,57.75,9.95,99.29,2.36,0-9.26,0-9.26-1.33-9" transform="translate(0 -15.45)"/><path class="cls-59" d="M107,307.18c-2.18-.41-3,1.34-2,2.89,1.21,1.88,4,2,4.42.23.32-1.25-.85-2.77-2.39-3.12" transform="translate(0 -15.45)"/><path class="cls-60" d="M113.94,308.64c-2.31-.34-3.13,1.62-1.92,3.15,1.41,1.79,4.16,1.59,4.39-.31a2.9,2.9,0,0,0-2.47-2.84" transform="translate(0 -15.45)"/><path class="cls-61" d="M121,309.87c-2.35-.26-3.18,1.72-2,3.22,1.43,1.73,4.21,1.45,4.45-.46a2.81,2.81,0,0,0-2.5-2.76" transform="translate(0 -15.45)"/><path class="cls-70" d="M133.07,378.87c-8.86-.1-10.58.29-11.07,1.2,2.73,6.86,52.68,8.3,57.47,1.65a2.13,2.13,0,0,0,.14-.35c-.49-.93-2.21-1.4-11.11-1.71.18.48.64,1.75-1.2,2.91-2.06,1.29-4.58,1.07-6.73,2.07-1.73.71-3.44.8-6.54.35H154l-.13,0c-3.13-1.35-3.13-1.35-5.51-.32-2.36.82-3.84.52-6.54,0l-.08,0-.12,0a5,5,0,0,1-1.58-1.07c-2.56.27-7.53-2.31-6.92-4.6" transform="translate(0 -15.45)"/><path class="cls-71" d="M166.61,357a2,2,0,0,1,.08.26c.2.74,0,1.51.12,2.25s1,1.13,1,2c0,1.42-.53,1.44-1.34,1.36a10.16,10.16,0,0,0,.14,2.27c5,3.09,6,3.73,8.46,2.66a2.2,2.2,0,0,0,1.11-.84c.65-1.1.53-2.42,1-3.58a6.49,6.49,0,0,1,2.06-2.87,2.84,2.84,0,0,0,.79-.8.66.66,0,0,0,.06-.43c-.16-.76-1.48-.83-4.39-.7a20,20,0,0,1-9.11-1.55" transform="translate(0 -15.45)"/><path class="cls-72" d="M147.92,364.66a12.33,12.33,0,0,1,.79,2.68c.49,2.93.08,5.91.51,8.85.26,1.76,1.27,3.29,1.52,5.05,0,.05,0,.12,0,.17a2.86,2.86,0,0,1-1,2.33c.82.06,1.52.09,2.34.09-.91-1.57-.91-1.57-.87-2.28.1-1.76,1.09-3.3,1.26-5.05.27-2.93-.29-5.86,0-8.78a12.06,12.06,0,0,1,.6-2.61,25.3,25.3,0,0,1-5.19-.45m-12.72-1.88a33.5,33.5,0,0,0,1.69,12.37c-9.19,5.18.91,8.12,1,8.15a4.88,4.88,0,0,0,2.08.17,3.13,3.13,0,0,1-1-2.46c.11-1.74,1.09-3.26,1.25-5,.28-3-.33-5.93.07-8.89a9.94,9.94,0,0,1,1-3.4c-5.15-.37-5.15-.37-6.07-1m30.17,0c-1.57.1-2.17.28-5.5,1.27a10.71,10.71,0,0,1,1.11,3.31c.57,3.09,0,6.25.6,9.34.29,1.53,1.2,2.87,1.43,4.42,0,.05,0,.12,0,.17a3.31,3.31,0,0,1-1.71,2.93c2.73.65,8.83-1.92,7-4.94a10.59,10.59,0,0,0-3.49-3.17,32.3,32.3,0,0,0,1.67-13.28,5.11,5.11,0,0,0-1.11,0" transform="translate(0 -15.45)"/><path class="cls-62" d="M141.27,363.74a10.26,10.26,0,0,0-1,3.4c-.42,3.14.29,6.29-.13,9.43-.21,1.53-1.05,2.89-1.19,4.44a1,1,0,0,0,0,.17,3.5,3.5,0,0,0,1.85,2.94,5.53,5.53,0,0,1,1.17-2.23,4.47,4.47,0,0,0-.05,2.62,1.35,1.35,0,0,1-.66-.13,2.1,2.1,0,0,0,.3.15h0l.12,0a20.51,20.51,0,0,0,3,.46,5.76,5.76,0,0,1,1-2.63,3.25,3.25,0,0,0,.44,2.6l-.09.05a7,7,0,0,0,2.27-.44,3.49,3.49,0,0,0,2.48-3c0-.1,0-.24,0-.34-.25-1.76-1.26-3.29-1.52-5.05-.43-2.94,0-5.92-.51-8.85a11.94,11.94,0,0,0-.79-2.68,48.55,48.55,0,0,0-6.65-.92" transform="translate(0 -15.45)"/><path class="cls-62" d="M159,385h0s0-.06,0-.08a7.12,7.12,0,0,0,.15-1.54,2.49,2.49,0,0,0-.19-1,5.74,5.74,0,0,1,1.17,2.33A3.18,3.18,0,0,1,159,385m-3.19.14a3.35,3.35,0,0,1-1.38-.25,3.26,3.26,0,0,0,.79-2.54,5.61,5.61,0,0,1,.6,2.79h0m4.07-21.08a25.23,25.23,0,0,1-6.76,1.05,11.21,11.21,0,0,0-.6,2.61c-.34,2.92.22,5.85,0,8.78-.17,1.75-1.1,3.3-1.26,5.05,0,.1,0,.24,0,.34a3.7,3.7,0,0,0,2.62,3h0l.13,0c2.75.39,4.72.47,6.61-.33,2.47-1.17,2.48-3,2.47-3.18a1.94,1.94,0,0,0,0-.34c-.25-1.73-1.26-3.23-1.52-5-.43-2.91,0-5.88-.51-8.79a10.77,10.77,0,0,0-1.11-3.31" transform="translate(0 -15.45)"/><path class="cls-73" d="M145.67,382.41c-.11.18-1.1,1.85-.95,2.67a3.62,3.62,0,0,0,1.4-.06,3.26,3.26,0,0,1-.45-2.61" transform="translate(0 -15.45)"/><path class="cls-73" d="M142,381.89a5.76,5.76,0,0,0-1.18,2.28,3.15,3.15,0,0,0,1.13.36.25.25,0,0,0,0-.08,7.46,7.46,0,0,1-.14-1.55,2.6,2.6,0,0,1,.2-1" transform="translate(0 -15.45)"/><path class="cls-73" d="M155.21,382.35a3.26,3.26,0,0,1-.79,2.54,3.35,3.35,0,0,0,1.38.25,5.43,5.43,0,0,0-.59-2.79" transform="translate(0 -15.45)"/><path class="cls-73" d="M158.93,382.36a5.14,5.14,0,0,1,0,2.64,3.05,3.05,0,0,0,1.13-.31,5.53,5.53,0,0,0-1.16-2.33" transform="translate(0 -15.45)"/><path class="cls-71" d="M165,355.54c-9.39,8.82-23.56,5.65-28.81-.32a1.48,1.48,0,0,0-1.58,1.35c-.19.91,1,1.3.86,2.19S134,360,134.06,361a1.81,1.81,0,0,0,.68,1.41,5.3,5.3,0,0,0,2.18,1.05L150.2,365a25,25,0,0,0,9-.73c1.61-.43,3.17-1,4.82-1.31,1.05-.19,2.13.25,3.18-.11.25-.09.76-.27.68-1.57-.05-.82-1-1.16-1.06-2a10.9,10.9,0,0,0-.09-2.06c0-.06,0-.12-.05-.18a5,5,0,0,0-.22-.53c-.34-.69-.64-1-1.4-1" transform="translate(0 -15.45)"/><path class="cls-70" d="M136.05,331.22l-.34,0a5,5,0,0,0-.86.65,42.08,42.08,0,0,1-7.41,4.69c-1.42.74-2.88,1.4-4.25,2.24l-.34.21a6.19,6.19,0,0,0-2.06,2.08,6.69,6.69,0,0,0,3.61,9.35c2.51.79,5.31-.94,5.84-1.48,2.66-2.7,2.51-6.88,5.08-9.62,0-.14,0-.28,0-.43A9.1,9.1,0,0,1,138,331.7a5.66,5.66,0,0,0-2-.48" transform="translate(0 -15.45)"/><path class="cls-70" d="M164.91,330.66a5.08,5.08,0,0,0-2.78.74,9.68,9.68,0,0,1,3.62,7.4,40.78,40.78,0,0,1,2.22,3.47c2.31,5,2.31,5,2.41,5.17a5,5,0,0,0,2.31,1.93c6.75,2.94,8.52-3.77,8.53-3.84a6.13,6.13,0,0,0-1.61-5.89,14.27,14.27,0,0,0-3.89-2.41c-4.66-2.35-7.45-3.81-10.54-6.43l-.27-.14" transform="translate(0 -15.45)"/><path class="cls-72" d="M150.72,327.9c-6.64-.13-4.7,9.69-4.07,12.91.92,4.66,1.43,7.23-1.93,8.62a11.22,11.22,0,0,1-7.48-.32c-3.19-1.55-1.74-3.26-1.2-3.9a9.48,9.48,0,0,1,.73-.78c-7,6.93,1.11,16.52,13.91,16.55,12.6,0,20.45-8.9,14-15.94,4.31,4.68-3.76,5.43-5.06,5.37-7.1-.33-6.15-5-5.52-8.05,1.68-8.21,2.25-11-2.23-14.4h.31c-.25,0-.77-.05-1.46-.07" transform="translate(0 -15.45)"/><path class="cls-71" d="M158.16,346.13c-1.82-.05-2.44-1.69-1.41-2.66,1.21-1.14,3.43-.4,3.33,1.11a1.86,1.86,0,0,1-1.92,1.55M151.87,328c4.48,3.43,3.89,6.27,2.34,13.87-.74,3.63-1.33,6.49,2.26,8,4.29,1.82,10.18-.49,9.54-3a9.31,9.31,0,0,0-1.57-2,12.5,12.5,0,0,0,1.31-6c-.47-7.53-6.82-10-12.06-10.67-.54-.07-.91-.11-1.47-.15h-.35" transform="translate(0 -15.45)"/><path class="cls-71" d="M143.08,345.84c-1.81-.18-2.44-1.86-1.41-2.75,1.21-1.06,3.42-.18,3.32,1.33a1.68,1.68,0,0,1-1.91,1.42m6.06-17.93c-8.89.29-14.06,4.39-13.84,11a13.34,13.34,0,0,0,1.47,5.55c-2.15,2.1-1.87,2.43-1.06,3.44.4.5,1.61,2,5.49,2.05,7.27.09,6.54-3.61,5.09-11-.63-3.17-1.67-8.49,2.85-11" transform="translate(0 -15.45)"/><path class="cls-62" d="M146.82,349.47c-7.26,1.11-5.19,7.06-2.4,9.17,5.3,4,15.24,1.68,14.64-4.88-.25-2.75-2.54-3.6-4.74-4.08,1.16,1.39-1,3.63-3.62,3.81,0,1.63,0,4.36,3.34,4.67.09.12.28.47-.63.32a4,4,0,0,1-2.93-2.86c-.78,2.93-3.4,2.91-3.49,2.67a.28.28,0,0,1,0-.2c.32-.11.68,0,1-.13a3.25,3.25,0,0,0,1.09-.65,3.31,3.31,0,0,0,1.12-2.05v-1.79c-2.45-.34-4.75-2.59-3.42-4" transform="translate(0 -15.45)"/><path class="cls-70" d="M158.18,342.93c-1.65,0-2.53,1.58-1.49,2.63s3.3.49,3.39-1a1.71,1.71,0,0,0-1.9-1.65" transform="translate(0 -15.45)"/><path class="cls-70" d="M143.09,342.64c-1.61-.08-2.49,1.43-1.48,2.53s3.29.72,3.38-.75a1.88,1.88,0,0,0-1.9-1.78" transform="translate(0 -15.45)"/><path class="cls-70" d="M150.57,348.42c-2.87,0-5.62,1.23-3.3,3.6a4.91,4.91,0,0,0,3,1.45v-.28h.46v.29c2.82-.19,4.94-2.58,3.49-3.94a5.45,5.45,0,0,0-3.62-1.13" transform="translate(0 -15.45)"/><path class="cls-70" d="M150.71,353.2h-.46v.28c0,2.35,0,2.39-.57,3.24a3,3,0,0,1-2.5,1.36c-.25,0-.2.21-.13.3s.38.06.44.05a3.32,3.32,0,0,0,2.09-1.06,3.61,3.61,0,0,0,.91-1.74c.87,2.86,3.47,3.07,3.62,2.78,0,0,.06-.27-.16-.25a3.39,3.39,0,0,1-3.24-2.9V353.2" transform="translate(0 -15.45)"/><circle class="cls-62" cx="159.45" cy="327.63" r="0.81"/><circle class="cls-62" cx="143.98" cy="327.63" r="0.81"/><path class="cls-74" d="M200.59,315c0-9.26,0-9.26-1.33-9h0c-26,4.51-55.72,7.36-96.6-2.29a1,1,0,0,0-1.33.84l0,8.13c-.21,74.93-.21,74.93,1.12,75.51,60.89,13.78,97.73,1.88,98,.84l.1-35.21c0-5.29,0-12.33.05-17.61,0-6.35,0-14.82.06-21.17" transform="translate(0 -15.45)"/><g class="cls-2"><g class="cls-2"><g class="cls-75"><path class="cls-62" d="M83.08,444.59c-.66-.32-1.31-.64-2-1l0,15.23c3,1.54,6.22,3,9.48,4.28v-1.79C88,460.3,85.49,459.2,83,458l0-13.43" transform="translate(0 -15.45)"/><path class="cls-62" d="M96.57,464.17c-2.71-1-2.74-3.13-1.78-3.58.38-.19.88-.16,2.22.12a14,14,0,0,0,3.28.38v.68c0,3.2-2.35,2.88-3.72,2.4m1.18-9.67c-4.48-1.48-5,.46-5.26,1.5l1.91,1c1-3.19,5.24,0,5.64.83a3.68,3.68,0,0,1,.26,1.82,16.23,16.23,0,0,1-3.58-.54c-1.29-.3-2.75-.64-3.68,0-1.39.9-1.13,3.29.53,4.93,0,0,3.16,3,6.88,1.34a4.67,4.67,0,0,0,.4,1.49l2.12.65c-.57-1.13-.63-1.62-.63-4.81v-2.5c0-2,0-4.08-4.6-5.64" transform="translate(0 -15.45)"/><path class="cls-62" d="M111.34,458.39c-1.81-.39-3-.15-3.94.83v-1.56l-1.87-.51,0,11,2.07.56,0-6c.09-5.11,4.73-2.21,5.12-1.81a3.25,3.25,0,0,1,.76,2.55l0,6.71,2.13.46,0-6.78c0-1.56,0-4.47-4.27-5.46" transform="translate(0 -15.45)"/><path class="cls-62" d="M123.81,470.85c-3.92-.71-4.48-6.5-2.25-8s6.56.55,5.59,5.66a2.77,2.77,0,0,1-3.34,2.38m5.48-13.16-2.19-.29v5.46c-2.15-2.75-8.21-3.47-8.91,1.78-.85,6.46,5.78,9.24,8.53,7.1a4.74,4.74,0,0,0,.5-.48v1.39l2,.27,0-15.23" transform="translate(0 -15.45)"/><path class="cls-62" d="M135,462.52l-2.21-.22,0,11,2.21.22,0-11m0-4.2-2.21-.22v2.15l2.22.22v-2.15" transform="translate(0 -15.45)"/><path class="cls-62" d="M144.56,462.93a4.91,4.91,0,0,0-4.2,1.59V463l-2-.14,0,11,2.24.16v-6c.09-5,4.93-3.34,5.63-2.62.38.38.61.89.62,2.24l0,6.71,2.24.05,0-6.78c0-1.56,0-4.47-4.5-4.64" transform="translate(0 -15.45)"/><path class="cls-62" d="M157.55,472.78c-4.37,0-4.23-5.47-2.55-7.13,1.9-1.87,6.2-1.5,6.19,2.9,0,3.84-2.79,4.21-3.64,4.23m-.17-9.73c-6.15.23-7.24,6.79-4.07,9.9a5.75,5.75,0,0,0,7.68-.19c0,1.94,0,3.1-1.42,4-1.2.73-3.91.77-4.85-.16a1.72,1.72,0,0,1-.47-1l-2.18-.27c0,4.53,7.56,4.13,9.87,1.87.84-.81,1.3-1.79,1.32-4.57l0-9.54-2.06.11v1.32a5,5,0,0,0-3.85-1.44" transform="translate(0 -15.45)"/><path class="cls-62" d="M176.32,464.91v-5.45c1.53-.19,3-.41,4.56-.64,1.87-.29,2.81-.43,3.65.42a2.74,2.74,0,0,1,0,3.28c-.64.9-1.73,1.42-3.64,1.73-1.53.24-3.06.46-4.6.66m4.38-7.86q-3.34.51-6.74.9l0,15.23,2.37-.29,0-6.19c1.53-.19,3.05-.41,4.57-.64,8.52-1.43,7-7.37,5.29-8.63-1.38-1-3.65-.66-5.47-.38" transform="translate(0 -15.45)"/><path class="cls-62" d="M194.17,468.42c-2.69.61-2.77-1.23-2.2-2.12.45-.72,1.16-1,2.67-1.6a19,19,0,0,0,3.41-1.58v.69a4.56,4.56,0,0,1-3.88,4.61m1.24-10.36c-4.78,1.22-5.33,3.47-5.63,4.68l2.08-.2c1-3.55,5.45-3.38,6-2.48a3,3,0,0,1,.21,1.6,23,23,0,0,1-3.88,1.64,8.6,8.6,0,0,0-3.86,2.22c-1.49,1.82-1.1,4,.81,4.56.14,0,3.44.9,7.09-2.83a3,3,0,0,0,.41,1.25c.72-.19,1.44-.39,2.15-.6-.58-.81-.64-1.22-.63-4.44V461c0-2,0-4.08-4.73-2.91" transform="translate(0 -15.45)"/><path class="cls-62" d="M207.83,464.14c-3.79,1.21-3.65-3.91-2.59-5.89,1.39-2.61,4.87-3.54,5.63-.87.51,1.82.15,5.67-3,6.76m-.14-9.67c-5.88,2.08-6.46,9.86-3.08,11.36.71.31,3.86.78,6.26-2.66,0,1.9,0,3.16-1.25,4.36s-3.67,1.89-4.42,1.08a1.55,1.55,0,0,1-.32-.77l-2,.34c0,4.36,6,2,7.93.13,1.68-1.64,2-3.23,2-5.94l0-9.54-1.8.68v1.33a3.27,3.27,0,0,0-3.39-.37" transform="translate(0 -15.45)"/><path class="cls-62" d="M217.19,455.52c.31-3.77,4.35-5.9,5.59-4.37a3.12,3.12,0,0,1,.48,1.56c-2,1-4,1.92-6.07,2.81m3.12-6.09c-5.95,2.87-6.59,10.86-3.19,11.95,1.73.56,6.66-1,8-6.34l-1.85.71c-1.23,4-4.77,4.91-5.78,3a4.16,4.16,0,0,1-.37-1.61c2.76-1.19,5.45-2.46,8-3.81.18-5.59-3.31-4.57-4.82-3.87" transform="translate(0 -15.45)"/><path class="cls-62" d="M119.25,481.4c-9.65-1.69-9.46,7.68-6.38,12,2.9,4.08,11.44,6.38,13.64-.18l-2.35-.86c-1.48,5.17-7.94,3.1-9.79-.15-1.75-3.07-2-11,5.46-9a5.62,5.62,0,0,1,4.08,3.84l2.32-.11a8.55,8.55,0,0,0-7-5.59" transform="translate(0 -15.45)"/><path class="cls-62" d="M133.37,497.71c-3-.34-3-2.4-2.1-3.09.43-.33,1-.43,2.59-.47a17.09,17.09,0,0,0,3.63-.38v.69c0,3-2.26,3.44-4.12,3.25m1.31-9.94c-5-.44-5.58,1.63-5.89,2.74l2.15.51c1.07-3.19,5.76-1.47,6.33-.39a3.15,3.15,0,0,1,.22,1.63,15.18,15.18,0,0,1-4,.33c-1.49,0-3.35,0-4.4,1.07-1.45,1.48-.8,4.13,2,5.1a7.31,7.31,0,0,0,6.51-.8,4,4,0,0,0,.44,1.4l2.33.16c-.62-1-.7-1.48-.69-4.67v-2.49c0-2,0-4.1-5.07-4.59" transform="translate(0 -15.45)"/><path class="cls-62" d="M145.86,484.91l-2.22,1v2.73l-1.64-.09V490l1.63.08v6.35c0,1.82,0,4.07,4.79,3.38l-.32-1.66c-2.16.2-2.25-.32-2.25-1.52l0-6.45,2.25.06v-1.45l-2.26-.07v-3.85" transform="translate(0 -15.45)"/><path class="cls-62" d="M154.56,498.69c-3,0-3-2-2.21-2.77.44-.44,1-.61,2.71-.85a17.93,17.93,0,0,0,3.66-.79V495c0,3-2.28,3.7-4.16,3.72m1.33-10.08c-5.07.12-5.66,2.25-6,3.4l2.2.27c1.1-3.37,5.91-2.13,6.43-1a3.14,3.14,0,0,1,.19,1.51,16.09,16.09,0,0,1-4,.78c-1.58.18-3.36.38-4.47,1.57-1.41,1.53-.83,4.11,1.84,4.82a7.75,7.75,0,0,0,6.8-1.49,3.41,3.41,0,0,0,.44,1.35l2.34-.1c-.64-.94-.7-1.37-.7-4.59v-2.5c0-2,0-4.09-5.1-4" transform="translate(0 -15.45)"/><path class="cls-62" d="M166.65,484.17l-2.23.15,0,15.23,2.23-.16,0-15.22" transform="translate(0 -15.45)"/><path class="cls-62" d="M175.34,497.24c-4.54.47-4.5-4.95-2.85-6.93s6.2-2.53,6.63,1.41c.41,3.68-1.78,5.28-3.78,5.52m0-10c-7.29,1-7.14,8.43-4.45,10.54,3.37,2.64,11.36.47,10.42-6.72-.36-2.76-2.65-4.23-6-3.82" transform="translate(0 -15.45)"/><path class="cls-62" d="M188.79,494.79c-4,.73-4.09-4.3-2.68-6.38,1.69-2.48,5.46-2.67,6,.39.48,2.54-.52,5.41-3.37,6m-.16-9.69c-6.18,1.33-7,8.69-3.51,10.86a5.6,5.6,0,0,0,6.94-1.77c0,7.31-6,4.82-6.09,4.76a1.62,1.62,0,0,1-.34-.82l-2.1.11c0,4.31,6.56,3.1,9.06.6,1.21-1.21,1.59-2.43,1.62-5.2l0-9.53-1.94.45v1.33a4,4,0,0,0-3.66-.79" transform="translate(0 -15.45)"/></g></g></g></g></g></g></svg>