<svg xmlns="http://www.w3.org/2000/svg" xmlns:xlink="http://www.w3.org/1999/xlink" viewBox="0 0 195.24 238.45"><defs><style>.cls-1{isolation:isolate;}.cls-2{fill:url(#linear-gradient);}.cls-3,.cls-4{fill:#231f20;mix-blend-mode:multiply;}.cls-3{opacity:0.29;}.cls-4{opacity:0.22;}.cls-5{fill:url(#linear-gradient-2);}.cls-6{fill:#edb488;}.cls-7{fill:url(#linear-gradient-3);}.cls-8{fill:#20323f;}.cls-9{opacity:0.1;}.cls-10{fill:url(#linear-gradient-4);}.cls-11{fill:url(#linear-gradient-5);}.cls-12{fill:url(#linear-gradient-6);}.cls-13{fill:#241303;}.cls-14{fill:url(#linear-gradient-7);}.cls-15{fill:url(#linear-gradient-8);}.cls-16{fill:url(#linear-gradient-9);}.cls-17{fill:url(#linear-gradient-10);}.cls-18{fill:url(#linear-gradient-11);}.cls-19{fill:url(#linear-gradient-12);}.cls-20{fill:url(#linear-gradient-13);}.cls-21{fill:url(#linear-gradient-14);}.cls-22{fill:#f2c8ad;}.cls-23{fill:url(#linear-gradient-15);}.cls-24{fill:url(#linear-gradient-16);}.cls-25{fill:url(#linear-gradient-17);}.cls-26{fill:url(#linear-gradient-18);}.cls-27{fill:url(#linear-gradient-19);}.cls-28{fill:url(#linear-gradient-20);}.cls-29{fill:url(#linear-gradient-21);}.cls-30{fill:url(#linear-gradient-22);}.cls-31{fill:url(#linear-gradient-23);}.cls-32{fill:url(#linear-gradient-24);}.cls-33{fill:url(#linear-gradient-25);}.cls-34{fill:url(#linear-gradient-26);}.cls-35{fill:url(#linear-gradient-27);}.cls-36{fill:url(#linear-gradient-28);}.cls-37{fill:url(#linear-gradient-29);}.cls-38{fill:url(#linear-gradient-30);}.cls-39{fill:url(#linear-gradient-31);}.cls-40{fill:url(#linear-gradient-32);}.cls-41{fill:url(#linear-gradient-33);}.cls-42{fill:url(#linear-gradient-34);}.cls-43{fill:url(#linear-gradient-35);}.cls-44{fill:url(#linear-gradient-36);}.cls-45{fill:url(#linear-gradient-37);}.cls-46{fill:url(#linear-gradient-38);}.cls-47{fill:url(#linear-gradient-39);}.cls-48{fill:url(#linear-gradient-40);}.cls-49{fill:url(#linear-gradient-41);}.cls-50{fill:url(#linear-gradient-42);}.cls-51{fill:url(#linear-gradient-43);}.cls-52{fill:url(#linear-gradient-44);}.cls-53{fill:url(#linear-gradient-45);}.cls-54{fill:#fff;}.cls-55{fill:url(#linear-gradient-46);}.cls-56{fill:url(#linear-gradient-47);}.cls-57{fill:url(#linear-gradient-48);}.cls-58{fill:url(#linear-gradient-49);}.cls-59{fill:url(#linear-gradient-50);}.cls-60{fill:url(#linear-gradient-51);}</style><linearGradient id="linear-gradient" x1="-1710.03" y1="128.16" x2="-1648.34" y2="235.02" gradientTransform="translate(1776.75)" gradientUnits="userSpaceOnUse"><stop offset="0" stop-color="#30a7d8"/><stop offset="0.36" stop-color="#2fa5d5"/><stop offset="0.62" stop-color="#2d9dcc"/><stop offset="0.85" stop-color="#2991bc"/><stop offset="1" stop-color="#2686ad"/></linearGradient><linearGradient id="linear-gradient-2" x1="109.17" y1="77.5" x2="106.36" y2="88.46" gradientUnits="userSpaceOnUse"><stop offset="0" stop-color="#bfcaff"/><stop offset="1" stop-color="#fff"/></linearGradient><linearGradient id="linear-gradient-3" x1="105.41" y1="136.75" x2="116.4" y2="136.75" xlink:href="#linear-gradient-2"/><linearGradient id="linear-gradient-4" x1="94.1" y1="143.19" x2="105.09" y2="143.19" xlink:href="#linear-gradient-2"/><linearGradient id="linear-gradient-5" x1="93.36" y1="79.82" x2="104.82" y2="101.35" xlink:href="#linear-gradient-2"/><linearGradient id="linear-gradient-6" x1="89.8" y1="84.91" x2="90.67" y2="94.83" xlink:href="#linear-gradient-2"/><linearGradient id="linear-gradient-7" x1="43.59" y1="18.2" x2="47.74" y2="35.77" xlink:href="#linear-gradient-2"/><linearGradient id="linear-gradient-8" x1="76.13" y1="69.59" x2="76.53" y2="118.07" xlink:href="#linear-gradient-2"/><linearGradient id="linear-gradient-9" x1="63.83" y1="69.7" x2="64.23" y2="118.17" xlink:href="#linear-gradient-2"/><linearGradient id="linear-gradient-10" x1="54.57" y1="50.73" x2="85.23" y2="50.73" gradientUnits="userSpaceOnUse"><stop offset="0" stop-color="#4f6dff"/><stop offset="1" stop-color="#445edb"/></linearGradient><linearGradient id="linear-gradient-11" x1="52.17" y1="39.88" x2="62.81" y2="39.88" xlink:href="#linear-gradient-10"/><linearGradient id="linear-gradient-12" x1="20.88" y1="159.74" x2="33.92" y2="159.74" xlink:href="#linear-gradient-2"/><linearGradient id="linear-gradient-13" x1="35.88" y1="149.05" x2="60.22" y2="149.05" xlink:href="#linear-gradient-2"/><linearGradient id="linear-gradient-14" x1="20.87" y1="20.07" x2="42.2" y2="59.09" xlink:href="#linear-gradient-2"/><linearGradient id="linear-gradient-15" x1="17.5" y1="29.33" x2="20.22" y2="45.62" xlink:href="#linear-gradient-2"/><linearGradient id="linear-gradient-16" x1="116.73" y1="61.26" x2="127.32" y2="61.26" gradientUnits="userSpaceOnUse"><stop offset="0" stop-color="#000964"/><stop offset="1" stop-color="#131a64"/></linearGradient><linearGradient id="linear-gradient-17" x1="146.86" y1="169.86" x2="168.98" y2="169.86" gradientUnits="userSpaceOnUse"><stop offset="0" stop-color="#445edb"/><stop offset="1" stop-color="#4f6dff"/></linearGradient><linearGradient id="linear-gradient-18" x1="121.15" y1="180.83" x2="134.49" y2="180.83" xlink:href="#linear-gradient-17"/><linearGradient id="linear-gradient-19" x1="121.13" y1="158.97" x2="168.93" y2="158.97" xlink:href="#linear-gradient-2"/><linearGradient id="linear-gradient-20" x1="117.05" y1="168.74" x2="173.06" y2="168.74" xlink:href="#linear-gradient-17"/><linearGradient id="linear-gradient-21" x1="147.35" y1="120.03" x2="168.84" y2="120.03" xlink:href="#linear-gradient-16"/><linearGradient id="linear-gradient-22" x1="138.32" y1="130.06" x2="168.86" y2="130.06" xlink:href="#linear-gradient-17"/><linearGradient id="linear-gradient-23" x1="141.19" y1="104.41" x2="153.39" y2="104.41" xlink:href="#linear-gradient-17"/><linearGradient id="linear-gradient-24" x1="121.05" y1="144.33" x2="134.39" y2="144.33" xlink:href="#linear-gradient-17"/><linearGradient id="linear-gradient-25" x1="121.03" y1="122.47" x2="168.82" y2="122.47" xlink:href="#linear-gradient-16"/><linearGradient id="linear-gradient-26" x1="116.9" y1="113.44" x2="133.93" y2="113.44" xlink:href="#linear-gradient-17"/><linearGradient id="linear-gradient-27" x1="116.95" y1="132.3" x2="172.96" y2="132.3" xlink:href="#linear-gradient-17"/><linearGradient id="linear-gradient-28" x1="116.82" y1="94.63" x2="133.9" y2="94.63" xlink:href="#linear-gradient-17"/><linearGradient id="linear-gradient-29" x1="155.87" y1="154.1" x2="168.94" y2="154.1" xlink:href="#linear-gradient-2"/><linearGradient id="linear-gradient-30" x1="138.43" y1="166.56" x2="168.96" y2="166.56" xlink:href="#linear-gradient-17"/><linearGradient id="linear-gradient-31" x1="138.34" y1="135.79" x2="168.87" y2="135.79" xlink:href="#linear-gradient-17"/><linearGradient id="linear-gradient-32" x1="136.35" y1="102.21" x2="153.38" y2="102.21" xlink:href="#linear-gradient-17"/><linearGradient id="linear-gradient-33" x1="121.74" y1="115.64" x2="133.94" y2="115.64" xlink:href="#linear-gradient-17"/><linearGradient id="linear-gradient-34" x1="126.04" y1="106.23" x2="133.92" y2="106.23" xlink:href="#linear-gradient-16"/><linearGradient id="linear-gradient-35" x1="155.81" y1="90.98" x2="172.83" y2="90.98" xlink:href="#linear-gradient-2"/><linearGradient id="linear-gradient-36" x1="164.95" y1="83.77" x2="172.82" y2="83.77" xlink:href="#linear-gradient-16"/><linearGradient id="linear-gradient-37" x1="155.73" y1="72.16" x2="172.81" y2="72.16" xlink:href="#linear-gradient-2"/><linearGradient id="linear-gradient-38" x1="127.28" y1="45.11" x2="172.7" y2="45.11" xlink:href="#linear-gradient-2"/><linearGradient id="linear-gradient-39" x1="157.34" y1="50.14" x2="172.72" y2="50.14" xlink:href="#linear-gradient-16"/><linearGradient id="linear-gradient-40" x1="137.06" y1="61.84" x2="152.45" y2="61.84" xlink:href="#linear-gradient-17"/><linearGradient id="linear-gradient-41" x1="116.78" y1="73.55" x2="132.17" y2="73.55" xlink:href="#linear-gradient-17"/><linearGradient id="linear-gradient-42" x1="145.49" y1="95" x2="153.37" y2="95" xlink:href="#linear-gradient-16"/><linearGradient id="linear-gradient-43" x1="136.27" y1="83.39" x2="153.36" y2="83.39" xlink:href="#linear-gradient-17"/><linearGradient id="linear-gradient-44" x1="160.64" y1="93.18" x2="172.84" y2="93.18" xlink:href="#linear-gradient-2"/><linearGradient id="linear-gradient-45" x1="144.89" y1="217.36" x2="144.89" y2="6.09" gradientUnits="userSpaceOnUse"><stop offset="0" stop-color="#131a64" stop-opacity="0.1"/><stop offset="1" stop-color="#000964" stop-opacity="0.5"/></linearGradient><linearGradient id="linear-gradient-46" x1="123.56" y1="75.35" x2="128.17" y2="70.74" gradientUnits="userSpaceOnUse"><stop offset="0" stop-color="#131a64"/><stop offset="1" stop-color="#000964"/></linearGradient><linearGradient id="linear-gradient-47" x1="123.53" y1="67.61" x2="128.15" y2="63" xlink:href="#linear-gradient-46"/><linearGradient id="linear-gradient-48" x1="123.51" y1="59.87" x2="128.12" y2="55.26" xlink:href="#linear-gradient-46"/><linearGradient id="linear-gradient-49" x1="122.3" y1="65.3" x2="129.38" y2="65.3" gradientUnits="userSpaceOnUse"><stop offset="0" stop-color="#445edb"/><stop offset="1" stop-color="#394fb8"/></linearGradient><linearGradient id="linear-gradient-50" x1="124.34" y1="79.46" x2="124.34" y2="49.89" xlink:href="#linear-gradient-10"/><linearGradient id="linear-gradient-51" x1="125.84" y1="79.75" x2="125.84" y2="50.86" xlink:href="#linear-gradient-46"/></defs><title>Family</title><g class="cls-1"><g id="Layer_2" data-name="Layer 2"><g id="Family"><polygon class="cls-2" points="195.24 196.44 120.97 238.45 0 166.95 73.29 124.36 195.24 196.44"/><path class="cls-3" d="M114.75,141.88c-9.69,1.08-3.78,2.24-3.48,3.32.5,1.81-4.35,2.53-7.9,2.31-9.71-.59-13.32-3.11-13.32-6.73s6.09-6.39,15.81-6.09c8.15.26,14.51,2.49,14.84,3.65C121.14,139.83,119.4,141.36,114.75,141.88Z"/><path class="cls-4" d="M105.25,154.63c-.87-1.17-15.82-10.9-34.47-13-12-1.35-14.33.18-16.29,2.33a107.92,107.92,0,0,0-13.23-1.24c-21.32-.66-34.65,5.4-34.65,13.34s7.9,13.46,29.18,14.76c7.78.48,18.42-1.09,17.31-5.06-.66-2.38-13.6-4.91,7.63-7.29.26,0,.49-.06.73-.09,8.69,3.36,18.57,5.52,19.53,3.3.63-1.49-2.12-7.39,6-4.93,1.73.53,15.93,5.57,19.7,3.52C110.85,158,106.68,156.57,105.25,154.63Z"/><path class="cls-5" d="M103,88.87s2.22,1.58,7,.66c0-5.47.17-10.41-1.92-11.28S104.17,78,103,88.87Z"/><path class="cls-6" d="M104.26,88.38c0,4,.34,10.35,1.29,12a27.75,27.75,0,0,0,2.86,4.19,6.05,6.05,0,0,1,1.1,3.45c.17,1.25,1.58,4,2.54,3.48s.16-2.35-.3-3.37-.35-1.24.45-1,1.14-.51-.15-1.6-1.87-3.05-2.79-5.64-.81-3.07-.82-6.46.08-4.72.08-4.72Z"/><path class="cls-7" d="M108.1,134.27c-1.26-.16-2.61-.28-2.69,1.74s1.47,2.37,3.25,2.33,2.73,1,4.78,1,4.35-1,1.9-2.14-3.61-1.63-4.36-1.95-.7-1.2-1.8-1.05S108.1,134.27,108.1,134.27Z"/><path class="cls-6" d="M104.27,123.7l1.78,10.49a2.24,2.24,0,0,0,3.75,0l.4-12.46Z"/><path class="cls-8" d="M111.74,121.89a13.66,13.66,0,0,1-6.66,2.47,6.22,6.22,0,0,1-4.38-1.45c.51-6.2.84-10.11,1-12.58l.35-4.19,6.17-.87,2.45,1.74Z"/><path class="cls-9" d="M105.08,124.36a6.22,6.22,0,0,1-4.38-1.45c.51-6.2.84-10.11,1-12.58l1.56-.92Z"/><path class="cls-10" d="M96.79,140.71c-1.26-.16-2.61-.28-2.69,1.74s1.47,2.37,3.25,2.33,2.73,1,4.78,1,4.36-1,1.9-2.14-3.61-1.63-4.36-1.95-.7-1.2-1.79-1.05S96.79,140.71,96.79,140.71Z"/><path class="cls-6" d="M93,127.54l1.78,13.09a2.25,2.25,0,0,0,3.76,0c.58-5.81,1.45-13.09,1.45-13.09Z"/><path class="cls-8" d="M103.83,109l-1,18.91a9.56,9.56,0,0,1-8.78,1.25,11.39,11.39,0,0,1-2.69-1.25l1.82-19.54.84-.84.43-.43Z"/><path class="cls-9" d="M96,112.31a46.83,46.83,0,0,1-1.9,16.84,11.39,11.39,0,0,1-2.69-1.25l1.82-19.54.84-.84,6.68,2.18Z"/><path class="cls-11" d="M110.71,107c-3.71,4.83-8.93,4.43-12.89,3.2a33.93,33.93,0,0,1-4.59-1.85c.71-6.49,0-14.56-2.14-18.67a3.93,3.93,0,0,1-.32-3c.77-2.66,4.16-4.69,5.86-5.45a47.28,47.28,0,0,1,8.15-3c4.11-1,3.72,1.1,4,5.61s0,4,1,7.83S111,102.74,110.71,107Z"/><path class="cls-9" d="M93.23,108.36c.71-6.49,0-14.56-2.14-18.67a3.93,3.93,0,0,1-.32-3c5.11,4.29,6.62,17.62,7,23.54A33.93,33.93,0,0,1,93.23,108.36Z"/><path class="cls-6" d="M88.16,96.52c-.37,4-.58,10.34.21,12.08A26.83,26.83,0,0,0,90.85,113a6.12,6.12,0,0,1,.79,3.54c0,1.26,1.21,4.11,2.22,3.69s.37-2.32,0-3.38-.24-1.26.54-1,1.18-.41,0-1.61-1.6-3.2-2.28-5.86-.53-3.13-.24-6.51.5-4.69.5-4.69Z"/><path class="cls-12" d="M86.89,96.89s2.07,1.78,6.87,1.29c.47-5.45,1.1-10.36-.91-11.41S89,86.13,86.89,96.89Z"/><path class="cls-6" d="M95.08,74.23a25.67,25.67,0,0,0,2.74,3.06c1.21,1.06,5.27,3.17,8.17,1.9s2.11-6,1.8-8.23-.11-6.22-2.32-5.75S96,70.33,95.08,74.23Z"/><path class="cls-6" d="M97.82,76.45s.58,3-1,4.27-1.59,2,.55,3.17,6.88,2.81,6.57,0-.26-5.65.32-6.6C101.67,78,97.82,76.45,97.82,76.45Z"/><path class="cls-13" d="M107.15,64.27A11.28,11.28,0,0,1,101.51,69c-3.16,1.21-2,3.43-1.58,4.38s.36,1.63-.56.74-4.19.05-1.55,3.16c-2.43-1.05-4.85-4.11-5.8-6s-.69-6.75,1.42-8.49S98.72,60.84,102,61,108.5,62.29,107.15,64.27Z"/><path class="cls-6" d="M43.84,39.49l3.27,8.94c.85,2.29,3.69,7.44,8,6.8S70.5,51,73.27,50.41L76,49.85l-.63-4S62.75,47.3,59.35,47.39s-4.12-.38-5.54-3.63S51,36.48,51,36.48Z"/><path class="cls-14" d="M42.36,40s8.13.85,11.08-2.64c-.63-7-1.58-18.5-7.49-18.21S39.73,27,42.36,40Z"/><path class="cls-8" d="M78.62,145.77c-1.21-.23-1.58.61-1.58,1.72s-.37,2.64,1.84,3.85,3.85,1.69,5.86,3.43,3.64,2.27,7,1.9,2.11-3,.58-4.33-8.12-6.41-10.49-6.61A11,11,0,0,0,78.62,145.77Z"/><path class="cls-6" d="M77.88,141.68V146a3,3,0,0,0,4.49,0v-4.48Z"/><path class="cls-15" d="M84.74,125.6c-.84,8-1.69,16.56-1.69,16.56a6.46,6.46,0,0,1-3.21.61,8.76,8.76,0,0,1-2.8-.61c-1.16-7-2-14.76-1.37-19.4s1.46-7.49-.22-14-9.28-31.44-9.28-31.44L71,73.85l6.69-4.73,6.49,4.27s1.27,15,2,24.26S85.58,117.59,84.74,125.6Z"/><path class="cls-9" d="M80.1,120.3a101.76,101.76,0,0,0-.26,22.47,8.76,8.76,0,0,1-2.8-.61c-1.16-7-2-14.76-1.37-19.4s1.46-7.49-.22-14-9.28-31.44-9.28-31.44L71,73.85c1.1,3.74,3.41,11.76,5.27,19.26C78.83,103.35,81.15,111.73,80.1,120.3Z"/><path class="cls-8" d="M58.42,145.77c-1.21-.23-1.58.61-1.58,1.72s-.37,2.64,1.84,3.85,3.85,1.69,5.86,3.43,3.64,2.27,7,1.9,2.11-3,.58-4.33-8.12-6.41-10.49-6.61A11,11,0,0,0,58.42,145.77Z"/><path class="cls-6" d="M57.68,141.68V146a3,3,0,0,0,4.49,0v-4.48Z"/><path class="cls-16" d="M73.93,76.45c-2.53,11.34-5.38,25.74-6.81,30.64s-3.27,8.55-3.69,14.64-1,21.46-1,21.46a3.76,3.76,0,0,1-3.81.68,7.16,7.16,0,0,1-1.67-.68c-2.43-10.1-3.7-17.72-1.9-26.3s0-15.55-.42-23.14-.11-22-.11-22l8,2Z"/><path class="cls-9" d="M62.48,74.23C60.9,81.3,59.37,91,59.84,100s-1.1,16.92-1.58,21.75c-.41,4.22-.95,14.2.41,22.14a7.16,7.16,0,0,1-1.67-.68c-2.43-10.1-3.7-17.72-1.9-26.3s0-15.55-.42-23.14-.11-22-.11-22l8,2A5.2,5.2,0,0,1,62.48,74.23Z"/><path class="cls-8" d="M71.85,38.52a8.77,8.77,0,0,0,10.4,1c.44-6.17.68-14.64-2.88-15.75S72.56,23.41,71.85,38.52Z"/><path class="cls-17" d="M84.21,53.35c.85,8.33,1,14,0,20-8.21,5.53-14.84,6-19.73,4.72a19,19,0,0,1-9.91-6.41c11.5-13.87,5.35-26.55,1.79-33.2s-.31-7.75,4.59-9.26,3.17-2.47,11.1-5.46c5.46-2.06,7.79-.62,8.76,1.14a5.63,5.63,0,0,1,.66,2.3c.16,2-.21,4.19,1.58,6s3.16,5.48,1.27,8.65S83.37,45,84.21,53.35Z"/><path class="cls-9" d="M80.81,24.92c-.56,10.63-11.35,13.2-13.9,12.29-2.95-1.06.43,11.71,0,20-.35,6.93-1.65,14.6-2.43,20.86a19,19,0,0,1-9.91-6.41c11.5-13.87,5.35-26.55,1.79-33.2s-.31-7.75,4.59-9.26,3.17-2.47,11.1-5.46C77.51,21.72,79.84,23.16,80.81,24.92Z"/><path class="cls-13" d="M66.49,9.26,68,2.82s9.28-2,12.13,8.23c.53,7.17-.74,16.14-6.81,19L72,23.39a5.14,5.14,0,0,0,4.21-5.27C76.09,13.58,72.08,9.68,66.49,9.26Z"/><path class="cls-6" d="M64.83,11.13l1.66-1.87s6.65.29,8.86,1.87,3.32,5.85,2,10.76-4.91,3.64-10.29,0S64.83,11.13,64.83,11.13Z"/><path class="cls-6" d="M72.45,22.12c.79,3.7,1,5,1.42,6.81s.58,5.38-3.79,4.8-4.59-9.28-4.22-11.13a2.13,2.13,0,0,1,2.63-1.9C69.34,20.91,72.45,22.12,72.45,22.12Z"/><path class="cls-13" d="M68,2.82a10.55,10.55,0,0,1,1,9.39C67,17.8,66.6,31,74.09,37.21c-6.23-2.74-12.87-5.7-14.67-15.82S60.37,4.51,68,2.82Z"/><path class="cls-6" d="M53.94,45.7,53.09,47s.11,4.9.42,8.38,1.77,7.75,7.6,4.27,10.29-6,11.87-6.31,1.18,1.17,3.79,1.57,9.66,2.24,6-1.57S76.14,48.23,71,49.89,60.74,55,61,51.73s.62-6.58.62-6.58Z"/><path class="cls-18" d="M52.17,46.25a8.77,8.77,0,0,0,10.4,1c.44-6.17.68-14.63-2.88-15.74S52.88,31.14,52.17,46.25Z"/><path class="cls-19" d="M22.13,151.22l-.81.81s-1,2.74,0,4.27a10.21,10.21,0,0,1,1.76,5,8.77,8.77,0,0,0,4.8,6.22c2.69,1.43,5.44.64,5.91-1.37s-.37-5.43-1.79-8A30.36,30.36,0,0,1,29.78,153Z"/><path class="cls-20" d="M37.9,143.22l-1.55,1a15.35,15.35,0,0,0-.47,3.31c0,1.43.65,3.22,3.82,3s5.17-.42,7.8,1.37,8,3.41,10.91,2.84,2.19-3.89-1.59-6.21a56.74,56.74,0,0,0-10.11-4.32Z"/><path class="cls-8" d="M51.7,96.89A180.3,180.3,0,0,1,48.61,119c-1.19,5.22-1.19,16.93-1.11,25.71-1.51,1.47-4,1.48-6.34,1a27.11,27.11,0,0,1-4.81-1.53c-.71-7-.63-21.08.39-27.49s0-15.5,0-15.5v0c-.18,1.27-6,42.13-7,51.71-2.34,2.83-5.09,1.72-6.8.51A10.09,10.09,0,0,1,21.32,152s-.87-12.11-.79-19.31,2.13-18.9,1.89-24.31-1.5-22.28-1.5-28a35.67,35.67,0,0,1,.85-8.73l4.45-2.58a7,7,0,0,0,3,1.56,15.42,15.42,0,0,0,3.86.57c5,.16,15.41-9.46,16.85-3.34S52.09,90.64,51.7,96.89Z"/><path class="cls-9" d="M43.55,89.82c.47,5.67-.16,15.06-1.27,23.44-1.05,8-1.25,23.64-1.12,32.5a27.11,27.11,0,0,1-4.81-1.53c-.71-7-.63-21.08.39-27.49s0-15.5,0-15.5C39,85.56,44.66,79.58,44.66,79.58A27.41,27.41,0,0,0,43.55,89.82Z"/><path class="cls-9" d="M32,73.85,29.26,76.7s-1.06,17.23-2,31.09c-.69,10-3,33.48-4.27,45.7A10.09,10.09,0,0,1,21.32,152s-.87-12.11-.79-19.31,2.13-18.9,1.89-24.31-1.5-22.28-1.5-28a35.67,35.67,0,0,1,.85-8.73l4.45-2.58a7,7,0,0,0,3,1.56C30.84,72.38,32,73.85,32,73.85Z"/><path class="cls-21" d="M49.93,41.64a241.34,241.34,0,0,0,0,26.27c-8.58,9.75-15.52,10.6-20.67,8.79a21.45,21.45,0,0,1-7.49-5C24,61.89,19.42,47,17.28,39.88c-1.37-4.55-1.54-6.77-.87-8.22a5.34,5.34,0,0,1,1.82-2,101.81,101.81,0,0,1,10.29-6.09,36.54,36.54,0,0,1,18.25-4.38C50.67,19.28,50.25,34.78,49.93,41.64Z"/><path class="cls-9" d="M29.26,76.7a21.45,21.45,0,0,1-7.49-5C24,61.89,19.42,47,17.28,39.88c-1.37-4.55-1.54-6.77-.87-8.22,7.21-1.24,11.47,7.83,12.64,16.65C30.14,56.65,29.73,69.51,29.26,76.7Z"/><path class="cls-22" d="M48,57.94s4.1-2.15,5.52-1.57c.59.24,3.32,1.74,3.32,1.74s0,1.18-1,.94a3.44,3.44,0,0,1-1.51-.79s-.67-.11-.79.16a4.07,4.07,0,0,1-1.15,1.85c-1.18.83-4.73.58-4.73.58Z"/><path class="cls-6" d="M48.15,57.69s1.5-.29,3.71-.69a10.38,10.38,0,0,1,3.8-.55A14.91,14.91,0,0,1,60,58a.41.41,0,0,1-.25.71c-.43.08-.86-.23-1.25-.15-.12,0,1.05.35,1.39.75a.61.61,0,0,1-.55,1c-.18,0,.25.55-.17.93s-.78.07-.79.15a.7.7,0,0,1-.92.57,10.67,10.67,0,0,0-2.61-.37,26.26,26.26,0,0,0-3.15.43,4,4,0,0,1-3.44-1.37Z"/><path class="cls-6" d="M49.4,61.09,48.9,61l-.53-3.37s-12.65,1.47-16.06,1.57-4.11-.39-5.53-3.63S24,48.31,24,48.31l-7.2,3s2.42,6.64,3.27,8.94,3.69,7.43,8,6.8,15.43-4.27,18.2-4.83L49,61.68a1.63,1.63,0,0,1,.87.21C49.59,61.19,50.05,61.19,49.4,61.09Z"/><path class="cls-23" d="M15.33,51.82s8.12.84,11.08-2.64c-.64-7-1.59-18.51-7.49-18.22S12.69,38.84,15.33,51.82Z"/><path class="cls-6" d="M42.68,4.72c.47,1.58.81,2.29.52,6.13s1.06,10.64-2.1,11.71a11.92,11.92,0,0,1-12.32-4,8.16,8.16,0,0,1,.41-10.72C30.89,6,33.07,5.59,35.44,5S42.68,4.72,42.68,4.72Z"/><path class="cls-6" d="M29.19,17.69s0,3.06,0,4.28-1.39,2.69-.71,4.15,3.36,3.56,6.33,3.92,4,0,3.87-2.26A55.19,55.19,0,0,1,39,21Z"/><path class="cls-13" d="M42.44,6.72A12.16,12.16,0,0,1,35.74,10c-3.32.43-3.64,2.48-2.66,4.49a5.08,5.08,0,0,1,.21,4.4c-.37.84-.92.71-1.32-.32S30.55,15.82,29.49,16s-1.37,1.38-.71,2.61a26.31,26.31,0,0,1-5.17-7.51,6.58,6.58,0,0,1,1.64-7.91c2.21-2,5.9-2.9,8.54-3.11A12.55,12.55,0,0,1,41,2.08C42.86,3.24,44.06,5.38,42.44,6.72Z"/><g class="cls-1"><polygon class="cls-24" points="127.28 52.15 127.32 64.28 116.77 70.37 116.73 58.24 127.28 52.15"/><polygon class="cls-25" points="168.97 162.18 168.98 164.76 146.87 177.53 146.86 174.95 168.97 162.18"/><polygon class="cls-26" points="134.45 169.35 134.49 184.63 121.19 192.31 121.15 177.03 134.45 169.35"/><polygon class="cls-27" points="168.92 143.88 168.93 146.46 121.14 174.05 121.13 171.47 168.92 143.88"/><path class="cls-28" d="M117.05,170.05,173,137.76l.08,29.67-55.93,32.29Zm55.45-2.94-.08-28.38-54.81,31.64.08,28.38,54.81-31.64"/><polygon class="cls-29" points="168.83 112.54 168.84 115.12 147.36 127.52 147.35 124.94 168.83 112.54"/><polygon class="cls-30" points="168.85 119.96 168.86 122.54 138.33 140.17 138.32 137.59 168.85 119.96"/><polygon class="cls-31" points="153.39 100.08 153.39 101.7 141.2 108.74 141.19 107.13 153.39 100.08"/><polygon class="cls-32" points="134.34 132.85 134.39 148.13 121.09 155.81 121.05 140.53 134.34 132.85"/><polygon class="cls-33" points="168.81 107.38 168.82 109.96 121.04 137.55 121.03 134.97 168.81 107.38"/><polygon class="cls-34" points="133.93 107.72 133.93 109.33 116.91 119.16 116.9 117.55 133.93 107.72"/><path class="cls-35" d="M117,133.62l55.93-32.29L173,131,117,163.28Zm55.45-3-.08-28.38-54.81,31.65.08,28.37,54.81-31.64"/><polygon class="cls-36" points="133.85 79.93 133.9 99.49 116.88 109.32 116.82 89.76 133.85 79.93"/><polygon class="cls-37" points="168.93 149.04 168.94 151.62 155.88 159.16 155.88 156.58 168.93 149.04"/><polygon class="cls-38" points="168.95 156.46 168.96 159.04 138.43 176.66 138.43 174.09 168.95 156.46"/><polygon class="cls-39" points="168.87 125.69 168.87 128.26 138.34 145.89 138.34 143.31 168.87 125.69"/><polygon class="cls-40" points="153.38 96.49 153.38 98.1 136.36 107.93 136.35 106.32 153.38 96.49"/><polygon class="cls-41" points="133.94 111.32 133.94 112.93 121.75 119.97 121.74 118.36 133.94 111.32"/><polygon class="cls-42" points="133.91 102.67 133.92 105.25 126.05 109.79 126.04 107.21 133.91 102.67"/><polygon class="cls-43" points="172.83 85.26 172.83 86.87 155.81 96.7 155.81 95.08 172.83 85.26"/><polygon class="cls-44" points="172.81 80.2 172.82 82.78 164.95 87.33 164.94 84.75 172.81 80.2"/><polygon class="cls-45" points="172.75 57.47 172.81 77.03 155.78 86.86 155.72 67.3 172.75 57.47"/><polygon class="cls-46" points="172.66 25.95 172.7 38.08 127.32 64.28 127.28 52.15 172.66 25.95"/><polygon class="cls-47" points="172.71 44.09 172.72 47.31 157.35 56.19 157.34 52.96 172.71 44.09"/><polygon class="cls-48" points="152.44 55.79 152.45 59.02 137.07 67.89 137.06 64.67 152.44 55.79"/><polygon class="cls-49" points="132.16 67.5 132.17 70.72 116.79 79.6 116.78 76.38 132.16 67.5"/><polygon class="cls-50" points="153.37 91.43 153.37 94.01 145.5 98.56 145.5 95.98 153.37 91.43"/><polygon class="cls-51" points="153.3 68.7 153.36 88.26 136.33 98.09 136.28 78.53 153.3 68.7"/><polygon class="cls-52" points="172.84 88.86 172.84 90.47 160.65 97.51 160.64 95.9 172.84 88.86"/><path class="cls-53" d="M173.41,7.25c4.65-2.69,8.43-.53,8.45,4.81l.44,156.39c0,5.35-3.74,11.85-8.39,14.54L116.38,216.2c-4.65,2.69-8.43.53-8.45-4.81L107.49,55c0-5.34,3.74-11.85,8.39-14.53Z"/><path class="cls-54" d="M119.57,222.22a5.15,5.15,0,0,1-2.6-.68c-1.84-1.06-2.86-3.23-2.87-6.1L113.66,59c0-5.59,3.92-12.42,8.79-15.23L180,10.6c2.51-1.46,4.92-1.67,6.78-.6s2.86,3.23,2.87,6.1l.44,156.4c0,5.59-3.93,12.42-8.79,15.23L123.75,221A8.51,8.51,0,0,1,119.57,222.22ZM180.38,11.29l.4.7L123.25,45.21c-4.42,2.55-8,8.75-8,13.83l.45,156.4c0,2.27.74,3.95,2.06,4.71s3.18.56,5.18-.6l57.53-33.21c4.42-2.55,8-8.76,8-13.83L188,16.11c0-2.28-.74-3.95-2.07-4.71s-3.17-.56-5.17.59Z"/></g><path class="cls-55" d="M125.85,70.33c1.31-.76,2.37-.15,2.38,1.35a5.22,5.22,0,0,1-2.36,4.08c-1.31.75-2.37.15-2.37-1.35A5.18,5.18,0,0,1,125.85,70.33Z"/><path class="cls-54" d="M125.51,70.84c1.12-.65,2-.13,2,1.15a4.43,4.43,0,0,1-2,3.49c-1.12.65-2,.13-2-1.15A4.42,4.42,0,0,1,125.51,70.84Z"/><path class="cls-56" d="M125.83,62.59c1.31-.76,2.37-.15,2.38,1.35A5.22,5.22,0,0,1,125.85,68c-1.31.76-2.37.15-2.38-1.35A5.22,5.22,0,0,1,125.83,62.59Z"/><path class="cls-57" d="M125.81,54.85c1.3-.75,2.37-.15,2.37,1.35a5.16,5.16,0,0,1-2.36,4.08c-1.3.76-2.36.15-2.37-1.35A5.19,5.19,0,0,1,125.81,54.85Z"/><path class="cls-54" d="M125.47,55.36c1.12-.65,2-.13,2,1.15a4.43,4.43,0,0,1-2,3.49c-1.12.65-2,.13-2-1.15A4.43,4.43,0,0,1,125.47,55.36Z"/><path class="cls-58" d="M125.8,52.42c1.94-1.12,3.52-.22,3.53,2l0,17.69a7.76,7.76,0,0,1-3.5,6.07c-1.94,1.11-3.52.21-3.53-2l0-17.69A7.71,7.71,0,0,1,125.8,52.42Zm0,15.6a5.22,5.22,0,0,0,2.36-4.08c0-1.5-1.07-2.11-2.38-1.35a5.22,5.22,0,0,0-2.36,4.08c0,1.5,1.07,2.11,2.38,1.35m0,7.74a5.22,5.22,0,0,0,2.36-4.08c0-1.5-1.07-2.11-2.38-1.35a5.18,5.18,0,0,0-2.35,4.08c0,1.5,1.06,2.11,2.37,1.35m-.05-15.48a5.16,5.16,0,0,0,2.36-4.08c0-1.5-1.07-2.1-2.37-1.35a5.19,5.19,0,0,0-2.36,4.08c0,1.5,1.07,2.11,2.37,1.35"/><path class="cls-59" d="M121.53,58l.06-.35a2,2,0,0,1,0-.24,1.74,1.74,0,0,1,0-.22c0-.1,0-.21.08-.31l.06-.18c0-.12.07-.23.11-.35l.06-.14c.06-.16.12-.32.19-.48a.14.14,0,0,0,0-.06l.2-.42a.83.83,0,0,0,.07-.13l.21-.39,0-.08c.09-.15.18-.3.28-.44l.08-.13a3.46,3.46,0,0,1,.22-.31l.12-.17.2-.25a1.63,1.63,0,0,1,.17-.2c0-.07.11-.13.16-.19l.29-.31.15-.15A7.46,7.46,0,0,1,125,52l.11-.09a7.38,7.38,0,0,1,.68-.46l.55-.27.17-.07.31-.1L127,51l.18,0,.23,0h.47l.32,0,.08,0,.24.07.07,0,.29.14-1.67-1,0,0-.22-.1,0,0-.07,0-.12,0-.12,0-.08,0h0a1.15,1.15,0,0,0-.26,0h-.36l-.14,0h-.12l-.11,0-.17,0-.1,0-.1,0-.31.11-.1,0-.07,0a4.53,4.53,0,0,0-.54.27,5.81,5.81,0,0,0-.68.46l-.11.08c-.21.17-.42.35-.62.54l0,0-.09.1c-.1.1-.2.2-.29.31l-.09.09a.73.73,0,0,1-.08.09l-.17.21a1.34,1.34,0,0,1-.11.14,1,1,0,0,0-.08.11l-.12.17-.09.11-.13.2a.83.83,0,0,0-.08.12.21.21,0,0,0,0,.06l-.23.36v0l0,.07-.15.27-.06.13a.54.54,0,0,0-.07.13l-.06.11c-.05.1-.09.21-.14.31a.14.14,0,0,0,0,.06h0c-.06.13-.11.26-.16.39l0,.07a.88.88,0,0,1,0,.15l-.07.19a.94.94,0,0,0,0,.16l-.06.18,0,.11a1.17,1.17,0,0,0,0,.2l-.06.22a.24.24,0,0,1,0,.08c0,.05,0,.1,0,.16a2,2,0,0,0-.06.34.44.44,0,0,0,0,.1.28.28,0,0,1,0,.09,6.61,6.61,0,0,0,0,.76l0,17.69a3,3,0,0,0,1.28,2.79l1.67,1a3.05,3.05,0,0,1-1.27-2.8L121.46,59a6.76,6.76,0,0,1,.05-.76A1.1,1.1,0,0,1,121.53,58Z"/><path class="cls-60" d="M125.8,51.45c2.41-1.39,4.36-.27,4.37,2.49l.05,17.69a9.53,9.53,0,0,1-4.34,7.52c-2.41,1.39-4.37.28-4.37-2.49L121.46,59A9.58,9.58,0,0,1,125.8,51.45Zm3.58,20.67,0-17.69c0-2.23-1.59-3.13-3.53-2a7.71,7.71,0,0,0-3.5,6.07l0,17.69c0,2.22,1.59,3.12,3.53,2a7.76,7.76,0,0,0,3.5-6.07"/></g></g></g></svg>