<svg xmlns="http://www.w3.org/2000/svg" xmlns:xlink="http://www.w3.org/1999/xlink" viewBox="0 0 200.04 238.58"><defs><style>.cls-1{isolation:isolate;}.cls-2{fill:url(#linear-gradient);}.cls-21,.cls-3{fill:#231f20;}.cls-3{opacity:0.22;}.cls-10,.cls-12,.cls-14,.cls-15,.cls-16,.cls-17,.cls-18,.cls-19,.cls-21,.cls-28,.cls-3,.cls-5{mix-blend-mode:multiply;}.cls-4{fill:#20323f;}.cls-28,.cls-5{fill:#383736;}.cls-12,.cls-5{opacity:0.25;}.cls-6{fill:url(#linear-gradient-2);}.cls-7{fill:#965437;}.cls-8{fill:#a2623e;}.cls-9{fill:#f5f5f5;}.cls-10{fill:#ddb19e;}.cls-10,.cls-15,.cls-19{opacity:0.35;}.cls-11{fill:url(#linear-gradient-3);}.cls-12{fill:#232f38;}.cls-13{fill:url(#linear-gradient-4);}.cls-15{fill:#c69d8a;}.cls-16{fill:#a28172;opacity:0.29;}.cls-17{fill:#daaf98;opacity:0.34;}.cls-18{fill:#c29c8a;opacity:0.37;}.cls-19{fill:#acc6cc;}.cls-20{fill:#283d4e;}.cls-21,.cls-28{opacity:0.27;}.cls-22{fill:#6d320a;}.cls-23{fill:#3a4247;}.cls-24{fill:url(#linear-gradient-5);}.cls-25,.cls-29{fill:#242b30;}.cls-25{opacity:0.36;}.cls-26{fill:url(#linear-gradient-6);}.cls-27{fill:#cee8f6;}.cls-29{opacity:0.21;}.cls-30{fill:url(#linear-gradient-7);}.cls-31{fill:url(#linear-gradient-8);}.cls-32{fill:url(#linear-gradient-9);}.cls-33{fill:url(#linear-gradient-10);}.cls-34{fill:url(#linear-gradient-11);}.cls-35{fill:url(#linear-gradient-12);}.cls-36{fill:url(#linear-gradient-13);}.cls-37{fill:url(#linear-gradient-14);}.cls-38{fill:url(#linear-gradient-15);}.cls-39{fill:url(#linear-gradient-16);}.cls-40{fill:url(#linear-gradient-17);}.cls-41{fill:url(#linear-gradient-18);}.cls-42{fill:url(#linear-gradient-19);}.cls-43{fill:url(#linear-gradient-20);}.cls-44{fill:url(#linear-gradient-21);}.cls-45{fill:url(#linear-gradient-22);}.cls-46{fill:url(#linear-gradient-23);}.cls-47{fill:url(#linear-gradient-24);}.cls-48{fill:url(#linear-gradient-25);}.cls-49{fill:url(#linear-gradient-26);}.cls-50{fill:url(#linear-gradient-27);}.cls-51{fill:url(#linear-gradient-28);}.cls-52{fill:url(#linear-gradient-29);}.cls-53{fill:url(#linear-gradient-30);}.cls-54{fill:url(#linear-gradient-31);}.cls-55{fill:url(#linear-gradient-32);}.cls-56{fill:url(#linear-gradient-33);}.cls-57{fill:url(#linear-gradient-34);}.cls-58{fill:url(#linear-gradient-35);}.cls-59{fill:url(#linear-gradient-36);}.cls-60{fill:#fff;}.cls-61{fill:url(#linear-gradient-37);}.cls-62{fill:url(#linear-gradient-38);}.cls-63{fill:url(#linear-gradient-39);}.cls-64{fill:url(#linear-gradient-40);}.cls-65{fill:url(#linear-gradient-41);}.cls-66{fill:url(#linear-gradient-42);}</style><linearGradient id="linear-gradient" x1="-1811.13" y1="128.29" x2="-1749.43" y2="235.15" gradientTransform="matrix(-1, 0, 0, 1, -1677.81, 0)" gradientUnits="userSpaceOnUse"><stop offset="0" stop-color="#30a7d8"/><stop offset="0.36" stop-color="#2fa5d5"/><stop offset="0.62" stop-color="#2d9dcc"/><stop offset="0.85" stop-color="#2991bc"/><stop offset="1" stop-color="#2686ad"/></linearGradient><linearGradient id="linear-gradient-2" x1="77.92" y1="70.92" x2="80.38" y2="70.92" gradientUnits="userSpaceOnUse"><stop offset="0" stop-color="#9ba0f2"/><stop offset="1" stop-color="#e5e5fe"/></linearGradient><linearGradient id="linear-gradient-3" x1="105.96" y1="67.58" x2="109.45" y2="105.67" gradientUnits="userSpaceOnUse"><stop offset="0" stop-color="#bfcaff"/><stop offset="1" stop-color="#fff"/></linearGradient><linearGradient id="linear-gradient-4" x1="98.53" y1="58.62" x2="125.31" y2="58.62" xlink:href="#linear-gradient-3"/><linearGradient id="linear-gradient-5" x1="121.95" y1="106.91" x2="130.77" y2="106.91" gradientUnits="userSpaceOnUse"><stop offset="0" stop-color="#fff"/><stop offset="1" stop-color="#bfcaff"/></linearGradient><linearGradient id="linear-gradient-6" x1="129.37" y1="120.76" x2="131.66" y2="120.76" xlink:href="#linear-gradient-5"/><linearGradient id="linear-gradient-7" x1="21.2" y1="118.33" x2="34.55" y2="118.33" gradientUnits="userSpaceOnUse"><stop offset="0" stop-color="#445edb"/><stop offset="1" stop-color="#4f6dff"/></linearGradient><linearGradient id="linear-gradient-8" x1="55.86" y1="168.06" x2="68.93" y2="168.06" xlink:href="#linear-gradient-3"/><linearGradient id="linear-gradient-9" x1="21.25" y1="116.38" x2="69.04" y2="116.38" gradientUnits="userSpaceOnUse"><stop offset="0" stop-color="#000964"/><stop offset="1" stop-color="#131a64"/></linearGradient><linearGradient id="linear-gradient-10" x1="17.11" y1="126.21" x2="73.13" y2="126.21" xlink:href="#linear-gradient-7"/><linearGradient id="linear-gradient-11" x1="38.47" y1="133.94" x2="69.01" y2="133.94" xlink:href="#linear-gradient-7"/><linearGradient id="linear-gradient-12" x1="17.27" y1="66.08" x2="34.35" y2="66.08" xlink:href="#linear-gradient-7"/><linearGradient id="linear-gradient-13" x1="17.35" y1="44.05" x2="32.74" y2="44.05" xlink:href="#linear-gradient-7"/><linearGradient id="linear-gradient-14" x1="60.96" y1="112.34" x2="73.16" y2="112.34" xlink:href="#linear-gradient-7"/><linearGradient id="linear-gradient-15" x1="56.14" y1="107.35" x2="73.17" y2="107.35" xlink:href="#linear-gradient-7"/><linearGradient id="linear-gradient-16" x1="65.31" y1="105.42" x2="73.19" y2="105.42" xlink:href="#linear-gradient-9"/><linearGradient id="linear-gradient-17" x1="17.38" y1="28.97" x2="27.96" y2="28.97" xlink:href="#linear-gradient-9"/><linearGradient id="linear-gradient-18" x1="37.63" y1="55.76" x2="53.01" y2="55.76" xlink:href="#linear-gradient-7"/><linearGradient id="linear-gradient-19" x1="27.93" y1="45.12" x2="73.34" y2="45.12" xlink:href="#linear-gradient-3"/><linearGradient id="linear-gradient-20" x1="21.15" y1="152.88" x2="68.94" y2="152.88" xlink:href="#linear-gradient-3"/><linearGradient id="linear-gradient-21" x1="38.46" y1="139.66" x2="68.99" y2="139.66" xlink:href="#linear-gradient-7"/><linearGradient id="linear-gradient-22" x1="47.54" y1="129.13" x2="69.03" y2="129.13" xlink:href="#linear-gradient-9"/><linearGradient id="linear-gradient-23" x1="41.51" y1="101.11" x2="53.71" y2="101.11" xlink:href="#linear-gradient-7"/><linearGradient id="linear-gradient-24" x1="36.69" y1="96.12" x2="53.72" y2="96.12" xlink:href="#linear-gradient-7"/><linearGradient id="linear-gradient-25" x1="45.86" y1="94.19" x2="53.74" y2="94.19" xlink:href="#linear-gradient-9"/><linearGradient id="linear-gradient-26" x1="36.72" y1="77.31" x2="53.8" y2="77.31" xlink:href="#linear-gradient-3"/><linearGradient id="linear-gradient-27" x1="56.17" y1="88.54" x2="73.25" y2="88.54" xlink:href="#linear-gradient-7"/><linearGradient id="linear-gradient-28" x1="57.9" y1="67.46" x2="73.29" y2="67.46" xlink:href="#linear-gradient-9"/><linearGradient id="linear-gradient-29" x1="21.1" y1="154.83" x2="34.44" y2="154.83" xlink:href="#linear-gradient-7"/><linearGradient id="linear-gradient-30" x1="38.37" y1="170.43" x2="68.91" y2="170.43" xlink:href="#linear-gradient-7"/><linearGradient id="linear-gradient-31" x1="17.01" y1="162.65" x2="73.02" y2="162.65" xlink:href="#linear-gradient-7"/><linearGradient id="linear-gradient-32" x1="46.77" y1="178.59" x2="68.89" y2="178.59" xlink:href="#linear-gradient-7"/><linearGradient id="linear-gradient-33" x1="22.06" y1="89.88" x2="34.26" y2="89.88" xlink:href="#linear-gradient-7"/><linearGradient id="linear-gradient-34" x1="17.24" y1="84.89" x2="34.27" y2="84.89" xlink:href="#linear-gradient-7"/><linearGradient id="linear-gradient-35" x1="26.41" y1="82.96" x2="34.28" y2="82.96" xlink:href="#linear-gradient-9"/><linearGradient id="linear-gradient-36" x1="53.76" y1="211.27" x2="53.76" gradientTransform="matrix(-1, 0, 0, 1, 98.94, 0)" gradientUnits="userSpaceOnUse"><stop offset="0" stop-color="#131a64" stop-opacity="0.1"/><stop offset="1" stop-color="#000964" stop-opacity="0.5"/></linearGradient><linearGradient id="linear-gradient-37" x1="86.19" y1="37.51" x2="90.8" y2="32.9" gradientTransform="matrix(-1, 0, 0, 1, 98.94, 0)" gradientUnits="userSpaceOnUse"><stop offset="0" stop-color="#131a64"/><stop offset="1" stop-color="#000964"/></linearGradient><linearGradient id="linear-gradient-38" x1="86.17" y1="29.77" x2="90.78" y2="25.16" xlink:href="#linear-gradient-37"/><linearGradient id="linear-gradient-39" x1="86.15" y1="22.03" x2="90.76" y2="17.42" xlink:href="#linear-gradient-37"/><linearGradient id="linear-gradient-40" x1="6.92" y1="27.47" x2="14" y2="27.47" gradientUnits="userSpaceOnUse"><stop offset="0" stop-color="#445edb"/><stop offset="1" stop-color="#394fb8"/></linearGradient><linearGradient id="linear-gradient-41" x1="11.96" y1="41.62" x2="11.96" y2="12.05" gradientUnits="userSpaceOnUse"><stop offset="0" stop-color="#4f6dff"/><stop offset="1" stop-color="#445edb"/></linearGradient><linearGradient id="linear-gradient-42" x1="88.47" y1="41.91" x2="88.47" y2="13.02" xlink:href="#linear-gradient-37"/></defs><title>Officer</title><g class="cls-1"><g id="Layer_2" data-name="Layer 2"><g id="Officer"><polygon class="cls-2" points="4.79 196.56 79.07 238.58 200.04 167.08 126.74 124.49 4.79 196.56"/><path class="cls-3" d="M97.6,168.36c3.49,1.89,3.6,3.53,1.93,3.53-4.33,0-5.7,1.36-5.11,2.73,1,2.24,13.47,8,27.43,6.74,13-1.17,12.3-6.69,8.9-10.35-2.34-2.53-13-9.51-26.12-10.58-7.91-.65-11.68.76-12.48,1.84C90.83,164.06,93.73,166.26,97.6,168.36Z"/><path class="cls-4" d="M78.58,68.25s11.69-2.57,14.54-3.75c1.77-.72,4.3-12.25,5.5-16.77,2.22-8.39,4.57-7.41,6.54-5.78.49.28,1.84,2.82.75,6.11C104.66,51.83,101,63.2,99.18,67,96.32,72.84,79,73.88,79,73.88s-1.4-.39-1.62-2.9C77.24,69,78.29,68.32,78.58,68.25Z"/><path class="cls-5" d="M79,73.87l-.06,0h0a2,2,0,0,1-.71-.56h0L78.06,73q-.11-.18-.21-.39A62.85,62.85,0,0,0,94.54,68.3c1.39-.68-.05-1.46.11-1.68s1.33.51,2.29.11c.2-.08-.42-.54-1.15-1.08s-.27-.4.2-.33c1,.14,2,.48.94-.85-.44-.54.88-.71,1.13-1.57.13-.45,4.63-13.1,5.24-19.32.08-.78.88-1.4,1.52-1.89l.34.26c.49.28,1.84,2.82.75,6.11C104.66,51.83,101,63.2,99.18,67,96.32,72.84,79,73.88,79,73.88h0Z"/><path class="cls-6" d="M79.35,68.37s-.61-.23-.86.11a4.22,4.22,0,0,0-.54,3,4.46,4.46,0,0,0,.45,1.43c.13.23.51.73.84.61s.48-.28.77-.93a4.82,4.82,0,0,0,.11-3.41C79.88,68.88,79.35,68.37,79.35,68.37Z"/><path class="cls-7" d="M79.8,68.81l-3.12-.33a8.44,8.44,0,0,0-3.17-.22A12.79,12.79,0,0,0,70,69.85a.34.34,0,0,0,.26.57c.36,0,.69-.24,1-.2.1,0-.85.35-1.1.71-.43.59.16.92.52.83.15,0-.17.48.2.76s.65,0,.67.08a.58.58,0,0,0,.79.41,9.17,9.17,0,0,1,2.13-.48,23.09,23.09,0,0,1,2.64.16,3.32,3.32,0,0,0,2.75-1.36Z"/><path class="cls-8" d="M79.92,69s-3.53-1.51-4.66-.94c-.48.24-2.64,1.65-2.64,1.65s.11,1,.89.71a2.92,2.92,0,0,0,1.2-.75s.55-.13.66.09a3.44,3.44,0,0,0,1.07,1.45c1,.61,4,.18,4,.18Z"/><path class="cls-9" d="M79,68.29s1,.15,1.11,2.3a4.2,4.2,0,0,1-.31,2.24,1.84,1.84,0,0,1-.53.69l1.1-.14s.54-.36.64-2c.15-2.46-1.26-3.12-1.26-3.12Z"/><path class="cls-7" d="M112.86,83.28s3.26,2.25,2,12.67c-.69,6-10.09,32.26-10.09,32.26,5.54,6.53,6,11.78,6.77,15.17a33.57,33.57,0,0,0,6.61,13.44c1.85,2.23-1.41,3.16-1.41,3.16s-3.22,6.22-5.29,7.71c-.79.57-4,1.89-2.75-.07.8-1.28,3.45-5.19,3.72-9.58.13-2.13-10.65-18.67-15.62-26-.91-1.35-.75-1.66-.86-5.67C95.47,108,101.2,83.6,101.2,83.6Z"/><path class="cls-10" d="M114.53,157c-1.5-5.07-3.18-11.39-10.83-22.61-2.82-4.13-2.5-6.83-2.07-9.4.78-4.71,8.46-38,8.46-38s1.65-1,3.86-2.19c.82,1.66,1.68,5,1,11.17-.69,6-10.09,32.26-10.09,32.26,5.54,6.53,6,11.78,6.77,15.17a33.57,33.57,0,0,0,6.61,13.44c1.85,2.23-1.41,3.16-1.41,3.16s-3.22,6.22-5.29,7.71a7.08,7.08,0,0,1-1.36.68C112.31,164.56,115.39,159.91,114.53,157Z"/><path class="cls-4" d="M116.42,154.47s3.26,1.82,2.13,5c-.24.68.8,6.11.8,6.11s0,.11-.14.16a.24.24,0,0,1-.24-.06s-1.25-4.83-1.36-5.11c-.61-1.52-1.53,1.77-1.9,2.9-1.07,3.2-2.08,5.41-3,6-1.57,1-4.51.63-4.79.6s-.93,0-.52-.72C108,168.4,109,167,109,167a5.12,5.12,0,0,0,1.81,0c1.64-.44,2.19-1.06,4.07-5.07A14.64,14.64,0,0,0,116.42,154.47Z"/><path class="cls-10" d="M101.2,83.6l11.52-.31c.32,2.16.26,5.82-.79,12-.73,4.37-2.29,16.86-3.05,22.06-.69,1.9-1.34,3.69-1.92,5.25-4.43-.21-8.63-3.07-10.83-4.5C97,101.9,101.2,83.6,101.2,83.6Z"/><path class="cls-8" d="M125.28,100.69s-2.19,3.46-1.94,4.22a3.26,3.26,0,0,1,.1,1.46l1.83-.64.25-3.46Z"/><path class="cls-4" d="M116.87,163.15s2,.8,1.21,3.88a46.59,46.59,0,0,0-1.3,8.73,8.39,8.39,0,0,1-3.43,4,3.7,3.7,0,0,1-1.59,0c-.73-.1-.77-3.11-.56-4.18,1.07-5.56,1.78-8.84,1.78-8.84S115.5,161.89,116.87,163.15Z"/><path class="cls-8" d="M121.43,87.67a66.75,66.75,0,0,1-.65,15.27c-1.81,10.73-3.36,18.73-1.81,23.22s2.14,10.22.86,18.49c-1,6.49-1.77,11.82-2.25,14.76a13.73,13.73,0,0,0-.14,4.56s-.74,6.37-1.2,8.53c-.58,2.77-3,3.09-4.06,2.26-.51-.39-.42-1-.32-1.79.32-2.35,1.12-7.58,1.23-9.82s-1.63-19.8-2.8-32.09c-.14-1.42-1.47-2.89-1.89-5.67-.89-5.75-1.76-44.39-1.76-44.39S117.17,77.2,121.43,87.67Z"/><path class="cls-10" d="M115.26,163.54c-.39-6.38,2.75-15,2.93-24.13.14-7.41-.86-8.69-2.29-13.25a40.83,40.83,0,0,1-1.56-9.56l4.58-.87c-.69,4.49-.88,7.73,0,10.43,1.55,4.48,2.14,10.22.86,18.49-1,6.49-1.77,11.82-2.25,14.76a14,14,0,0,0-.15,4.56s-.73,6.37-1.19,8.53a3.74,3.74,0,0,1-1.5,2.5C115.23,173.09,115.42,166.18,115.26,163.54Z"/><path class="cls-10" d="M118.38,122.8a19.71,19.71,0,0,1-7.54.77,12.4,12.4,0,0,1-2.7-.75c-.79-10.12-1.5-41.82-1.5-41.82s10.53-3.8,14.79,6.67a66.75,66.75,0,0,1-.65,15.27C119.36,111.38,118.1,118.12,118.38,122.8Z"/><path class="cls-11" d="M102.86,69.38a131.68,131.68,0,0,0-3.24,13.23c-1.57,9.76-4,34.51-4,34.51s8.71,5,15.34,5.61c5.72.52,8.16-1.56,8.16-1.56s.87-7.56,1-8.81c1.68-13,3.57-22.81,2-28.36a50.12,50.12,0,0,0-4.92-11.2Z"/><path class="cls-12" d="M112,122.8c.51-5.2,4.2-20.54,4.91-27.26,1.83-17.64-6-20.31-6-20.31l5.48-2.62.82.19A50.12,50.12,0,0,1,122.11,84c1.6,5.55-.29,15.35-2,28.36-.16,1.25-1,8.81-1,8.81S117,123,112,122.8Z"/><path class="cls-13" d="M117.54,66.39c-.38,1.44-.82,5.34.29,8a12.41,12.41,0,0,1-11,2.28A17.56,17.56,0,0,1,101,74.1c.15-.93,1-8.33,1-9.42a6.43,6.43,0,0,0-1.61-4.39c-1.94-2.37-2.53-3.56-1-8.27.42-1.32.81-4.57,1.25-6.69.85-4.17,2.65-5.07,4.22-5.12,6.62-.23,11.81.3,18.33,4.82,4.88,3.39-.1,9.28-.1,9.28S118.55,62.54,117.54,66.39Z"/><path class="cls-14" d="M98.1,25.12a2.45,2.45,0,0,1,1.5-2.31,2.3,2.3,0,0,1-.34-1.1,2.43,2.43,0,0,1,1-2.11,1.79,1.79,0,0,1-.09-.35,2.15,2.15,0,0,1,2.94-2.37C105,17.42,106,23,106,23s1.86,7.06,1.89,7.1c.33.52-4,3.08-5,3.08A1.85,1.85,0,0,1,101,31.31s0-.06,0-.09a2.47,2.47,0,0,1-.5-.19,3.25,3.25,0,0,1-1.76-3A2.25,2.25,0,0,1,99,26.86,2.34,2.34,0,0,1,98.1,25.12Z"/><path class="cls-7" d="M116.4,43a30.88,30.88,0,0,1-1.2-7.85c0-3.27,0-4.38,0-4.38l-7.78,3.36s.56,6.62.56,8.65c0,.44-.94,1.21-.19,3C108.34,47.12,111.71,50.41,116.4,43Z"/><path class="cls-15" d="M112,47.12a30.57,30.57,0,0,1-1.21-7.85c0-3.27,0-4.38,0-4.38l-3.22,1.39c-.1-1.27-.18-2.19-.18-2.19l7.78-3.36s0,1.11,0,4.38A30.88,30.88,0,0,0,116.4,43c-1.74,2.76-3.3,4-4.6,4.5Z"/><path class="cls-16" d="M115.2,35.11a1.21,1.21,0,0,0,0,.19,11.55,11.55,0,0,1-.9,1.16c-2.29,2.54-5.86,3.27-6.48,2.72-.16-2.71-.4-5.09-.4-5.09l7.78-3.36S115.23,31.84,115.2,35.11Z"/><path class="cls-8" d="M110,16.34c-5.48-.68-6.45,2.81-7,6.67-.11.72.08,1.76,0,2.32a8.21,8.21,0,0,0-.74,4.32,34.84,34.84,0,0,0,1.2,6.67c.31,1.13.51,1.36,1.21,1.6,1.8.62,4.86.25,8.28-2.65,3-2.59,4.56-7.37,4.68-7.82l-1.27-7.21S112.9,16.7,110,16.34Z"/><path class="cls-17" d="M112.21,17.43l-.13-.07C112,17.27,112.07,17.3,112.21,17.43Z"/><path class="cls-18" d="M109.68,35.46A13,13,0,0,0,113,30.6c.05-.18-1.31-1.4-1.56-2.28a2.41,2.41,0,0,1,.47-2.1c0-.1-.82,0-1.33-.37-1.26-.93-.24-2.17-.5-2.42-.93-.89-2.69,1.51-4.94-.56C103,21,103.39,18,104.91,17.15c.65.29,11,1.53,14.4,2.55l-1.75,7.75c-.12.45-1.64,5.23-4.68,7.82-2.51,2.14-4.83,2.9-6.6,2.9A20.11,20.11,0,0,0,109.68,35.46Z"/><path class="cls-14" d="M102.66,16.78a4.25,4.25,0,0,1,1-2.28,2.06,2.06,0,0,1,2.27-.35,3.25,3.25,0,0,1,.31-.4,2.08,2.08,0,0,1,2.91.12,2.42,2.42,0,0,1,.38-.51,2.05,2.05,0,0,1,3.27.68l.16-.19a1.81,1.81,0,0,1,3.08.94c0,.09,0,.18.06.26a1.8,1.8,0,0,1,3,1c0,.12,0,.23.07.34a1.49,1.49,0,0,1,1.07-.14,1.93,1.93,0,0,1,1.5,1.49,3.39,3.39,0,0,1,0,1.65,1.51,1.51,0,0,1,.8.23,1.39,1.39,0,0,1,.66,1.33,1.32,1.32,0,0,1-.21.65,2.16,2.16,0,0,1,.55.23,1.66,1.66,0,0,1,.76,1.56,1.59,1.59,0,0,1-.6,1.13l.29.19a2.23,2.23,0,0,1,.76,2.22,2.12,2.12,0,0,1-1,1.45,2.43,2.43,0,0,1,.83,1.4c.2,2.92-2.17,2.87-2.17,2.87a2.72,2.72,0,0,1-.56,2.28,3.48,3.48,0,0,1-3,1.49s-1-.32-1-.33c-3.22-1.62-1.16-4.59-1.1-4.66-.16-.1-.86,1.06-2.28.47-1.73-.53-.9-2.22-1-2.32s-2.9-1-.78-3.57c-.23-.61-.71,0-1.41-.44-1.44-1-.22-2.13-.22-2.36-.2-.65-.83-.9-1.92-.57a4.09,4.09,0,0,1-5.14-4.16c-.37.11-.61-.28-.63-.3A2.68,2.68,0,0,1,102.66,16.78Z"/><path class="cls-19" d="M123.07,54.31s-4.52,8.23-5.53,12.08c-.38,1.44-.82,5.34.29,8a14.57,14.57,0,0,1-4.74,2.35,19.76,19.76,0,0,1-.71-2.31c-1-4,.64-9.73-1-10a7.08,7.08,0,0,1-4.27-2.89S114.41,64,116.33,59c3.66-9.56,4.73-7.18,5.14-7.69.16,2.6.47-1.11.53-1.08C126.87,53.63,123.07,54.31,123.07,54.31Z"/><path class="cls-4" d="M101.74,64.57a6,6,0,0,0-1.55-4.22C98.25,58,97.48,57.18,99,52.48c.42-1.32.66-5.56,1.29-8.11,1-4.13,2.58-3.95,4.24-4.2,1.08-.16,3.55-.52,3.93-.68a24.77,24.77,0,0,0-3.22,13.11c0,.84.32,4.33.32,4.33s1.64,14.81,1.38,18.37c-.1,1.39-.69,6.7-1,8.37-.08.4-.25.18-.25.18-2.22-.62-5.79-2.64-6.38-3.71C99.44,79.22,101.74,65.67,101.74,64.57Z"/><path class="cls-4" d="M107.53,83.6c-.1-1.43-1.11-9-1.11-10.87,0-4-.92-15.55-.92-15.55a42.46,42.46,0,0,0,9.12-8.33,37.87,37.87,0,0,0,4.1-6.5A37.79,37.79,0,0,1,123.17,45c4.88,3.39-.1,9.28-.1,9.28s-4.33,7.83-5.43,11.65c-.59,2.05,3.29,12.21,4.41,14.85-2,1.34-6.21,3.15-14.06,3.15C107.64,84,107.57,83.92,107.53,83.6Z"/><path class="cls-20" d="M108.47,39.47l0-1.09-.62.36c-.78.44-1.28,1.47-1.81,2.14s-3.31,5.94-3.31,5.94c-.16.35,0,.43.17.59l2,1.12-2,.83c-.2.12-.26.2-.14.59.87,2.76,2.86,7.42,2.86,7.42s.17-6.06.32-8.55C106.23,42.71,108.47,39.47,108.47,39.47Z"/><path class="cls-21" d="M105.88,56.87c0,.06-.37.4-.36.47A5.29,5.29,0,0,0,105,60.2c.26,3.3,1.76,4.53,1.75,7.16s0,6.59,0,9.12c0,.53-.12,1.15-.2,1.81,0-1.58,0-7.65-.05-11.22,0-2-1.52-4.21-1.72-6.68-.19-2.25.57-3,.59-3.07Z"/><path class="cls-20" d="M116.41,39.66a.62.62,0,0,1,.45.25A16,16,0,0,0,119,42.44l-2,7.43c-.06.24-.09.44-.34.53l-3,.14,1,1.46c.12.23.4.46,0,.69-3.16,1.82-5.77,2.62-9.36,4.86a83.09,83.09,0,0,1,5.94-7.32,34.88,34.88,0,0,0,4.89-8.34A5.12,5.12,0,0,0,116.41,39.66Z"/><path class="cls-21" d="M110.22,63.69a8,8,0,0,0,5.69-4.18c1.46-2.67,3.88-11.33,5.1-15.88.71.43,1.43.89,2.16,1.4,4.88,3.39-.1,9.28-.1,9.28s-5,7.69-5.43,11.65c-.33,3.14,3.15,11.64,4.41,14.85a18,18,0,0,1-6.65,2.46c-.89-3.78-2.73-11.69-3.84-17.24C111.35,65,109.39,64,110.22,63.69Z"/><g class="cls-1"><g class="cls-1"><path class="cls-22" d="M132.33,119.94a1.14,1.14,0,0,1-.25.59Z"/></g></g><g class="cls-1"><g class="cls-1"><path class="cls-22" d="M124.34,124a1.1,1.1,0,0,1-.25.59Z"/></g></g><path class="cls-20" d="M118.34,115.29l18.19-9.21a.76.76,0,0,1,.55.7,2.23,2.23,0,0,1,0,.26,31.79,31.79,0,0,0,.08,9.49,1.24,1.24,0,0,1-.66,1.45c.06,1.08.15,3.22.31,4.32a1.37,1.37,0,0,1-.79,1.7l-16.77,9.15c-.74.37-1.3,0-1.25-.83Z"/><path class="cls-4" d="M114.63,114.59s.09-1.84.61-2.06c5.7-2.43,12.07-9.33,16.34-8.48a17,17,0,0,1,2.45,1.23l2.62.88-17.47,9a1,1,0,0,0-.64.83c-.26,4.1-.51,16.38-.51,16.38a.89.89,0,0,0,.33.86s-.19.33-3.42-3.17c-.51-.54-2.12-.47-2.12-.47-.49,0-.61-.44-.58-.85Z"/><path class="cls-23" d="M128.88,103.71l.58,2.32,1.18.72.13-.09s-.16-.82-.46-2.26c-.18-.92-1.43-1.07-1.43-1.07Z"/><path class="cls-24" d="M128.21,103.13l-5.05,2.55A2.33,2.33,0,0,0,122,107.4a14,14,0,0,0,.94,3.37l.19,0v-2.9a1,1,0,0,1,.71-1.06c.78-.35,4.15-2.21,5.48-2.82a.62.62,0,0,1,.84.36c0,.07.54,2.44.54,2.44s.14-.06.13-.09c-.12-.71-.5-2.47-.56-2.58a1.1,1.1,0,0,0-.29-.38,6.92,6.92,0,0,0-.78-.55A1.23,1.23,0,0,0,128.21,103.13Z"/><path class="cls-20" d="M128.08,103.05,123,105.52a2.34,2.34,0,0,0-1.24,1.72c-.06.84,0,2.67,0,2.67l1.12.86v-2.84s-.11-1.25.73-1.62,4.24-2.11,5.59-2.71a.66.66,0,0,1,.63.07,1.32,1.32,0,0,1,.4.47,1.27,1.27,0,0,0-.41-.55,5.22,5.22,0,0,0-.78-.58A1.18,1.18,0,0,0,128.08,103.05Z"/><path class="cls-25" d="M115.13,112.85l4,2.26.54,10.28c0,.06,0,.13,0,.17a.79.79,0,0,0,0,.17,1.6,1.6,0,0,0,.08.26c.08.15.14.21.28.22a3.13,3.13,0,0,0,1.2-.47l2.62-1.35,4.25-2.09,7.62-3.86a4.89,4.89,0,0,0,.73-.47h0c0,.09,0,.2,0,.3a2.27,2.27,0,0,1-.45.37l-7.69,4.07-4.19,2.19-2.6,1.41-.67.35a1.93,1.93,0,0,1-.87.22,1,1,0,0,1-.53-.19,1.07,1.07,0,0,1-.33-.41,1.54,1.54,0,0,1-.14-.43c0-.09,0-.14,0-.2a1.65,1.65,0,0,1,0-.21l0-10.24Z"/><path class="cls-4" d="M129.47,119.68l1.22-.69a.38.38,0,0,1,.37,0l.45.28a.36.36,0,0,0-.37,0l-1.22.69a1.12,1.12,0,0,0-.53.89l0,1.48-.45-.27,0-1.48A1.15,1.15,0,0,1,129.47,119.68Z"/><path class="cls-26" d="M131.14,119.26c.29-.16.52,0,.52.31l0,1.49-2.27,1.26,0-1.48a1.13,1.13,0,0,1,.53-.89Z"/><path class="cls-8" d="M124.57,96.71s-.74,6-.58,6.48c1,3-.11,3.43-.13,3.51-.17.65.41,1.42,1,1.06a5.46,5.46,0,0,1,.92-.55,9.32,9.32,0,0,0,2.15-.95c.5-.36.4-.76.43-1.71.09-2.6-2.24-11-2.24-11Z"/><path class="cls-27" d="M124,99.9l-.35,2.53a4.53,4.53,0,0,0,4.13.89c1.05-.39.87-.74.87-.74l-.05-2.34Z"/><path class="cls-4" d="M123.66,101.42s.22-12.52-.08-22.65c-.11-3.83-3.91-19.3-4.66-21.71-.61-2,1.44-11.65,4-11.54,2.26.1,3.75,3,4.45,7.26.45,2.72,2.75,19.37,2.75,25.86,0,5-1.33,23.21-1.33,23.21a6.39,6.39,0,0,1-1.86.84C126,102.93,124.23,103.08,123.66,101.42Z"/><path class="cls-28" d="M122.09,45.73a1.7,1.7,0,0,1,.87-.21c2.26.1,3.75,3,4.45,7.26.45,2.72,2.75,19.37,2.75,25.86,0,5-1.33,23.21-1.33,23.21a6.39,6.39,0,0,1-1.86.84,4.9,4.9,0,0,1-.77.11c.2-1.94.65-8.34,1.1-13.43.64-7.23-1.92-32.63-2.59-38.16C124.2,47,122.85,46,122.09,45.73Z"/><path class="cls-29" d="M115.41,113.65c-.17-.23-.24,0-.24,0l-2,14.81s1.08-1.31,1.52-1.82c.78-.88,1.63,2.55,1.91,3.56.23.82.92,1.77.81-.69-.24-5.23.46-14.21.46-14.21s-.4-.55-1.28.53C116.4,116,116,114.37,115.41,113.65Z"/><g class="cls-1"><polygon class="cls-30" points="34.55 114.53 34.5 129.81 21.2 122.14 21.25 106.85 34.55 114.53"/><polygon class="cls-31" points="68.93 170.54 68.92 173.12 55.86 165.58 55.87 163 68.93 170.54"/><polygon class="cls-32" points="69.04 128.88 69.04 131.46 21.25 103.87 21.26 101.29 69.04 128.88"/><path class="cls-33" d="M17.2,95.24l55.93,32.29L73,157.19,17.11,124.9Zm55.28,61,.08-28.37L17.76,96.21l-.08,28.37,54.8,31.64"/><polygon class="cls-34" points="69.01 141.46 69 144.04 38.47 126.41 38.48 123.83 69.01 141.46"/><polygon class="cls-35" points="34.35 61.21 34.29 80.77 17.27 70.94 17.32 51.38 34.35 61.21"/><polygon class="cls-36" points="32.74 46.88 32.73 50.1 17.35 41.23 17.36 38 32.74 46.88"/><polygon class="cls-37" points="73.16 115.06 73.16 116.67 60.96 109.63 60.97 108.01 73.16 115.06"/><polygon class="cls-38" points="73.17 111.46 73.17 113.07 56.14 103.24 56.15 101.63 73.17 111.46"/><polygon class="cls-39" points="73.19 106.4 73.18 108.98 65.31 104.44 65.32 101.86 73.19 106.4"/><polygon class="cls-40" points="27.96 25.96 27.93 38.08 17.38 31.99 17.41 19.86 27.96 25.96"/><polygon class="cls-41" points="53.01 58.58 53 61.81 37.63 52.93 37.64 49.7 53.01 58.58"/><polygon class="cls-42" points="73.34 52.16 73.31 64.28 27.93 38.08 27.96 25.96 73.34 52.16"/><polygon class="cls-43" points="68.94 165.38 68.93 167.96 21.15 140.37 21.16 137.79 68.94 165.38"/><polygon class="cls-44" points="68.99 147.18 68.98 149.76 38.46 132.14 38.47 129.56 68.99 147.18"/><polygon class="cls-45" points="69.03 134.04 69.02 136.62 47.54 124.22 47.55 121.64 69.03 134.04"/><polygon class="cls-46" points="53.71 103.83 53.71 105.44 41.51 98.4 41.52 96.78 53.71 103.83"/><polygon class="cls-47" points="53.72 100.23 53.72 101.84 36.69 92.01 36.7 90.4 53.72 100.23"/><polygon class="cls-48" points="53.74 95.17 53.73 97.75 45.86 93.21 45.87 90.63 53.74 95.17"/><polygon class="cls-49" points="53.8 72.44 53.74 92 36.72 82.17 36.77 62.61 53.8 72.44"/><polygon class="cls-50" points="73.25 83.67 73.19 103.23 56.17 93.4 56.23 73.84 73.25 83.67"/><polygon class="cls-51" points="73.29 70.29 73.28 73.52 57.9 64.64 57.91 61.41 73.29 70.29"/><polygon class="cls-52" points="34.44 151.03 34.4 166.31 21.1 158.63 21.14 143.35 34.44 151.03"/><g class="cls-1"><polygon class="cls-53" points="68.91 177.96 68.9 180.54 38.37 162.91 38.38 160.33 68.91 177.96"/><path class="cls-54" d="M17.1,131.67,73,164l-.08,29.67L17,161.34Zm55.28,61,.08-28.38-54.8-31.64L17.58,161l54.8,31.64"/><polygon class="cls-55" points="68.89 183.68 68.88 186.26 46.77 173.5 46.78 170.91 68.89 183.68"/></g><polygon class="cls-56" points="34.26 92.59 34.26 94.21 22.06 87.17 22.06 85.55 34.26 92.59"/><polygon class="cls-57" points="34.27 89 34.27 90.61 17.24 80.78 17.24 79.17 34.27 89"/><polygon class="cls-58" points="34.28 83.94 34.28 86.52 26.41 81.98 26.41 79.4 34.28 83.94"/><path class="cls-59" d="M16.66,1.15C12-1.53,8.23.62,8.22,6L7.77,162.36c0,5.35,3.75,11.85,8.4,14.54L73.7,210.11c4.65,2.69,8.43.53,8.44-4.81l.44-156.4c0-5.34-3.74-11.85-8.39-14.53Z"/><path class="cls-60" d="M66.32,214.86,8.79,181.64C3.93,178.83,0,172,0,166.41L.44,10c0-2.87,1-5,2.88-6.1s4.26-.86,6.78.6L67.63,37.72c4.86,2.81,8.8,9.64,8.79,15.23L76,209.35c0,2.87-1,5-2.88,6.1a5.11,5.11,0,0,1-2.6.67A8.49,8.49,0,0,1,66.32,214.86Zm-57-209c-2-1.15-3.83-1.36-5.17-.6S2.06,7.74,2.05,10l-.44,156.4c0,5.07,3.57,11.28,8,13.83l57.53,33.21c2,1.16,3.83,1.37,5.17.6s2.06-2.44,2.07-4.71L74.81,53c0-5.08-3.57-11.28-8-13.84L9.29,5.9l.4-.7Z"/></g><path class="cls-61" d="M10.45,32.49c-1.31-.75-2.37-.15-2.37,1.35a5.18,5.18,0,0,0,2.35,4.08c1.31.76,2.37.15,2.38-1.35A5.19,5.19,0,0,0,10.45,32.49Z"/><path class="cls-60" d="M10.79,33c-1.12-.65-2-.13-2,1.15a4.43,4.43,0,0,0,2,3.49c1.11.65,2,.13,2-1.15A4.44,4.44,0,0,0,10.79,33Z"/><path class="cls-62" d="M10.47,24.75C9.17,24,8.1,24.6,8.1,26.1a5.16,5.16,0,0,0,2.36,4.08c1.3.76,2.36.15,2.37-1.35A5.19,5.19,0,0,0,10.47,24.75Z"/><path class="cls-63" d="M10.49,17c-1.3-.75-2.37-.15-2.37,1.35a5.19,5.19,0,0,0,2.36,4.08c1.3.76,2.37.15,2.37-1.35A5.19,5.19,0,0,0,10.49,17Z"/><path class="cls-60" d="M10.84,17.52c-1.12-.65-2-.13-2,1.15a4.49,4.49,0,0,0,2,3.5c1.12.64,2,.12,2-1.16A4.46,4.46,0,0,0,10.84,17.52Z"/><path class="cls-64" d="M14,20.65,14,38.34c0,2.22-1.58,3.13-3.52,2a7.75,7.75,0,0,1-3.51-6.07L7,16.59c0-2.22,1.59-3.13,3.53-2A7.71,7.71,0,0,1,14,20.65Zm-3.54,9.53c1.3.76,2.36.15,2.37-1.35a5.19,5.19,0,0,0-2.36-4.08C9.17,24,8.1,24.6,8.1,26.1a5.16,5.16,0,0,0,2.36,4.08m0,7.74c1.31.76,2.37.15,2.38-1.35a5.19,5.19,0,0,0-2.36-4.08c-1.31-.76-2.37-.15-2.37,1.35a5.18,5.18,0,0,0,2.35,4.08m.05-15.48c1.3.76,2.37.15,2.37-1.35A5.19,5.19,0,0,0,10.49,17c-1.3-.75-2.37-.15-2.37,1.35a5.19,5.19,0,0,0,2.36,4.08"/><path class="cls-65" d="M14.77,20.19a2.14,2.14,0,0,0-.06-.35,2,2,0,0,0,0-.24l-.06-.22c0-.1,0-.21-.08-.31a1.21,1.21,0,0,1,0-.18l-.12-.35a.78.78,0,0,1,0-.14c-.06-.16-.13-.32-.2-.48a.14.14,0,0,0,0-.06c-.06-.14-.13-.28-.2-.42l-.07-.13a3.72,3.72,0,0,0-.21-.39s0-.05,0-.08l-.27-.44-.09-.13c-.07-.1-.14-.21-.22-.31l-.12-.16-.19-.26c-.06-.07-.12-.13-.17-.2l-.17-.19c-.09-.11-.19-.21-.29-.31l-.14-.14a6.14,6.14,0,0,0-.62-.54l-.11-.09a8.09,8.09,0,0,0-.68-.46L10,13.34l-.17-.07-.31-.1-.2-.06-.17,0-.23,0H8.4l-.32,0-.08,0-.24.07-.07,0a1.51,1.51,0,0,0-.29.13l1.68-1h0l.22-.11,0,0,.08,0,.11,0,.13,0,.07,0h0l.27,0h.08a1.47,1.47,0,0,1,.21,0h.32l.11,0,.18,0,.09,0,.1,0,.31.1.11,0,.06,0,.55.27c.23.14.45.29.68.46l.11.09a7.46,7.46,0,0,1,.61.53l.05,0,.09.1c.1.1.2.2.29.31l.1.1.07.09c.06.06.11.13.17.2l.11.14.09.11.12.17a.76.76,0,0,0,.08.11l.13.2.09.13,0,.05c.08.12.16.24.23.37v0l0,.08c.05.09.11.17.15.26l.07.13.06.13.06.11c.05.11.1.21.14.31l0,.06h0c.06.13.11.26.16.39l0,.08s0,.09.05.14,0,.13.07.2,0,.1,0,.15a1.21,1.21,0,0,1,.05.18s0,.07,0,.11,0,.13.05.2a1.74,1.74,0,0,0,.05.22s0,.05,0,.08l0,.16.06.35s0,.06,0,.09a.28.28,0,0,1,0,.09,6.61,6.61,0,0,1,.05.76l-.05,17.69a3.05,3.05,0,0,1-1.27,2.8l-1.68,1a3.05,3.05,0,0,0,1.28-2.79l0-17.69a6.78,6.78,0,0,0,0-.77Z"/><path class="cls-66" d="M14.85,21.14l0,17.69c0,2.76-2,3.87-4.37,2.49a9.57,9.57,0,0,1-4.35-7.53l0-17.68c0-2.77,2-3.88,4.37-2.5A9.6,9.6,0,0,1,14.85,21.14ZM6.92,34.28a7.75,7.75,0,0,0,3.51,6.07c1.94,1.12,3.52.21,3.52-2L14,20.65a7.71,7.71,0,0,0-3.5-6.07C8.56,13.46,7,14.37,7,16.59l0,17.69"/></g></g></g></svg>