<svg xmlns="http://www.w3.org/2000/svg" xmlns:xlink="http://www.w3.org/1999/xlink" viewBox="0 0 194.95 311.08"><defs><style>.cls-1{isolation:isolate;}.cls-2{fill:url(#linear-gradient);}.cls-3{fill:#b3b3b3;}.cls-4{fill:#e6e6e6;}.cls-5{fill:#fff;}.cls-6{fill:#445edb;}.cls-7{fill:url(#linear-gradient-2);}.cls-8{fill:url(#linear-gradient-3);}.cls-9{fill:url(#linear-gradient-4);}.cls-10{fill:url(#linear-gradient-5);}.cls-11{fill:url(#linear-gradient-6);}.cls-12{fill:url(#linear-gradient-7);}.cls-13{fill:url(#linear-gradient-8);}.cls-14{fill:url(#linear-gradient-9);}.cls-15{fill:url(#linear-gradient-10);}.cls-16{fill:url(#linear-gradient-11);}.cls-17{fill:url(#linear-gradient-12);}.cls-18{fill:url(#linear-gradient-13);}.cls-19{fill:url(#linear-gradient-14);}.cls-20{fill:url(#linear-gradient-15);}.cls-21{fill:url(#linear-gradient-16);}.cls-22{fill:url(#linear-gradient-17);}.cls-23{fill:url(#linear-gradient-18);}.cls-24{fill:url(#linear-gradient-19);}.cls-25{opacity:0.2;}.cls-26{fill:url(#linear-gradient-20);}.cls-27{fill:url(#linear-gradient-21);}.cls-28{fill:url(#linear-gradient-22);}.cls-29{fill:url(#linear-gradient-23);}.cls-30{fill:url(#linear-gradient-24);}.cls-31{fill:url(#linear-gradient-25);}.cls-32{fill:url(#linear-gradient-26);}.cls-33{fill:url(#linear-gradient-27);}.cls-34{fill:url(#linear-gradient-28);}.cls-35{fill:url(#linear-gradient-29);}.cls-36{fill:url(#linear-gradient-30);}.cls-37{fill:url(#linear-gradient-31);}.cls-38{fill:url(#linear-gradient-32);}.cls-39{fill:url(#linear-gradient-33);}.cls-40{fill:url(#linear-gradient-34);}.cls-41{fill:#231f20;opacity:0.27;}.cls-41,.cls-52{mix-blend-mode:multiply;}.cls-42{fill:url(#linear-gradient-35);}.cls-43{fill:#f0b386;}.cls-44{fill:#eff2d5;}.cls-45{fill:#20323f;}.cls-46{fill:url(#linear-gradient-36);}.cls-47{fill:#283d4e;}.cls-48{fill:url(#linear-gradient-37);}.cls-49{fill:#de956a;}.cls-50{fill:#ecc19e;}.cls-51{fill:url(#linear-gradient-38);}.cls-52{fill:#425159;}.cls-52,.cls-56{opacity:0.1;}.cls-53{fill:#f1b287;}.cls-54{fill:#241303;}.cls-55{fill:#084469;}</style><linearGradient id="linear-gradient" x1="-1709.98" y1="200.63" x2="-1648.43" y2="307.24" gradientTransform="translate(1776.75)" gradientUnits="userSpaceOnUse"><stop offset="0" stop-color="#2686ad"/><stop offset="0.15" stop-color="#2991bc"/><stop offset="0.38" stop-color="#2d9dcc"/><stop offset="0.64" stop-color="#2fa5d5"/><stop offset="1" stop-color="#30a7d8"/></linearGradient><linearGradient id="linear-gradient-2" x1="47.01" y1="216.12" x2="47.01" y2="4.86" gradientUnits="userSpaceOnUse"><stop offset="0" stop-color="#131a64"/><stop offset="1" stop-color="#000964"/></linearGradient><linearGradient id="linear-gradient-3" x1="47.01" y1="210.69" x2="47.01" y2="10.3" gradientUnits="userSpaceOnUse"><stop offset="0" stop-color="#445edb"/><stop offset="1" stop-color="#394fb8"/></linearGradient><linearGradient id="linear-gradient-4" x1="1.98" y1="94.02" x2="10.02" y2="80.09" xlink:href="#linear-gradient-2"/><linearGradient id="linear-gradient-5" x1="7.35" y1="97.07" x2="7.35" y2="78.86" xlink:href="#linear-gradient-3"/><linearGradient id="linear-gradient-6" x1="57.91" y1="87.82" x2="65.78" y2="87.82" xlink:href="#linear-gradient-2"/><linearGradient id="linear-gradient-7" x1="23.29" y1="175.29" x2="53.82" y2="175.29" gradientUnits="userSpaceOnUse"><stop offset="0" stop-color="#4f6dff"/><stop offset="1" stop-color="#445edb"/></linearGradient><linearGradient id="linear-gradient-8" x1="57.75" y1="159.69" x2="71.09" y2="159.69" xlink:href="#linear-gradient-7"/><linearGradient id="linear-gradient-9" x1="19.17" y1="167.51" x2="75.18" y2="167.51" xlink:href="#linear-gradient-7"/><linearGradient id="linear-gradient-10" x1="57.64" y1="123.19" x2="70.99" y2="123.19" xlink:href="#linear-gradient-7"/><linearGradient id="linear-gradient-11" x1="57.93" y1="94.74" x2="70.13" y2="94.74" xlink:href="#linear-gradient-7"/><linearGradient id="linear-gradient-12" x1="57.92" y1="89.75" x2="74.95" y2="89.75" xlink:href="#linear-gradient-7"/><linearGradient id="linear-gradient-13" x1="23.2" y1="144.52" x2="53.73" y2="144.52" xlink:href="#linear-gradient-7"/><linearGradient id="linear-gradient-14" x1="23.18" y1="138.79" x2="53.72" y2="138.79" xlink:href="#linear-gradient-7"/><linearGradient id="linear-gradient-15" x1="23.16" y1="133.99" x2="44.64" y2="133.99" xlink:href="#linear-gradient-2"/><linearGradient id="linear-gradient-16" x1="38.48" y1="105.97" x2="50.68" y2="105.97" xlink:href="#linear-gradient-7"/><linearGradient id="linear-gradient-17" x1="23.15" y1="121.24" x2="70.94" y2="121.24" xlink:href="#linear-gradient-2"/><linearGradient id="linear-gradient-18" x1="57.84" y1="70.94" x2="74.92" y2="70.94" xlink:href="#linear-gradient-7"/><linearGradient id="linear-gradient-19" x1="19.06" y1="131.07" x2="75.07" y2="131.07" xlink:href="#linear-gradient-7"/><linearGradient id="linear-gradient-20" x1="64.22" y1="33.83" x2="74.81" y2="33.83" xlink:href="#linear-gradient-2"/><linearGradient id="linear-gradient-21" x1="39.18" y1="60.62" x2="54.56" y2="60.62" xlink:href="#linear-gradient-2"/><linearGradient id="linear-gradient-22" x1="18.85" y1="49.98" x2="64.26" y2="49.98" gradientUnits="userSpaceOnUse"><stop offset="0" stop-color="#fff"/><stop offset="1" stop-color="#bfcaff"/></linearGradient><linearGradient id="linear-gradient-23" x1="23.3" y1="183.45" x2="45.42" y2="183.45" xlink:href="#linear-gradient-7"/><linearGradient id="linear-gradient-24" x1="23.26" y1="172.92" x2="36.33" y2="172.92" xlink:href="#linear-gradient-22"/><linearGradient id="linear-gradient-25" x1="23.25" y1="157.74" x2="71.04" y2="157.74" xlink:href="#linear-gradient-22"/><linearGradient id="linear-gradient-26" x1="38.47" y1="100.98" x2="55.5" y2="100.98" xlink:href="#linear-gradient-7"/><linearGradient id="linear-gradient-27" x1="38.45" y1="99.05" x2="46.33" y2="99.05" xlink:href="#linear-gradient-2"/><linearGradient id="linear-gradient-28" x1="59.45" y1="48.91" x2="74.84" y2="48.91" xlink:href="#linear-gradient-7"/><linearGradient id="linear-gradient-29" x1="38.39" y1="82.17" x2="55.47" y2="82.17" xlink:href="#linear-gradient-7"/><linearGradient id="linear-gradient-30" x1="22.23" y1="114.7" x2="39.26" y2="114.7" xlink:href="#linear-gradient-22"/><linearGradient id="linear-gradient-31" x1="22.24" y1="119.7" x2="34.45" y2="119.7" xlink:href="#linear-gradient-22"/><linearGradient id="linear-gradient-32" x1="22.22" y1="112.78" x2="30.1" y2="112.78" xlink:href="#linear-gradient-2"/><linearGradient id="linear-gradient-33" x1="22.16" y1="95.9" x2="39.24" y2="95.9" xlink:href="#linear-gradient-22"/><linearGradient id="linear-gradient-34" x1="18.9" y1="72.32" x2="34.29" y2="72.32" xlink:href="#linear-gradient-7"/><linearGradient id="linear-gradient-35" x1="82.28" y1="230.39" x2="104.29" y2="230.39" gradientUnits="userSpaceOnUse"><stop offset="0" stop-color="#bfcaff"/><stop offset="1" stop-color="#fff"/></linearGradient><linearGradient id="linear-gradient-36" x1="71.02" y1="238.78" x2="93.02" y2="238.78" xlink:href="#linear-gradient-35"/><linearGradient id="linear-gradient-37" x1="70.08" y1="109.55" x2="98.65" y2="147.56" xlink:href="#linear-gradient-35"/><linearGradient id="linear-gradient-38" x1="83.69" y1="123.46" x2="58.35" y2="124.87" xlink:href="#linear-gradient-35"/></defs><title>Student</title><g class="cls-1"><g id="Layer_2" data-name="Layer 2"><g id="Students"><polygon class="cls-2" points="194.95 268.49 121.66 311.08 0 239.18 74.28 197.16 194.95 268.49"/><path class="cls-3" d="M39.13,32a1.85,1.85,0,0,0-.84,1.46c0,.53.38.75.84.48A1.84,1.84,0,0,0,40,32.52C40,32,39.59,31.77,39.13,32Z"/><path class="cls-4" d="M20.11,42a15.45,15.45,0,0,0-7,12.12l.43,151.55c0,4.45,3.16,6.25,7,4l53.32-30.78a15.43,15.43,0,0,0,7-12.11L80.47,15.27c0-4.45-3.16-6.25-7-4l-8,4.63a3.56,3.56,0,0,0-1.61,2.79,7.38,7.38,0,0,1-3.35,5.81L33.13,40.26c-1.86,1.08-3.37.21-3.38-1.92,0-1-.73-1.44-1.62-.93Z"/><path class="cls-3" d="M54.7,23a1.87,1.87,0,0,0-.84,1.46c0,.53.38.75.85.48a1.87,1.87,0,0,0,.84-1.46C55.55,23,55.17,22.77,54.7,23Z"/><path class="cls-3" d="M42.85,30.37a.94.94,0,0,0-.42.73c0,.27.19.37.42.24L51,26.64a.93.93,0,0,0,.42-.73c0-.27-.19-.37-.42-.24Z"/><path class="cls-5" d="M7.75,212.88a5.11,5.11,0,0,1-2.6-.67c-1.85-1.06-2.87-3.23-2.88-6.1L1.83,49.71c0-5.59,3.93-12.42,8.79-15.23L68.15,1.27C70.67-.18,73.08-.4,74.93.67s2.87,3.23,2.88,6.1l.44,156.4c0,5.59-3.93,12.42-8.8,15.23L11.93,211.62A8.49,8.49,0,0,1,7.75,212.88ZM69,2.66,11.43,35.88c-4.42,2.55-8,8.75-8,13.83L3.88,206.1c0,2.28.74,4,2.07,4.72s3.17.56,5.17-.6L68.65,177c4.42-2.55,8-8.76,8-13.84L76.2,6.78c0-2.28-.74-3.95-2.07-4.71S71,1.51,69,2.66Z"/><path class="cls-6" d="M39.13,32a1.85,1.85,0,0,0-.84,1.46c0,.53.38.75.84.48A1.84,1.84,0,0,0,40,32.52C40,32,39.59,31.77,39.13,32Z"/><path class="cls-7" d="M75.52,6C80.17,3.33,84,5.48,84,10.83l.45,156.39c0,5.34-3.75,11.85-8.4,14.54L18.49,215c-4.65,2.69-8.43.53-8.44-4.81L9.61,53.76c0-5.34,3.74-11.85,8.39-14.53Zm-62,199.69c0,4.45,3.16,6.25,7,4l53.32-30.78a15.43,15.43,0,0,0,7-12.11L80.47,15.27c0-4.45-3.16-6.25-7-4l-8,4.63a3.56,3.56,0,0,0-1.61,2.79,7.4,7.4,0,0,1-3.35,5.81L33.13,40.26c-1.86,1.08-3.37.21-3.38-1.92,0-1-.73-1.44-1.62-.93l-8,4.63a15.45,15.45,0,0,0-7,12.12l.43,151.55M51,25.67l-8.14,4.7a.94.94,0,0,0-.42.73c0,.27.19.37.42.24L51,26.64a.93.93,0,0,0,.42-.73c0-.27-.19-.37-.42-.24M39.13,32a1.85,1.85,0,0,0-.84,1.46c0,.53.38.75.84.48A1.84,1.84,0,0,0,40,32.52c0-.54-.38-.75-.84-.49M54.7,23a1.87,1.87,0,0,0-.84,1.46c0,.53.38.75.85.48a1.87,1.87,0,0,0,.84-1.46c0-.53-.38-.75-.85-.48"/><path class="cls-8" d="M20.11,42a15.45,15.45,0,0,0-7,12.12l.43,151.55c0,4.45,3.16,6.25,7,4l53.32-30.78a15.43,15.43,0,0,0,7-12.11L80.47,15.27c0-4.45-3.16-6.25-7-4l-8,4.63a3.56,3.56,0,0,0-1.61,2.79,7.38,7.38,0,0,1-3.35,5.81L33.13,40.26c-1.86,1.08-3.37.21-3.38-1.92,0-1-.73-1.44-1.62-.93Z"/><path class="cls-6" d="M54.7,23a1.87,1.87,0,0,0-.84,1.46c0,.53.38.75.85.48a1.87,1.87,0,0,0,.84-1.46C55.55,23,55.17,22.77,54.7,23Z"/><path class="cls-6" d="M42.85,30.37a.94.94,0,0,0-.42.73c0,.27.19.37.42.24L51,26.64a.93.93,0,0,0,.42-.73c0-.27-.19-.37-.42-.24Z"/><g class="cls-1"><path class="cls-9" d="M6.9,96.73a1,1,0,0,1-.09-.45l0-15.48a1.76,1.76,0,0,1,.09-.55h0a3,3,0,0,1,.24-.55h0a2.15,2.15,0,0,1,.36-.48h0a1.79,1.79,0,0,1,.43-.36L5.1,77.24h0l0,0,0,0,0,0-.05,0,0,0,0,0,0,0,0,0,0,0h0l-.05,0,0,0,0,.05a.18.18,0,0,0,0,.07.36.36,0,0,0-.07.1l-.09.13v0h0s0,0,0,.08a.43.43,0,0,0,0,.07l0,.06,0,0,0,0,0,.06,0,0,0,.06v.06h0v.05l0,.06v.44L4,94.66H4v.11a.11.11,0,0,1,0,0,.13.13,0,0,0,0,.06.09.09,0,0,0,0,.05s0,0,0,.06a.14.14,0,0,1,0,.06l0,.06h0s0,0,0,.08a.61.61,0,0,0,.2.19L7.13,97a.56.56,0,0,1-.23-.27Z"/><path class="cls-10" d="M7.88,78.86A2.48,2.48,0,0,0,6.76,80.8l0,15.48c0,.71.5,1,1.12.64Z"/></g><polygon class="cls-11" points="65.77 84.26 65.78 86.84 57.91 91.38 57.91 88.8 65.77 84.26"/><g class="cls-1"><polygon class="cls-12" points="53.81 165.19 53.82 167.77 23.29 185.39 23.29 182.81 53.81 165.19"/><polygon class="cls-13" points="71.05 148.21 71.09 163.49 57.79 171.17 57.75 155.89 71.05 148.21"/><path class="cls-14" d="M19.17,168.82l55.92-32.29.09,29.67L19.25,198.49Zm55.44-2.94-.08-28.38-54.8,31.64.08,28.38,54.8-31.64"/><polygon class="cls-15" points="70.94 111.71 70.99 126.99 57.69 134.67 57.64 119.39 70.94 111.71"/><polygon class="cls-16" points="70.13 90.42 70.13 92.03 57.94 99.07 57.93 97.46 70.13 90.42"/><polygon class="cls-17" points="74.94 84.03 74.95 85.64 57.92 95.47 57.92 93.86 74.94 84.03"/><polygon class="cls-18" points="53.73 134.41 53.73 137 23.2 154.62 23.2 152.04 53.73 134.41"/><polygon class="cls-19" points="53.71 128.69 53.72 131.27 23.19 148.9 23.18 146.32 53.71 128.69"/><polygon class="cls-20" points="44.64 126.5 44.64 129.08 23.17 141.48 23.16 138.9 44.64 126.5"/><polygon class="cls-21" points="50.67 101.65 50.68 103.26 38.48 110.3 38.48 108.69 50.67 101.65"/><polygon class="cls-22" points="70.93 106.16 70.94 108.73 23.15 136.32 23.15 133.74 70.93 106.16"/><polygon class="cls-23" points="74.86 56.24 74.92 75.81 57.9 85.63 57.84 66.07 74.86 56.24"/><path class="cls-24" d="M19.06,132.39,75,100.1l.08,29.66L19.15,162.05Zm55.45-2.95-.08-28.38L19.63,132.7l.08,28.38,54.8-31.64"/><polygon class="cls-25" points="36.04 106.49 36.05 108.1 19.02 117.93 19.02 116.32 36.04 106.49"/><polygon class="cls-26" points="74.78 24.73 74.81 36.85 64.26 42.94 64.22 30.82 74.78 24.73"/><polygon class="cls-27" points="54.55 54.57 54.56 57.79 39.18 66.67 39.17 63.44 54.55 54.57"/><polygon class="cls-28" points="64.22 30.82 64.26 42.94 18.88 69.14 18.85 57.02 64.22 30.82"/><polygon class="cls-29" points="45.41 175.78 45.42 178.36 23.31 191.12 23.3 188.54 45.41 175.78"/><polygon class="cls-30" points="36.32 167.86 36.33 170.44 23.27 177.98 23.26 175.4 36.32 167.86"/><polygon class="cls-31" points="71.03 142.65 71.04 145.23 23.26 172.82 23.25 170.24 71.03 142.65"/><polygon class="cls-32" points="55.49 95.26 55.5 96.87 38.47 106.7 38.47 105.09 55.49 95.26"/><polygon class="cls-33" points="46.32 95.49 46.33 98.07 38.46 102.61 38.45 100.03 46.32 95.49"/><polygon class="cls-34" points="74.83 42.86 74.84 46.09 59.46 54.96 59.45 51.74 74.83 42.86"/><g class="cls-25"><polygon points="31.22 112.88 31.23 114.49 19.03 121.53 19.03 119.92 31.22 112.88"/></g><g class="cls-25"><polygon points="26.87 106.72 26.88 109.3 19.01 113.84 19 111.26 26.87 106.72"/></g><polygon class="cls-35" points="55.41 67.47 55.47 87.03 38.45 96.86 38.39 77.3 55.41 67.47"/><g class="cls-25"><polygon points="35.96 78.7 36.02 98.27 18.99 108.09 18.94 88.53 35.96 78.7"/></g><polygon class="cls-36" points="39.26 108.98 39.26 110.59 22.24 120.42 22.23 118.81 39.26 108.98"/><polygon class="cls-37" points="34.44 115.37 34.45 116.98 22.25 124.03 22.25 122.42 34.44 115.37"/><polygon class="cls-38" points="30.09 109.22 30.1 111.8 22.23 116.34 22.22 113.76 30.09 109.22"/><polygon class="cls-39" points="39.18 81.2 39.24 100.76 22.21 110.59 22.16 91.03 39.18 81.2"/><polygon class="cls-40" points="34.28 66.27 34.29 69.5 18.91 78.37 18.9 75.15 34.28 66.27"/></g><path class="cls-41" d="M73.72,230.55c3.87-1.86-7.61-1.55-3.51-6,1.75-1.91,12.32-2.26,18.25-1.51,11.94,1.51,28.43,7.16,26.33,14.31-1.89,6.41-13.76,13.43-39.24,11.25-10.91-.93-22.64-6.41-21.46-11.05C54.81,234.71,72,231.39,73.72,230.55Z"/><path class="cls-42" d="M82.28,225.32c0,2,2.5,6.76,7,8.11s5.09,1.83,6.25,3.06,4.13,1.59,5.82,1.09a3.91,3.91,0,0,0,2.74-3.06,6.64,6.64,0,0,0,.15-1.31c0-2.36.14-6-1.06-6.09s-6.87-1-6.87-1A53,53,0,0,0,88,223.34c-3.23-.74-5-.28-5.53,1.11A2.65,2.65,0,0,0,82.28,225.32Z"/><path class="cls-43" d="M103.46,223.38v4.41s-2.82,5.56-8.07-.74c.17-5.54,0-5.75,0-5.75Z"/><path class="cls-44" d="M82.28,225.32c0,2,2.5,6.76,7,8.11s5.09,1.83,6.25,3.06,4.13,1.59,5.82,1.09a3.91,3.91,0,0,0,2.74-3.06c-1.77,1.68-4.61,3.18-7.38.91-3.34-2.72-6-2.35-8.46-4-2.27-1.53-5.09-3.14-5.86-7A2.65,2.65,0,0,0,82.28,225.32Z"/><path class="cls-45" d="M102.77,159.11l1.17,2s-1.1,9.47-1.46,13.2a30.27,30.27,0,0,0,.73,12.41c1.46,5.63,2.73,9.65,2,20.22s-1.77,17.49-1.77,17.49-4.83,2.86-8.07-1.79c.21-8.18,0-20.91-.59-25.63S91,185.42,88.29,180.16s4.33-19,4.33-19Z"/><path class="cls-46" d="M71,233.71c0,2,2.5,6.76,7,8.11s5.1,1.83,6.26,3.06,4.12,1.59,5.81,1.09a3.89,3.89,0,0,0,2.74-3.06A6,6,0,0,0,93,241.6c0-2.36.14-6-1.06-6.09s-6.87-1-6.87-1a53.36,53.36,0,0,0-8.39-2.82c-3.24-.74-5-.28-5.54,1.11A2.65,2.65,0,0,0,71,233.71Z"/><path class="cls-44" d="M71,233.71c0,2,2.5,6.76,7,8.11s5.1,1.83,6.26,3.06,4.12,1.59,5.81,1.09a3.89,3.89,0,0,0,2.74-3.06c-1.76,1.68-4.6,3.18-7.37.91-3.34-2.72-6-2.35-8.46-4-2.28-1.53-5.1-3.14-5.87-7A2.65,2.65,0,0,0,71,233.71Z"/><path class="cls-43" d="M92.19,231.77v4.41s-2.82,5.56-8.07-.74c.18-5.54,0-5.75,0-5.75Z"/><path class="cls-47" d="M94.17,164.61c-2,7.89-5.36,21.7-2.68,28.75s.7,39.48.7,39.48a7.64,7.64,0,0,1-8.08-1.46c.28-6-.8-18.07-1.92-25s-4-19.69-5-25.42a124,124,0,0,1-1.7-14.38c-.38-5,.19-11.44,1.6-13.55,3.24,5.64,4.79,11.56,9.8,12.05S94.17,164.61,94.17,164.61Z"/><path class="cls-48" d="M76.31,137.72a48.84,48.84,0,0,1,.48,9.37,37.92,37.92,0,0,1-.62,5.25c-1.88,10-.66,14.19-.66,14.19s.28-6.86,1.32-10.15c.47,5.55.19,14.48,8.17,13.16s16.07-4.42,19.93-9.59c0,0,1.08-12,.8-24.52s.63-23.89-1.34-29.46A5.29,5.29,0,0,0,99,102.19h0a13.08,13.08,0,0,0-3.72.59,24.08,24.08,0,0,0-2.39.86c-3.38,1.41-7.52,3.18-7.52,3.18-1.31.72-3.83,1.77-6.53,3.38a31.05,31.05,0,0,0-3.5,2.39,9.93,9.93,0,0,0-2,2.14c-1.77,2.63-1.56,5.92.14,11.11A71,71,0,0,1,76.31,137.72Z"/><path class="cls-49" d="M94.4,99v4.46c0,1.27-.61,2.26-2.35,3.06s-8,2.39-7.84,1.08a32.37,32.37,0,0,0,.61-6.3c-.1-3,4-4.25,6-4.08A6.67,6.67,0,0,1,94.4,99Z"/><path class="cls-45" d="M95.29,102.78a17.66,17.66,0,0,1,2.75,8s6.77,9.31,6.56,2.75S99,102.19,99,102.19h0A13.08,13.08,0,0,0,95.29,102.78Z"/><path class="cls-45" d="M73.31,114.73s8.43-3.56,11.93,6.31,6.81-5.63,6.81-5.63l-1.3-2.2a14.77,14.77,0,0,0-11.9-3,31.05,31.05,0,0,0-3.5,2.39A9.93,9.93,0,0,0,73.31,114.73Z"/><path class="cls-45" d="M76.79,147.09a65.66,65.66,0,0,0,7.7,7.32C87.78,156.81,87,149,87,149l-2.3-1.51a55.36,55.36,0,0,1-8.37-9.78A48.84,48.84,0,0,1,76.79,147.09Z"/><path class="cls-45" d="M84.49,154.41a10.54,10.54,0,0,0,9.6,4.42,18.28,18.28,0,0,0,4.16-.85c4.23-1.31,11.84-8,11.84-8,1.6-23.12-2.32-33.11-5.21-37.9s-7.61-2.82-13.81.92a16.21,16.21,0,0,0-3.95,3.09c-2.06,2.39-1.9,4.79-2,8.7C84.87,130.35,84.77,147.5,84.49,154.41Z"/><path class="cls-47" d="M84.49,154.41a10.54,10.54,0,0,0,9.6,4.42c.42-5.2,1.09-14.67,1.16-22.9.08-10.66-5.1-16.57-8.13-19.82-2.06,2.39-1.9,4.79-2,8.7C84.87,130.35,84.77,147.5,84.49,154.41Z"/><path class="cls-50" d="M52.07,121.88a34,34,0,0,1-3.3-4.83,6.65,6.65,0,0,1-1.09-3.69c-.11-1.92-.4-2.25-1.17-2.28s-1.59-.77-3.61-2.06-2.87-1.14-2.17-.29,1.76,1.16,1.28,1.84,0,1.11-.58,1.36-1.46,1.19-.2,2,1,2.07,2.18,2.73,1.76.56,2.1,1.79,1.73,6.59,1.73,6.59Z"/><path class="cls-51" d="M50,117.22c2.1,4,5.68,9.52,6.53,9.2,1.1-.42,8.92-6.88,12.06-9.47,5.12-4.2,14.07-1.84,13.43.46-.54,1.92-2.15,3.14-8.27,7.24a130.71,130.71,0,0,1-16,8.93,5,5,0,0,1-5.75-.4c-3.35-2.76-7.18-10.63-7.72-14.1,0,0,.49-1,3-1.66A23,23,0,0,1,50,117.22Z"/><path class="cls-52" d="M51.63,130.14a5,5,0,0,0,5.75.4,131.17,131.17,0,0,0,16-8.92c4.5-3,6.56-4.48,7.55-5.8.79.47,1.2,1,1.05,1.59-.54,1.92-2.15,3.14-8.27,7.24a130.71,130.71,0,0,1-16,8.93,5,5,0,0,1-5.75-.4c-3.35-2.76-7.18-10.63-7.72-14.1a1.83,1.83,0,0,1,.39-.43C46,122.53,49,128,51.63,130.14Z"/><path class="cls-53" d="M81.72,84.18c-1.38,1.33-2.34,2.3-2,5.52s-.85,4.15-.66,6-.42,7.78,3,7.28,4.87-1.68,7.29-3.56.46-10.66-2.19-13.19A6.82,6.82,0,0,0,81.72,84.18Z"/><path class="cls-54" d="M97,82.88c-4.9-3.6-12-1.92-12-1.92-2.22.92-4.91,3-4.83,6.29s1.46,7.51,7.21,12a11.47,11.47,0,0,0,2,8.17h0c.08.11.18.21.26.31s.08.12.13.17a10.3,10.3,0,0,0,1.92,1.69c2.39,1.84,5.14,3.41,4.72,5.88-.58,3.37,4.45-4.79,3.22-11.09h0c0-.2-.08-.4-.12-.62a11.78,11.78,0,0,1,.69-7.81C101.11,93.69,101.88,86.48,97,82.88Z"/><path class="cls-55" d="M83.46,94.84c2.14,3.37,4.24,6.54,8.53,6.8s6.65-1.79,8.59-4.45,1-5.65,1.84-5.88a2.25,2.25,0,0,0,1.67-2.11c.25-2-1-5.1-2.9-7.6-2.91-3.78-8.74-3.83-12-3.32S81.05,82,80.59,84.84a6.43,6.43,0,0,0-.08.78C80.35,88.34,81.5,91.76,83.46,94.84Z"/><path class="cls-56" d="M83.46,94.84c2.14,3.37,4.24,6.54,8.53,6.8s6.65-1.79,8.59-4.45,1-5.65,1.84-5.88a2.25,2.25,0,0,0,1.67-2.11c-1.19.83-3.4.94-6.48-.13,3.24,2.3,3.94,3.16.31,3.83S82.07,93,80.51,85.62C80.35,88.34,81.5,91.76,83.46,94.84Z"/></g></g></g></svg>